<?xml version="1.0" encoding="UTF-8"?>
<!DOCTYPE svg PUBLIC "-//W3C//DTD SVG 1.1//EN" "http://www.w3.org/Graphics/SVG/1.1/DTD/svg11.dtd">
<svg xmlns="http://www.w3.org/2000/svg" version="1.1" width="969px" height="1280px" style="shape-rendering:geometricPrecision; text-rendering:geometricPrecision; image-rendering:optimizeQuality; fill-rule:evenodd; clip-rule:evenodd" xmlns:xlink="http://www.w3.org/1999/xlink">
<g><path style="opacity:1" fill="#802431" d="M 806.5,24.5 C 807.167,24.5 807.5,24.8333 807.5,25.5C 807.881,26.9311 808.881,27.7645 810.5,28C 815.323,28.7421 819.989,30.0755 824.5,32C 828.167,32.3333 831.833,32.6667 835.5,33C 835.957,33.414 836.291,33.914 836.5,34.5C 844.435,35.9309 852.435,36.5976 860.5,36.5C 861.5,36.5 862.5,36.5 863.5,36.5C 863.5,37.5 863.5,38.5 863.5,39.5C 870.055,39.1386 876.055,40.6386 881.5,44C 892.685,44.7544 903.685,46.4211 914.5,49C 914.043,49.414 913.709,49.914 913.5,50.5C 920.134,51.4967 926.8,51.83 933.5,51.5C 948.484,53.798 953.484,62.1314 948.5,76.5C 947.717,78.0758 946.55,79.4092 945,80.5C 944.565,89.5925 942.565,98.2592 939,106.5C 937.374,117.461 936.207,128.461 935.5,139.5C 932.657,156.051 929.324,172.384 925.5,188.5C 924.883,188.611 924.383,188.944 924,189.5C 923.74,193.25 923.073,196.916 922,200.5C 921.333,197.833 920.667,197.833 920,200.5C 919.667,205.167 919.333,209.833 919,214.5C 914.737,227.813 911.904,241.48 910.5,255.5C 909.5,255.5 908.5,255.5 907.5,255.5C 906.472,270.265 904.805,284.931 902.5,299.5C 897.242,328.851 890.909,357.851 883.5,386.5C 882.351,386.791 881.684,387.624 881.5,389C 880.64,394.04 879.307,398.873 877.5,403.5C 876.914,403.291 876.414,402.957 876,402.5C 874.894,407.769 874.227,413.103 874,418.5C 872.298,425.632 869.964,432.632 867,439.5C 866.827,443.541 866.327,447.541 865.5,451.5C 864.158,452.902 863.324,452.569 863,450.5C 862.5,457.158 862.334,463.825 862.5,470.5C 861.325,470.281 860.325,470.614 859.5,471.5C 860.374,473.747 860.708,476.08 860.5,478.5C 860.5,478.833 860.5,479.167 860.5,479.5C 859.5,479.5 858.5,479.5 857.5,479.5C 857.357,481.262 857.691,482.929 858.5,484.5C 857.478,485.354 856.645,486.354 856,487.5C 855.818,490.226 855.318,492.893 854.5,495.5C 852.854,496.779 851.687,498.445 851,500.5C 850.884,506.476 849.551,512.142 847,517.5C 846.501,521.152 846.335,524.818 846.5,528.5C 845.414,528.62 844.747,529.287 844.5,530.5C 835.331,555.017 827.664,580.017 821.5,605.5C 815.445,612.267 813.111,620.267 814.5,629.5C 805.016,658.954 794.349,687.954 782.5,716.5C 781.603,717.598 780.77,717.598 780,716.5C 779.64,718.608 778.973,720.608 778,722.5C 776.287,723.878 774.953,725.545 774,727.5C 772.558,736.256 770.058,744.59 766.5,752.5C 765.372,753.262 764.205,753.929 763,754.5C 762.848,759.483 760.348,762.483 755.5,763.5C 755.167,764.167 754.833,764.833 754.5,765.5C 680.668,766.167 607.001,766.833 533.5,767.5C 532.833,768.167 532.167,768.833 531.5,769.5C 506.515,786.329 481.182,802.662 455.5,818.5C 454.85,818.196 454.183,817.863 453.5,817.5C 452.304,817.846 452.304,818.346 453.5,819C 448.643,821.357 443.143,823.857 437,826.5C 432.293,825.364 430.126,827.364 430.5,832.5C 427.824,831.992 425.157,831.825 422.5,832C 424.155,833.444 424.822,835.278 424.5,837.5C 420.855,836.68 418.522,838.013 417.5,841.5C 413.78,841.887 411.78,843.887 411.5,847.5C 409.801,847.34 408.134,847.506 406.5,848C 402.549,849.998 398.549,851.998 394.5,854C 392.52,856.503 390.187,858.336 387.5,859.5C 387.5,860.833 387.5,862.167 387.5,863.5C 385.5,864.833 383.5,866.167 381.5,867.5C 379.712,866.378 377.712,866.211 375.5,867C 373.038,868.294 370.705,869.794 368.5,871.5C 367.311,871.244 366.144,870.911 365,870.5C 363.268,872.207 361.435,872.873 359.5,872.5C 357.882,876.634 357.049,880.968 357,885.5C 355.667,886.167 354.667,887.167 354,888.5C 354.339,895.356 352.339,901.356 348,906.5C 342.828,907.769 342.495,909.435 347,911.5C 347.49,912.793 347.657,914.127 347.5,915.5C 344.174,925.823 340.007,935.823 335,945.5C 331.588,948.879 327.421,950.546 322.5,950.5C 257.001,949.335 191.335,949.168 125.5,950C 123.132,955.638 121.466,961.471 120.5,967.5C 119.849,966.909 119.182,966.243 118.5,965.5C 115.817,967.532 114.151,970.199 113.5,973.5C 113.019,979.168 113.519,984.834 115,990.5C 153.762,989.337 192.595,989.17 231.5,990C 233.569,991.523 235.903,992.357 238.5,992.5C 239.505,1003.25 238.172,1013.58 234.5,1023.5C 231.236,1027.11 228.236,1030.95 225.5,1035C 226.971,1038.32 227.637,1041.82 227.5,1045.5C 227.598,1047.55 226.931,1049.22 225.5,1050.5C 224.85,1050.2 224.183,1049.86 223.5,1049.5C 222.833,1051.5 222.167,1053.5 221.5,1055.5C 219.343,1053.2 217.677,1050.53 216.5,1047.5C 216.167,1048.33 215.833,1049.17 215.5,1050C 216.449,1052.31 217.449,1054.64 218.5,1057C 217.756,1059.16 216.756,1061.16 215.5,1063C 216.482,1063.38 217.148,1064.21 217.5,1065.5C 216.045,1069.41 214.878,1073.41 214,1077.5C 210.283,1082.15 208.45,1087.48 208.5,1093.5C 205.829,1096.99 203.495,1100.82 201.5,1105C 200.327,1106.83 200.327,1108.66 201.5,1110.5C 192.932,1133.88 183.599,1156.88 173.5,1179.5C 171.599,1182.25 169.433,1184.92 167,1187.5C 164.761,1196.82 161.927,1205.82 158.5,1214.5C 157.5,1214.5 156.5,1214.5 155.5,1214.5C 155.282,1219.54 153.449,1223.87 150,1227.5C 149.658,1231.84 148.325,1235.84 146,1239.5C 144.922,1241.39 143.255,1242.39 141,1242.5C 109.848,1243.64 78.681,1243.81 47.5,1243C 46.0001,1241.89 44.3334,1241.05 42.5,1240.5C 41.537,1240.97 41.537,1241.64 42.5,1242.5C 39.1783,1241.34 37.0117,1239.01 36,1235.5C 35.5026,1232.85 35.3359,1230.19 35.5,1227.5C 38.7616,1225.08 40.2616,1221.74 40,1217.5C 41.0793,1215.61 42.4126,1215.27 44,1216.5C 43.9461,1213.81 45.1128,1211.98 47.5,1211C 72.8333,1210.67 98.1667,1210.33 123.5,1210C 126.436,1205.28 128.103,1200.12 128.5,1194.5C 130.592,1194.44 132.092,1193.44 133,1191.5C 133.333,1189.17 133.667,1186.83 134,1184.5C 136.395,1179.4 138.562,1174.24 140.5,1169C 139.748,1168.33 139.414,1167.5 139.5,1166.5C 139.263,1165.21 139.596,1164.21 140.5,1163.5C 141.239,1163.63 141.906,1163.46 142.5,1163C 144.07,1160.14 146.07,1157.64 148.5,1155.5C 149.245,1149.35 150.578,1143.35 152.5,1137.5C 156.117,1134.45 157.95,1130.45 158,1125.5C 159.306,1122.54 161.306,1120.21 164,1118.5C 165.561,1111.46 167.228,1104.46 169,1097.5C 172.858,1091.37 175.025,1084.7 175.5,1077.5C 176.734,1072.12 178.734,1067.12 181.5,1062.5C 182.5,1062.5 183.5,1062.5 184.5,1062.5C 184.888,1053.57 187.055,1053.24 191,1061.5C 191.297,1058.55 190.463,1055.89 188.5,1053.5C 189.69,1046.81 192.19,1040.81 196,1035.5C 196.796,1031.25 196.629,1027.08 195.5,1023C 155.833,1022.67 116.167,1022.33 76.5,1022C 73.4806,1019.46 70.9806,1016.63 69,1013.5C 68.8453,1003.46 71.512,994.132 77,985.5C 78.475,980.936 79.3084,976.27 79.5,971.5C 80.4584,971.047 81.2917,970.381 82,969.5C 82.3333,969.833 82.6667,970.167 83,970.5C 85.3261,962.688 87.9927,955.021 91,947.5C 91.4955,945.527 91.6621,943.527 91.5,941.5C 94.3418,939.156 96.1752,936.156 97,932.5C 98,932.833 99,933.167 100,933.5C 101.66,930.23 101.994,926.897 101,923.5C 103.934,919.825 107.767,917.658 112.5,917C 179.335,916.833 246.001,916.333 312.5,915.5C 313.496,915.586 314.329,915.252 315,914.5C 317.96,908.898 319.46,902.898 319.5,896.5C 323.461,890.68 327.295,884.68 331,878.5C 331.87,874.176 332.703,869.842 333.5,865.5C 335.814,863.002 336.98,860.002 337,856.5C 339.133,854.909 340.799,852.909 342,850.5C 342.876,846.659 344.209,842.993 346,839.5C 347.036,835.377 347.87,831.21 348.5,827C 351.186,824.488 352.186,821.321 351.5,817.5C 352.314,813.884 353.648,810.551 355.5,807.5C 360.288,802.137 363.455,795.804 365,788.5C 367.043,786.792 368.71,784.792 370,782.5C 373.914,770.291 378.081,758.124 382.5,746C 381.748,745.329 381.414,744.496 381.5,743.5C 422.192,640.426 467.526,539.426 517.5,440.5C 520.367,439.01 523.034,437.344 525.5,435.5C 525.201,433.396 525.534,431.396 526.5,429.5C 527.281,430.737 528.281,431.737 529.5,432.5C 530.736,431.754 532.07,431.421 533.5,431.5C 533.701,428.272 533.367,425.105 532.5,422C 534.332,418.097 536.165,414.264 538,410.5C 538.254,404.725 540.254,399.725 544,395.5C 546,390.167 548,384.833 550,379.5C 551.873,380.089 553.54,379.422 555,377.5C 557.239,373.681 558.239,369.681 558,365.5C 560.897,361.291 562.897,356.624 564,351.5C 564.654,352.696 565.154,352.696 565.5,351.5C 564.873,350.583 564.539,349.583 564.5,348.5C 616.634,245.817 676.3,148.15 743.5,55.5C 744.82,54.0582 746.486,53.3915 748.5,53.5C 747.578,49.5175 749.078,47.1842 753,46.5C 757.953,38.3895 763.453,30.7229 769.5,23.5C 772.125,22.0315 774.958,21.3648 778,21.5C 783.941,22.1101 789.775,23.2768 795.5,25C 799.358,25.8099 803.024,25.6433 806.5,24.5 Z"/></g>
<g><path style="opacity:1" fill="#7f3e47" d="M 807.5,25.5 C 825.417,28.5491 843.084,32.2158 860.5,36.5C 852.435,36.5976 844.435,35.9309 836.5,34.5C 836.291,33.914 835.957,33.414 835.5,33C 831.833,32.6667 828.167,32.3333 824.5,32C 819.989,30.0755 815.323,28.7421 810.5,28C 808.881,27.7645 807.881,26.9311 807.5,25.5 Z"/></g>
<g><path style="opacity:1" fill="#83464e" d="M 806.5,24.5 C 803.024,25.6433 799.358,25.8099 795.5,25C 789.775,23.2768 783.941,22.1101 778,21.5C 774.958,21.3648 772.125,22.0315 769.5,23.5C 763.453,30.7229 757.953,38.3895 753,46.5C 749.078,47.1842 747.578,49.5175 748.5,53.5C 746.486,53.3915 744.82,54.0582 743.5,55.5C 749.065,46.7181 754.899,38.0515 761,29.5C 765.796,21.0194 772.963,17.8527 782.5,20C 790.476,21.6954 798.476,23.1954 806.5,24.5 Z"/></g>
<g><path style="opacity:1" fill="#83424a" d="M 863.5,36.5 C 886.999,41.2649 910.332,46.2649 933.5,51.5C 926.8,51.83 920.134,51.4967 913.5,50.5C 913.709,49.914 914.043,49.414 914.5,49C 903.685,46.4211 892.685,44.7544 881.5,44C 876.055,40.6386 870.055,39.1386 863.5,39.5C 863.5,38.5 863.5,37.5 863.5,36.5 Z"/></g>
<g><path style="opacity:1" fill="#7f4049" d="M 948.5,76.5 C 944.784,97.7498 940.451,118.75 935.5,139.5C 936.207,128.461 937.374,117.461 939,106.5C 942.565,98.2592 944.565,89.5925 945,80.5C 946.55,79.4092 947.717,78.0758 948.5,76.5 Z"/></g>
<g><path style="opacity:1" fill="#86474f" d="M 925.5,188.5 C 918.452,225.746 910.785,262.746 902.5,299.5C 904.805,284.931 906.472,270.265 907.5,255.5C 908.5,255.5 909.5,255.5 910.5,255.5C 911.904,241.48 914.737,227.813 919,214.5C 919.333,209.833 919.667,205.167 920,200.5C 920.667,197.833 921.333,197.833 922,200.5C 923.073,196.916 923.74,193.25 924,189.5C 924.383,188.944 924.883,188.611 925.5,188.5 Z"/></g>
<g><path style="opacity:1" fill="#7c3b45" d="M 883.5,386.5 C 876.748,417.506 869.082,448.173 860.5,478.5C 860.708,476.08 860.374,473.747 859.5,471.5C 860.325,470.614 861.325,470.281 862.5,470.5C 862.334,463.825 862.5,457.158 863,450.5C 863.324,452.569 864.158,452.902 865.5,451.5C 866.327,447.541 866.827,443.541 867,439.5C 869.964,432.632 872.298,425.632 874,418.5C 874.227,413.103 874.894,407.769 876,402.5C 876.414,402.957 876.914,403.291 877.5,403.5C 879.307,398.873 880.64,394.04 881.5,389C 881.684,387.624 882.351,386.791 883.5,386.5 Z"/></g>
<g><path style="opacity:1" fill="#7e323d" d="M 564.5,348.5 C 564.539,349.583 564.873,350.583 565.5,351.5C 565.154,352.696 564.654,352.696 564,351.5C 562.897,356.624 560.897,361.291 558,365.5C 558.239,369.681 557.239,373.681 555,377.5C 553.54,379.422 551.873,380.089 550,379.5C 548,384.833 546,390.167 544,395.5C 540.254,399.725 538.254,404.725 538,410.5C 536.165,414.264 534.332,418.097 532.5,422C 533.367,425.105 533.701,428.272 533.5,431.5C 532.07,431.421 530.736,431.754 529.5,432.5C 528.281,431.737 527.281,430.737 526.5,429.5C 525.534,431.396 525.201,433.396 525.5,435.5C 523.034,437.344 520.367,439.01 517.5,440.5C 532.149,409.201 547.815,378.534 564.5,348.5 Z"/></g>
<g><path style="opacity:1" fill="#86454e" d="M 860.5,479.5 C 856.279,496.066 851.612,512.4 846.5,528.5C 846.335,524.818 846.501,521.152 847,517.5C 849.551,512.142 850.884,506.476 851,500.5C 851.687,498.445 852.854,496.779 854.5,495.5C 855.318,492.893 855.818,490.226 856,487.5C 856.645,486.354 857.478,485.354 858.5,484.5C 857.691,482.929 857.357,481.262 857.5,479.5C 858.5,479.5 859.5,479.5 860.5,479.5 Z"/></g>
<g><path style="opacity:1" fill="#7d3c44" d="M 846.5,528.5 C 837.517,562.789 826.85,596.455 814.5,629.5C 813.111,620.267 815.445,612.267 821.5,605.5C 827.664,580.017 835.331,555.017 844.5,530.5C 844.747,529.287 845.414,528.62 846.5,528.5 Z"/></g>
<g><path style="opacity:1" fill="#7b343e" d="M 847.5,729.5 C 841.844,726.903 838.01,722.569 836,716.5C 832.505,697.677 840.172,687.011 859,684.5C 880.904,688.97 887.57,701.636 879,722.5C 869.976,733.074 859.476,735.408 847.5,729.5 Z"/></g>
<g><path style="opacity:1" fill="#802330" d="M 847.5,729.5 C 847.918,728.778 848.584,728.278 849.5,728C 837.732,720.523 834.732,710.356 840.5,697.5C 842.657,695.588 844.991,693.921 847.5,692.5C 848.429,691.311 848.762,689.978 848.5,688.5C 854.756,688.183 861.089,688.683 867.5,690C 868.071,691.205 868.738,692.372 869.5,693.5C 872.877,694.271 875.711,695.938 878,698.5C 878.5,706.159 878.666,713.826 878.5,721.5C 875.671,721.325 874.004,722.658 873.5,725.5C 870.249,725.708 867.915,727.208 866.5,730C 860.138,730.653 853.805,730.487 847.5,729.5 Z"/></g>
<g><path style="opacity:1" fill="#802532" d="M 359.5,756.5 C 342.402,801.527 324.069,846.027 304.5,890C 296.451,890.802 288.451,890.635 280.5,889.5C 277.443,880.11 275.777,870.444 275.5,860.5C 275.666,853.825 275.5,847.158 275,840.5C 273.204,838.28 273.037,835.946 274.5,833.5C 271.714,816.988 270.048,800.322 269.5,783.5C 268.5,783.5 267.5,783.5 266.5,783.5C 264.766,771.666 264.266,759.666 265,747.5C 266.346,744.409 268.512,742.076 271.5,740.5C 301.826,739.5 332.159,739.167 362.5,739.5C 361.35,745.109 360.35,750.776 359.5,756.5 Z"/></g>
<g><path style="opacity:1" fill="#802431" d="M 887.5,787.5 C 883.274,791.102 881.441,795.768 882,801.5C 879.757,805.131 878.923,809.131 879.5,813.5C 878.883,813.389 878.383,813.056 878,812.5C 875.905,815.876 874.571,819.543 874,823.5C 870.864,825.164 869.697,827.831 870.5,831.5C 869.022,831.238 867.689,831.571 866.5,832.5C 865.057,836.11 863.39,839.61 861.5,843C 860.207,843.49 858.873,843.657 857.5,843.5C 858.053,845.939 858.053,848.273 857.5,850.5C 855.465,851.597 854.132,853.263 853.5,855.5C 848.956,857.22 846.289,860.553 845.5,865.5C 842.328,866.331 840.662,868.331 840.5,871.5C 835.827,872.987 830.994,873.653 826,873.5C 817.317,872.062 808.483,871.062 799.5,870.5C 794.833,870.5 790.167,870.5 785.5,870.5C 783.143,870.337 780.81,870.503 778.5,871C 777.892,873.502 776.559,875.502 774.5,877C 773.767,878.766 773.433,880.599 773.5,882.5C 772.5,885.5 770.5,887.5 767.5,888.5C 765.833,888.5 764.167,888.5 762.5,888.5C 657.812,888.825 553.145,888.491 448.5,887.5C 448.5,886.167 448.5,884.833 448.5,883.5C 451.941,883.699 455.274,883.199 458.5,882C 556.168,881.833 653.835,881.333 751.5,880.5C 684.829,879.191 618.162,879.191 551.5,880.5C 533.675,876.939 515.842,876.939 498,880.5C 491.517,879.814 485.017,879.314 478.5,879C 490.873,875.697 503.539,873.363 516.5,872C 523.848,870.258 530.848,868.091 537.5,865.5C 538.609,865.443 539.609,865.11 540.5,864.5C 542.134,865.161 543.967,865.494 546,865.5C 589.097,862.27 632.263,860.77 675.5,861C 684.371,856.816 693.371,852.816 702.5,849C 703.337,847.989 703.67,846.822 703.5,845.5C 708.463,846.026 711.796,844.026 713.5,839.5C 724.223,837.464 733.89,833.297 742.5,827C 746.863,826.71 751.196,826.21 755.5,825.5C 761.615,827.714 767.948,828.88 774.5,829C 774.167,829.333 773.833,829.667 773.5,830C 779.74,830.04 785.407,831.707 790.5,835C 798.486,835.999 806.486,836.333 814.5,836C 813.643,835.311 812.977,834.478 812.5,833.5C 812.846,832.304 813.346,832.304 814,833.5C 815.584,829.325 817.918,825.659 821,822.5C 822.88,817.287 825.213,812.287 828,807.5C 828.834,802.839 829.168,798.172 829,793.5C 826.13,788.643 821.963,787.309 816.5,789.5C 812.762,792.171 809.096,794.838 805.5,797.5C 796.371,801.767 786.705,803.601 776.5,803C 770.825,803.464 770.492,804.131 775.5,805C 763.936,807.429 752.269,808.429 740.5,808C 739.437,806.812 738.103,806.312 736.5,806.5C 736.192,804.076 736.526,801.743 737.5,799.5C 744.37,795.782 751.703,793.616 759.5,793C 760.953,790.886 762.953,789.552 765.5,789C 770.197,788.72 774.863,788.22 779.5,787.5C 782.028,786.831 782.028,785.998 779.5,785C 781.433,784.217 782.933,784.717 784,786.5C 788.862,783.113 794.029,779.947 799.5,777C 800.167,775.667 801.167,774.667 802.5,774C 801.402,773.23 801.402,772.397 802.5,771.5C 812.763,762.753 823.763,754.92 835.5,748C 845.591,744.711 855.924,743.711 866.5,745C 886.129,752.759 893.129,766.926 887.5,787.5 Z"/></g>
<g><path style="opacity:0.999" fill="#75303a" d="M 782.5,716.5 C 776.967,731.262 771.134,745.929 765,760.5C 763.542,762.96 761.709,765.127 759.5,767C 714.827,767.251 670.16,767.751 625.5,768.5C 595.005,767.502 564.338,767.169 533.5,767.5C 607.001,766.833 680.668,766.167 754.5,765.5C 754.833,764.833 755.167,764.167 755.5,763.5C 760.348,762.483 762.848,759.483 763,754.5C 764.205,753.929 765.372,753.262 766.5,752.5C 770.058,744.59 772.558,736.256 774,727.5C 774.953,725.545 776.287,723.878 778,722.5C 778.973,720.608 779.64,718.608 780,716.5C 780.77,717.598 781.603,717.598 782.5,716.5 Z"/></g>
<g><path style="opacity:0.078" fill="#c7a3aa" d="M 533.5,767.5 C 564.338,767.169 595.005,767.502 625.5,768.5C 594.153,768.237 562.82,768.571 531.5,769.5C 532.167,768.833 532.833,768.167 533.5,767.5 Z"/></g>
<g><path style="opacity:1" fill="#7f3b45" d="M 802.5,771.5 C 801.402,772.397 801.402,773.23 802.5,774C 801.167,774.667 800.167,775.667 799.5,777C 794.029,779.947 788.862,783.113 784,786.5C 782.933,784.717 781.433,784.217 779.5,785C 782.028,785.998 782.028,786.831 779.5,787.5C 774.863,788.22 770.197,788.72 765.5,789C 762.953,789.552 760.953,790.886 759.5,793C 751.703,793.616 744.37,795.782 737.5,799.5C 736.526,801.743 736.192,804.076 736.5,806.5C 738.103,806.312 739.437,806.812 740.5,808C 752.269,808.429 763.936,807.429 775.5,805C 770.492,804.131 770.825,803.464 776.5,803C 786.705,803.601 796.371,801.767 805.5,797.5C 809.096,794.838 812.762,792.171 816.5,789.5C 821.963,787.309 826.13,788.643 829,793.5C 829.168,798.172 828.834,802.839 828,807.5C 825.213,812.287 822.88,817.287 821,822.5C 817.918,825.659 815.584,829.325 814,833.5C 813.346,832.304 812.846,832.304 812.5,833.5C 812.977,834.478 813.643,835.311 814.5,836C 806.486,836.333 798.486,835.999 790.5,835C 785.407,831.707 779.74,830.04 773.5,830C 773.833,829.667 774.167,829.333 774.5,829C 767.948,828.88 761.615,827.714 755.5,825.5C 751.196,826.21 746.863,826.71 742.5,827C 733.89,833.297 724.223,837.464 713.5,839.5C 722.12,834.187 731.12,829.353 740.5,825C 742.953,824.262 745.453,823.762 748,823.5C 765.919,826.181 783.752,829.348 801.5,833C 803.833,833.667 806.167,833.667 808.5,833C 817.709,822.249 823.709,809.916 826.5,796C 825.667,793.833 824.167,792.333 822,791.5C 814.121,795.189 806.287,799.023 798.5,803C 778.673,807.119 758.673,809.452 738.5,810C 733.857,807.928 732.357,804.428 734,799.5C 735.543,797.622 737.376,796.122 739.5,795C 756.167,789.667 772.833,784.333 789.5,779C 793.997,776.644 798.33,774.144 802.5,771.5 Z"/></g>
<g><path style="opacity:1" fill="#84464f" d="M 359.5,756.5 C 360.35,750.776 361.35,745.109 362.5,739.5C 332.159,739.167 301.826,739.5 271.5,740.5C 268.512,742.076 266.346,744.409 265,747.5C 264.266,759.666 264.766,771.666 266.5,783.5C 267.5,783.5 268.5,783.5 269.5,783.5C 270.048,800.322 271.714,816.988 274.5,833.5C 273.037,835.946 273.204,838.28 275,840.5C 275.5,847.158 275.666,853.825 275.5,860.5C 270.941,827.696 266.774,794.696 263,761.5C 259.664,750.354 263.164,742.52 273.5,738C 302.5,737.333 331.5,737.333 360.5,738C 363.411,738.647 364.745,740.481 364.5,743.5C 363.4,748.145 361.734,752.478 359.5,756.5 Z"/></g>
<g><path style="opacity:1" fill="#7c3b43" d="M 381.5,743.5 C 381.414,744.496 381.748,745.329 382.5,746C 378.081,758.124 373.914,770.291 370,782.5C 368.71,784.792 367.043,786.792 365,788.5C 363.455,795.804 360.288,802.137 355.5,807.5C 363.6,785.85 372.267,764.517 381.5,743.5 Z"/></g>
<g><path style="opacity:1" fill="#7a3d46" d="M 887.5,787.5 C 886.212,796.69 883.545,805.357 879.5,813.5C 878.923,809.131 879.757,805.131 882,801.5C 881.441,795.768 883.274,791.102 887.5,787.5 Z"/></g>
<g><path style="opacity:1" fill="#802532" d="M 527.5,807.5 C 531.532,820.199 539.866,828.532 552.5,832.5C 553.178,834.858 553.512,837.025 553.5,839C 542.187,842.541 530.521,844.207 518.5,844C 516.608,844.973 514.608,845.64 512.5,846C 511.409,847.55 510.076,848.717 508.5,849.5C 507.833,849.5 507.167,849.5 506.5,849.5C 499.159,849.334 491.826,849.5 484.5,850C 474.104,853.468 463.438,855.801 452.5,857C 453.056,857.383 453.389,857.883 453.5,858.5C 447.933,859.247 446.1,856.913 448,851.5C 471.579,834.087 496.079,818.087 521.5,803.5C 524.217,803.852 526.217,805.185 527.5,807.5 Z"/></g>
<g><path style="opacity:1" fill="#7c343f" d="M 527.5,807.5 C 538.689,816.522 548.689,826.689 557.5,838C 555.944,840.614 553.61,841.947 550.5,842C 536.546,844.824 522.546,847.324 508.5,849.5C 510.076,848.717 511.409,847.55 512.5,846C 514.608,845.64 516.608,844.973 518.5,844C 530.521,844.207 542.187,842.541 553.5,839C 553.512,837.025 553.178,834.858 552.5,832.5C 539.866,828.532 531.532,820.199 527.5,807.5 Z"/></g>
<g><path style="opacity:1" fill="#833c45" d="M 455.5,818.5 C 441.213,828.65 426.546,838.317 411.5,847.5C 411.78,843.887 413.78,841.887 417.5,841.5C 418.522,838.013 420.855,836.68 424.5,837.5C 424.822,835.278 424.155,833.444 422.5,832C 425.157,831.825 427.824,831.992 430.5,832.5C 430.126,827.364 432.293,825.364 437,826.5C 443.143,823.857 448.643,821.357 453.5,819C 452.304,818.346 452.304,817.846 453.5,817.5C 454.183,817.863 454.85,818.196 455.5,818.5 Z"/></g>
<g><path style="opacity:1" fill="#7e3841" d="M 879.5,813.5 C 871.681,835.31 859.681,854.477 843.5,871C 838.642,874.729 833.142,876.229 827,875.5C 817.564,874.675 808.397,873.008 799.5,870.5C 808.483,871.062 817.317,872.062 826,873.5C 830.994,873.653 835.827,872.987 840.5,871.5C 840.662,868.331 842.328,866.331 845.5,865.5C 846.289,860.553 848.956,857.22 853.5,855.5C 854.132,853.263 855.465,851.597 857.5,850.5C 858.053,848.273 858.053,845.939 857.5,843.5C 858.873,843.657 860.207,843.49 861.5,843C 863.39,839.61 865.057,836.11 866.5,832.5C 867.689,831.571 869.022,831.238 870.5,831.5C 869.697,827.831 870.864,825.164 874,823.5C 874.571,819.543 875.905,815.876 878,812.5C 878.383,813.056 878.883,813.389 879.5,813.5 Z"/></g>
<g><path style="opacity:1" fill="#83434b" d="M 411.5,847.5 C 403.537,852.82 395.537,858.154 387.5,863.5C 387.5,862.167 387.5,860.833 387.5,859.5C 390.187,858.336 392.52,856.503 394.5,854C 398.549,851.998 402.549,849.998 406.5,848C 408.134,847.506 409.801,847.34 411.5,847.5 Z"/></g>
<g><path style="opacity:1" fill="#874950" d="M 506.5,849.5 C 489.082,853.237 471.415,856.237 453.5,858.5C 453.389,857.883 453.056,857.383 452.5,857C 463.438,855.801 474.104,853.468 484.5,850C 491.826,849.5 499.159,849.334 506.5,849.5 Z"/></g>
<g><path style="opacity:1" fill="#7d3b44" d="M 351.5,817.5 C 352.186,821.321 351.186,824.488 348.5,827C 347.87,831.21 347.036,835.377 346,839.5C 344.209,842.993 342.876,846.659 342,850.5C 340.799,852.909 339.133,854.909 337,856.5C 336.98,860.002 335.814,863.002 333.5,865.5C 332.703,869.842 331.87,874.176 331,878.5C 327.295,884.68 323.461,890.68 319.5,896.5C 329.796,869.93 340.462,843.597 351.5,817.5 Z"/></g>
<g><path style="opacity:0.451" fill="#9a676d" d="M 673.5,858.5 C 673.082,859.222 672.416,859.722 671.5,860C 647.663,860.83 623.996,860.663 600.5,859.5C 624.846,859.715 649.179,859.382 673.5,858.5 Z"/></g>
<g><path style="opacity:1" fill="#79333e" d="M 713.5,839.5 C 711.796,844.026 708.463,846.026 703.5,845.5C 703.67,846.822 703.337,847.989 702.5,849C 693.371,852.816 684.371,856.816 675.5,861C 632.263,860.77 589.097,862.27 546,865.5C 543.967,865.494 542.134,865.161 540.5,864.5C 560.507,862.277 580.507,860.611 600.5,859.5C 623.996,860.663 647.663,860.83 671.5,860C 672.416,859.722 673.082,859.222 673.5,858.5C 686.833,852.167 700.167,845.833 713.5,839.5 Z"/></g>
<g><path style="opacity:1" fill="#a5727c" d="M 785.5,870.5 C 779.859,872.808 775.859,876.808 773.5,882.5C 773.433,880.599 773.767,878.766 774.5,877C 776.559,875.502 777.892,873.502 778.5,871C 780.81,870.503 783.143,870.337 785.5,870.5 Z"/></g>
<g><path style="opacity:1" fill="#853e46" d="M 381.5,867.5 C 374.6,871.56 368.1,876.227 362,881.5C 357.044,892.893 352.211,904.226 347.5,915.5C 347.657,914.127 347.49,912.793 347,911.5C 342.495,909.435 342.828,907.769 348,906.5C 352.339,901.356 354.339,895.356 354,888.5C 354.667,887.167 355.667,886.167 357,885.5C 357.049,880.968 357.882,876.634 359.5,872.5C 361.435,872.873 363.268,872.207 365,870.5C 366.144,870.911 367.311,871.244 368.5,871.5C 370.705,869.794 373.038,868.294 375.5,867C 377.712,866.211 379.712,866.378 381.5,867.5 Z"/></g>
<g><path style="opacity:1" fill="#782934" d="M 537.5,865.5 C 530.848,868.091 523.848,870.258 516.5,872C 503.539,873.363 490.873,875.697 478.5,879C 485.017,879.314 491.517,879.814 498,880.5C 515.842,876.939 533.675,876.939 551.5,880.5C 618.162,879.191 684.829,879.191 751.5,880.5C 653.835,881.333 556.168,881.833 458.5,882C 455.274,883.199 451.941,883.699 448.5,883.5C 448.5,884.833 448.5,886.167 448.5,887.5C 553.145,888.491 657.812,888.825 762.5,888.5C 658.5,889.167 554.5,889.833 450.5,890.5C 445.849,889.768 444.349,887.101 446,882.5C 476.171,875.276 506.671,869.61 537.5,865.5 Z"/></g>
<g><path style="opacity:1" fill="#7f4a52" d="M 762.5,888.5 C 764.167,888.5 765.833,888.5 767.5,888.5C 766.391,889.29 765.058,889.79 763.5,890C 659.167,890.5 554.834,890.667 450.5,890.5C 554.5,889.833 658.5,889.167 762.5,888.5 Z"/></g>
<g><path style="opacity:0.667" fill="#723b43" d="M 319.5,896.5 C 319.46,902.898 317.96,908.898 315,914.5C 314.329,915.252 313.496,915.586 312.5,915.5C 243.833,915.5 175.167,915.5 106.5,915.5C 174.668,914.833 243.001,914.167 311.5,913.5C 314.188,907.731 316.855,902.064 319.5,896.5 Z"/></g>
<g><path style="opacity:0.88" fill="#793d45" d="M 676.5,961.5 C 675.861,955.488 678.194,951.321 683.5,949C 703.543,948.939 723.543,948.272 743.5,947C 748.646,939.948 752.479,932.115 755,923.5C 755.782,920.743 755.282,918.243 753.5,916C 699.497,915.167 645.497,915.333 591.5,916.5C 588.567,917.93 586.067,919.93 584,922.5C 583.658,920.381 582.825,920.047 581.5,921.5C 583.102,918.177 585.769,916.011 589.5,915C 644.833,914.333 700.167,914.333 755.5,915C 758.379,916.666 759.212,919.166 758,922.5C 755.195,929.914 752.195,937.247 749,944.5C 747.5,946 746,947.5 744.5,949C 725.593,950.593 706.593,951.593 687.5,952C 685.754,952.471 684.087,953.138 682.5,954C 680.361,956.478 678.361,958.978 676.5,961.5 Z"/></g>
<g><path style="opacity:1" fill="#752d38" d="M 106.5,915.5 C 175.167,915.5 243.833,915.5 312.5,915.5C 246.001,916.333 179.335,916.833 112.5,917C 107.767,917.658 103.934,919.825 101,923.5C 101.994,926.897 101.66,930.23 100,933.5C 99,933.167 98,932.833 97,932.5C 96.1752,936.156 94.3418,939.156 91.5,941.5C 93.7673,934.295 96.6007,927.295 100,920.5C 101.777,918.21 103.944,916.543 106.5,915.5 Z"/></g>
<g><path style="opacity:1" fill="#722e39" d="M 541.5,915.5 C 541.631,916.239 541.464,916.906 541,917.5C 490.571,916.336 440.071,916.17 389.5,917C 387.552,917.983 385.718,919.15 384,920.5C 382.078,924.602 380.745,928.935 380,933.5C 377.57,935.756 375.404,938.09 373.5,940.5C 375.761,933.305 378.594,926.305 382,919.5C 384.258,917.57 386.758,916.07 389.5,915C 440.335,914.168 491.002,914.335 541.5,915.5 Z"/></g>
<g><path style="opacity:1" fill="#802431" d="M 676.5,961.5 C 674.245,962.648 672.412,964.314 671,966.5C 669.936,974.368 666.936,981.368 662,987.5C 657.328,994.838 654.661,1002.84 654,1011.5C 653,1012.17 652,1012.83 651,1013.5C 650.355,1018.89 649.522,1024.22 648.5,1029.5C 646.408,1029.56 644.908,1030.56 644,1032.5C 643.384,1039.36 640.551,1045.02 635.5,1049.5C 634.463,1055.24 633.129,1060.91 631.5,1066.5C 631.64,1068.03 632.307,1069.03 633.5,1069.5C 623.677,1093.65 613.677,1117.65 603.5,1141.5C 602.883,1141.39 602.383,1141.06 602,1140.5C 598.39,1150.99 594.39,1160.99 590,1170.5C 589,1171.17 588,1171.83 587,1172.5C 584.959,1181.67 582.459,1190.67 579.5,1199.5C 579.336,1203.18 581.003,1205.68 584.5,1207C 589.49,1209.74 594.824,1211.74 600.5,1213C 602.988,1214.69 602.655,1216.02 599.5,1217C 592.438,1217.26 585.438,1216.59 578.5,1215C 568.069,1210.81 557.736,1206.48 547.5,1202C 541.855,1201.34 537.188,1198.84 533.5,1194.5C 529.863,1193.82 526.196,1193.66 522.5,1194C 520.246,1193.38 518.579,1192.04 517.5,1190C 513.554,1188.53 509.554,1187.37 505.5,1186.5C 505.123,1184.74 504.456,1183.08 503.5,1181.5C 504.833,1181.17 506.167,1180.83 507.5,1180.5C 511.595,1181.13 515.428,1182.47 519,1184.5C 521.187,1184.21 523.354,1183.88 525.5,1183.5C 526.806,1184.47 527.473,1185.8 527.5,1187.5C 532.361,1187.92 537.194,1188.59 542,1189.5C 543.894,1189.42 545.727,1189.09 547.5,1188.5C 549.675,1184.3 551.842,1179.96 554,1175.5C 554.497,1173.19 554.663,1170.86 554.5,1168.5C 555.5,1168.5 556.5,1168.5 557.5,1168.5C 557.337,1166.14 557.503,1163.81 558,1161.5C 559.794,1158.79 560.96,1155.79 561.5,1152.5C 562.842,1153.9 563.676,1153.57 564,1151.5C 565.417,1144.43 566.917,1137.43 568.5,1130.5C 574.796,1113.93 581.462,1097.6 588.5,1081.5C 590.149,1080.29 591.815,1078.95 593.5,1077.5C 594.196,1070.68 596.696,1064.68 601,1059.5C 601.297,1056.09 601.964,1052.75 603,1049.5C 607.099,1042.77 610.432,1035.77 613,1028.5C 617.246,1017.41 620.746,1006.08 623.5,994.5C 626.792,984.945 630.459,975.611 634.5,966.5C 635.832,964.868 637.165,963.201 638.5,961.5C 639.833,958.167 639.833,954.833 638.5,951.5C 633.037,950.194 627.704,950.194 622.5,951.5C 605.803,950.928 589.137,950.262 572.5,949.5C 571.353,947.235 571.186,944.902 572,942.5C 574.668,935.172 577.835,928.172 581.5,921.5C 582.825,920.047 583.658,920.381 584,922.5C 586.067,919.93 588.567,917.93 591.5,916.5C 645.497,915.333 699.497,915.167 753.5,916C 755.282,918.243 755.782,920.743 755,923.5C 752.479,932.115 748.646,939.948 743.5,947C 723.543,948.272 703.543,948.939 683.5,949C 678.194,951.321 675.861,955.488 676.5,961.5 Z"/></g>
<g><path style="opacity:1" fill="#802532" d="M 541.5,915.5 C 542.492,915.328 543.158,915.662 543.5,916.5C 541.866,917.972 540.366,919.638 539,921.5C 536.761,928.912 534.261,936.245 531.5,943.5C 529.723,944.901 528.056,946.401 526.5,948C 487.5,948.333 448.5,948.667 409.5,949C 408.692,949.308 408.025,949.808 407.5,950.5C 405.812,954.536 404.146,958.536 402.5,962.5C 401.167,962.5 399.833,962.5 398.5,962.5C 398.5,966.833 398.5,971.167 398.5,975.5C 397.167,975.5 395.833,975.5 394.5,975.5C 394.335,978.85 394.502,982.183 395,985.5C 395.833,986.333 396.667,987.167 397.5,988C 435.499,988.5 473.499,988.667 511.5,988.5C 511.665,991.85 511.498,995.183 511,998.5C 509.214,1000.88 508.047,1003.55 507.5,1006.5C 506.758,1007.29 505.925,1007.95 505,1008.5C 503.345,1012.05 502.178,1015.72 501.5,1019.5C 499.027,1019.09 497.694,1020.09 497.5,1022.5C 496.5,1022.5 495.5,1022.5 494.5,1022.5C 457.498,1022.33 420.498,1022.5 383.5,1023C 381.122,1023.51 378.788,1024.18 376.5,1025C 375.248,1029.45 373.248,1033.45 370.5,1037C 369.873,1039.14 369.373,1041.3 369,1043.5C 363.592,1047.27 362.092,1052.27 364.5,1058.5C 362.171,1059.77 361.005,1061.77 361,1064.5C 360,1065.17 359,1065.83 358,1066.5C 356.445,1077.69 352.278,1087.69 345.5,1096.5C 343.487,1105.03 340.987,1113.37 338,1121.5C 336.247,1126.68 333.747,1131.35 330.5,1135.5C 329.709,1140.92 328.709,1146.25 327.5,1151.5C 324.07,1161.8 320.07,1171.8 315.5,1181.5C 314.883,1181.39 314.383,1181.06 314,1180.5C 310.586,1187.49 308.42,1194.83 307.5,1202.5C 306.738,1204.96 306.071,1207.46 305.5,1210C 305.585,1211.11 305.919,1212.11 306.5,1213C 323.64,1219.76 340.64,1226.6 357.5,1233.5C 357.5,1235.17 357.5,1236.83 357.5,1238.5C 360.518,1238.34 363.518,1238.5 366.5,1239C 372.601,1244.04 379.601,1247.38 387.5,1249C 377.71,1247.41 367.71,1246.41 357.5,1246C 349.851,1244.54 342.518,1242.21 335.5,1239C 328.901,1237.34 322.235,1236.01 315.5,1235C 313.469,1234.37 311.802,1233.2 310.5,1231.5C 308.955,1230.55 307.288,1230.21 305.5,1230.5C 305.322,1226.9 304.322,1226.9 302.5,1230.5C 300.972,1229.14 299.305,1227.97 297.5,1227C 292.511,1226.5 287.511,1226.33 282.5,1226.5C 248.24,1217.03 216.573,1202.2 187.5,1182C 185.077,1180.43 183.744,1178.26 183.5,1175.5C 191.369,1175.91 199.036,1177.41 206.5,1180C 224.63,1185.53 242.63,1191.36 260.5,1197.5C 267.129,1201.51 270.796,1199.51 271.5,1191.5C 289.52,1147.09 307.52,1102.76 325.5,1058.5C 326.117,1058.61 326.617,1058.94 327,1059.5C 329.29,1055.03 330.957,1050.37 332,1045.5C 334.792,1042.8 336.126,1039.46 336,1035.5C 339.55,1029.63 341.717,1023.3 342.5,1016.5C 352.321,990.872 362.654,965.538 373.5,940.5C 375.404,938.09 377.57,935.756 380,933.5C 380.745,928.935 382.078,924.602 384,920.5C 385.718,919.15 387.552,917.983 389.5,917C 440.071,916.17 490.571,916.336 541,917.5C 541.464,916.906 541.631,916.239 541.5,915.5 Z"/></g>
<g><path style="opacity:1" fill="#76313b" d="M 543.5,916.5 C 541.845,926.298 538.678,935.631 534,944.5C 532.833,946.333 531.333,947.833 529.5,949C 503.206,950.176 476.872,951.009 450.5,951.5C 437.006,950.339 423.34,950.173 409.5,951C 408.177,951.816 407.511,952.983 407.5,954.5C 404.242,962.437 401.075,970.437 398,978.5C 397.505,980.473 397.338,982.473 397.5,984.5C 397.5,985.833 398.167,986.5 399.5,986.5C 436.5,987.833 473.5,987.833 510.5,986.5C 512.546,987.359 513.879,988.859 514.5,991C 511.835,1001 508.002,1010.5 503,1019.5C 501.512,1021.16 499.679,1022.16 497.5,1022.5C 497.694,1020.09 499.027,1019.09 501.5,1019.5C 502.178,1015.72 503.345,1012.05 505,1008.5C 505.925,1007.95 506.758,1007.29 507.5,1006.5C 508.047,1003.55 509.214,1000.88 511,998.5C 511.498,995.183 511.665,991.85 511.5,988.5C 473.499,988.667 435.499,988.5 397.5,988C 396.667,987.167 395.833,986.333 395,985.5C 394.502,982.183 394.335,978.85 394.5,975.5C 395.833,975.5 397.167,975.5 398.5,975.5C 398.5,971.167 398.5,966.833 398.5,962.5C 399.833,962.5 401.167,962.5 402.5,962.5C 404.146,958.536 405.812,954.536 407.5,950.5C 408.025,949.808 408.692,949.308 409.5,949C 448.5,948.667 487.5,948.333 526.5,948C 528.056,946.401 529.723,944.901 531.5,943.5C 534.261,936.245 536.761,928.912 539,921.5C 540.366,919.638 541.866,917.972 543.5,916.5 Z"/></g>
<g><path style="opacity:0.999" fill="#6f2f39" d="M 322.5,950.5 C 285.157,950.254 247.824,950.588 210.5,951.5C 183.336,950.336 156.003,950.17 128.5,951C 127.944,951.383 127.611,951.883 127.5,952.5C 125.406,957.685 123.072,962.685 120.5,967.5C 121.466,961.471 123.132,955.638 125.5,950C 191.335,949.168 257.001,949.335 322.5,950.5 Z"/></g>
<g><path style="opacity:0.086" fill="#c0959c" d="M 210.5,951.5 C 182.817,951.228 155.15,951.562 127.5,952.5C 127.611,951.883 127.944,951.383 128.5,951C 156.003,950.17 183.336,950.336 210.5,951.5 Z"/></g>
<g><path style="opacity:0.027" fill="#caa3a5" d="M 450.5,951.5 C 437.163,951.333 423.829,951.5 410.5,952C 409.627,953.045 408.627,953.878 407.5,954.5C 407.511,952.983 408.177,951.816 409.5,951C 423.34,950.173 437.006,950.339 450.5,951.5 Z"/></g>
<g><path style="opacity:1" fill="#a26d75" d="M 622.5,951.5 C 627.704,950.194 633.037,950.194 638.5,951.5C 639.833,954.833 639.833,958.167 638.5,961.5C 637.165,963.201 635.832,964.868 634.5,966.5C 636.289,962.315 637.122,957.981 637,953.5C 636.25,952.874 635.416,952.374 634.5,952C 630.514,951.501 626.514,951.334 622.5,951.5 Z"/></g>
<g><path style="opacity:1" fill="#82474e" d="M 91.5,941.5 C 91.6621,943.527 91.4955,945.527 91,947.5C 87.9927,955.021 85.3261,962.688 83,970.5C 82.6667,970.167 82.3333,969.833 82,969.5C 81.2917,970.381 80.4584,971.047 79.5,971.5C 82.9873,961.207 86.9873,951.207 91.5,941.5 Z"/></g>
<g><path style="opacity:1" fill="#be9a9e" d="M 117.5,975.5 C 117.335,977.827 116.669,979.993 115.5,982C 116.167,983 116.833,984 117.5,985C 155.663,985.834 193.663,986.667 231.5,987.5C 193.832,987.667 156.165,987.5 118.5,987C 115.949,986.578 114.615,985.078 114.5,982.5C 114.643,979.594 115.643,977.261 117.5,975.5 Z"/></g>
<g><path style="opacity:0.018" fill="#fbf5f6" d="M 397.5,984.5 C 404.777,985.43 412.11,985.764 419.5,985.5C 413.021,986.491 406.354,986.824 399.5,986.5C 398.167,986.5 397.5,985.833 397.5,984.5 Z"/></g>
<g><path style="opacity:0.924" fill="#ac8489" d="M 419.5,985.5 C 449.819,986.436 480.152,986.769 510.5,986.5C 473.5,987.833 436.5,987.833 399.5,986.5C 406.354,986.824 413.021,986.491 419.5,985.5 Z"/></g>
<g><path style="opacity:1" fill="#782f39" d="M 120.5,967.5 C 120.02,970.443 119.02,973.11 117.5,975.5C 115.643,977.261 114.643,979.594 114.5,982.5C 114.615,985.078 115.949,986.578 118.5,987C 156.165,987.5 193.832,987.667 231.5,987.5C 243.083,990.004 246.916,997.004 243,1008.5C 238.101,1021.06 232.934,1033.39 227.5,1045.5C 227.637,1041.82 226.971,1038.32 225.5,1035C 228.236,1030.95 231.236,1027.11 234.5,1023.5C 238.172,1013.58 239.505,1003.25 238.5,992.5C 235.903,992.357 233.569,991.523 231.5,990C 192.595,989.17 153.762,989.337 115,990.5C 113.519,984.834 113.019,979.168 113.5,973.5C 114.151,970.199 115.817,967.532 118.5,965.5C 119.182,966.243 119.849,966.909 120.5,967.5 Z"/></g>
<g><path style="opacity:1" fill="#833c45" d="M 676.5,961.5 C 662.167,997.5 647.833,1033.5 633.5,1069.5C 632.307,1069.03 631.64,1068.03 631.5,1066.5C 633.129,1060.91 634.463,1055.24 635.5,1049.5C 640.551,1045.02 643.384,1039.36 644,1032.5C 644.908,1030.56 646.408,1029.56 648.5,1029.5C 649.522,1024.22 650.355,1018.89 651,1013.5C 652,1012.83 653,1012.17 654,1011.5C 654.661,1002.84 657.328,994.838 662,987.5C 666.936,981.368 669.936,974.368 671,966.5C 672.412,964.314 674.245,962.648 676.5,961.5 Z"/></g>
<g><path style="opacity:1" fill="#7d3b44" d="M 79.5,971.5 C 79.3084,976.27 78.475,980.936 77,985.5C 71.512,994.132 68.8453,1003.46 69,1013.5C 70.9806,1016.63 73.4806,1019.46 76.5,1022C 116.167,1022.33 155.833,1022.67 195.5,1023C 196.629,1027.08 196.796,1031.25 196,1035.5C 192.19,1040.81 189.69,1046.81 188.5,1053.5C 190.463,1055.89 191.297,1058.55 191,1061.5C 187.055,1053.24 184.888,1053.57 184.5,1062.5C 183.5,1062.5 182.5,1062.5 181.5,1062.5C 185.533,1050.9 189.867,1039.4 194.5,1028C 193.748,1027.33 193.414,1026.5 193.5,1025.5C 193.389,1024.88 193.056,1024.38 192.5,1024C 185.321,1023.18 178.321,1023.35 171.5,1024.5C 138.451,1024.04 105.451,1023.2 72.5,1022C 68.408,1018.58 66.0747,1014.25 65.5,1009C 69.3016,996.086 73.9682,983.586 79.5,971.5 Z"/></g>
<g><path style="opacity:0.342" fill="#efd4da" d="M 171.5,1024.5 C 178.321,1023.35 185.321,1023.18 192.5,1024C 193.056,1024.38 193.389,1024.88 193.5,1025.5C 186.223,1024.57 178.89,1024.24 171.5,1024.5 Z"/></g>
<g><path style="opacity:0.278" fill="#f0d5dc" d="M 406.5,1024.5 C 398.458,1024.26 390.458,1024.6 382.5,1025.5C 382.918,1024.78 383.584,1024.28 384.5,1024C 392.012,1023.18 399.345,1023.34 406.5,1024.5 Z"/></g>
<g><path style="opacity:1" fill="#7b3b43" d="M 623.5,994.5 C 620.746,1006.08 617.246,1017.41 613,1028.5C 610.432,1035.77 607.099,1042.77 603,1049.5C 601.964,1052.75 601.297,1056.09 601,1059.5C 596.696,1064.68 594.196,1070.68 593.5,1077.5C 591.815,1078.95 590.149,1080.29 588.5,1081.5C 599.597,1052.2 611.263,1023.2 623.5,994.5 Z"/></g>
<g><path style="opacity:1" fill="#843c45" d="M 225.5,1050.5 C 220.404,1065.14 214.737,1079.47 208.5,1093.5C 208.45,1087.48 210.283,1082.15 214,1077.5C 214.878,1073.41 216.045,1069.41 217.5,1065.5C 217.148,1064.21 216.482,1063.38 215.5,1063C 216.756,1061.16 217.756,1059.16 218.5,1057C 217.449,1054.64 216.449,1052.31 215.5,1050C 215.833,1049.17 216.167,1048.33 216.5,1047.5C 217.677,1050.53 219.343,1053.2 221.5,1055.5C 222.167,1053.5 222.833,1051.5 223.5,1049.5C 224.183,1049.86 224.85,1050.2 225.5,1050.5 Z"/></g>
<g><path style="opacity:1" fill="#834249" d="M 494.5,1022.5 C 465.325,1023.24 435.992,1023.91 406.5,1024.5C 399.345,1023.34 392.012,1023.18 384.5,1024C 383.584,1024.28 382.918,1024.78 382.5,1025.5C 380.871,1026.63 379.371,1027.96 378,1029.5C 361.043,1070.23 344.21,1110.89 327.5,1151.5C 328.709,1146.25 329.709,1140.92 330.5,1135.5C 333.747,1131.35 336.247,1126.68 338,1121.5C 340.987,1113.37 343.487,1105.03 345.5,1096.5C 352.278,1087.69 356.445,1077.69 358,1066.5C 359,1065.83 360,1065.17 361,1064.5C 361.005,1061.77 362.171,1059.77 364.5,1058.5C 362.092,1052.27 363.592,1047.27 369,1043.5C 369.373,1041.3 369.873,1039.14 370.5,1037C 373.248,1033.45 375.248,1029.45 376.5,1025C 378.788,1024.18 381.122,1023.51 383.5,1023C 420.498,1022.5 457.498,1022.33 494.5,1022.5 Z"/></g>
<g><path style="opacity:1" fill="#7b3f47" d="M 342.5,1016.5 C 341.717,1023.3 339.55,1029.63 336,1035.5C 336.126,1039.46 334.792,1042.8 332,1045.5C 330.957,1050.37 329.29,1055.03 327,1059.5C 326.617,1058.94 326.117,1058.61 325.5,1058.5C 330.796,1044.26 336.462,1030.26 342.5,1016.5 Z"/></g>
<g><path style="opacity:1" fill="#905a60" d="M 208.5,1093.5 C 206.733,1099.49 204.4,1105.15 201.5,1110.5C 200.327,1108.66 200.327,1106.83 201.5,1105C 203.495,1100.82 205.829,1096.99 208.5,1093.5 Z"/></g>
<g><path style="opacity:1" fill="#7e3842" d="M 175.5,1077.5 C 175.025,1084.7 172.858,1091.37 169,1097.5C 167.228,1104.46 165.561,1111.46 164,1118.5C 161.306,1120.21 159.306,1122.54 158,1125.5C 157.95,1130.45 156.117,1134.45 152.5,1137.5C 150.578,1143.35 149.245,1149.35 148.5,1155.5C 146.07,1157.64 144.07,1160.14 142.5,1163C 141.906,1163.46 141.239,1163.63 140.5,1163.5C 151.654,1134.54 163.321,1105.87 175.5,1077.5 Z"/></g>
<g><path style="opacity:1" fill="#803d46" d="M 568.5,1130.5 C 566.917,1137.43 565.417,1144.43 564,1151.5C 563.676,1153.57 562.842,1153.9 561.5,1152.5C 560.96,1155.79 559.794,1158.79 558,1161.5C 557.503,1163.81 557.337,1166.14 557.5,1168.5C 556.5,1168.5 555.5,1168.5 554.5,1168.5C 554.663,1170.86 554.497,1173.19 554,1175.5C 551.842,1179.96 549.675,1184.3 547.5,1188.5C 545.727,1189.09 543.894,1189.42 542,1189.5C 537.194,1188.59 532.361,1187.92 527.5,1187.5C 527.473,1185.8 526.806,1184.47 525.5,1183.5C 530.82,1184.83 536.154,1186.16 541.5,1187.5C 542.772,1187.43 543.938,1187.1 545,1186.5C 553.151,1167.85 560.985,1149.19 568.5,1130.5 Z"/></g>
<g><path style="opacity:1" fill="#7b3842" d="M 525.5,1183.5 C 523.354,1183.88 521.187,1184.21 519,1184.5C 515.428,1182.47 511.595,1181.13 507.5,1180.5C 506.167,1180.83 504.833,1181.17 503.5,1181.5C 504.456,1183.08 505.123,1184.74 505.5,1186.5C 499.455,1183.72 493.955,1180.06 489,1175.5C 488.312,1174.67 488.479,1174 489.5,1173.5C 501.945,1175.61 513.945,1178.94 525.5,1183.5 Z"/></g>
<g><path style="opacity:1" fill="#935a62" d="M 315.5,1181.5 C 313.208,1188.72 310.541,1195.72 307.5,1202.5C 308.42,1194.83 310.586,1187.49 314,1180.5C 314.383,1181.06 314.883,1181.39 315.5,1181.5 Z"/></g>
<g><path style="opacity:0.451" fill="#c8a7a8" d="M 271.5,1191.5 C 270.796,1199.51 267.129,1201.51 260.5,1197.5C 262.819,1198.17 265.153,1198.33 267.5,1198C 268.733,1195.69 270.067,1193.52 271.5,1191.5 Z"/></g>
<g><path style="opacity:1" fill="#bf9299" d="M 582.5,1195.5 C 582.481,1197.06 582.148,1198.56 581.5,1200C 583.043,1201.71 584.709,1203.21 586.5,1204.5C 580.267,1203.66 578.933,1200.66 582.5,1195.5 Z"/></g>
<g><path style="opacity:1" fill="#7f3b44" d="M 139.5,1166.5 C 139.414,1167.5 139.748,1168.33 140.5,1169C 138.562,1174.24 136.395,1179.4 134,1184.5C 133.667,1186.83 133.333,1189.17 133,1191.5C 132.092,1193.44 130.592,1194.44 128.5,1194.5C 128.103,1200.12 126.436,1205.28 123.5,1210C 98.1667,1210.33 72.8333,1210.67 47.5,1211C 45.1128,1211.98 43.9461,1213.81 44,1216.5C 42.4126,1215.27 41.0793,1215.61 40,1217.5C 40.2616,1221.74 38.7616,1225.08 35.5,1227.5C 36.3952,1221.65 38.5618,1216.31 42,1211.5C 43.9449,1210.14 46.1116,1209.3 48.5,1209C 72.8382,1208.51 97.1715,1207.84 121.5,1207C 127.954,1193.6 133.954,1180.1 139.5,1166.5 Z"/></g>
<g><path style="opacity:1" fill="#7e363f" d="M 603.5,1141.5 C 596.874,1159.72 589.874,1177.72 582.5,1195.5C 578.933,1200.66 580.267,1203.66 586.5,1204.5C 605.317,1210.49 623.317,1218.33 640.5,1228C 632.057,1228.8 623.724,1228.13 615.5,1226C 584.995,1219.28 555.328,1209.94 526.5,1198C 519.117,1194.65 512.117,1190.81 505.5,1186.5C 509.554,1187.37 513.554,1188.53 517.5,1190C 518.579,1192.04 520.246,1193.38 522.5,1194C 526.196,1193.66 529.863,1193.82 533.5,1194.5C 537.188,1198.84 541.855,1201.34 547.5,1202C 557.736,1206.48 568.069,1210.81 578.5,1215C 585.438,1216.59 592.438,1217.26 599.5,1217C 602.655,1216.02 602.988,1214.69 600.5,1213C 594.824,1211.74 589.49,1209.74 584.5,1207C 581.003,1205.68 579.336,1203.18 579.5,1199.5C 582.459,1190.67 584.959,1181.67 587,1172.5C 588,1171.83 589,1171.17 590,1170.5C 594.39,1160.99 598.39,1150.99 602,1140.5C 602.383,1141.06 602.883,1141.39 603.5,1141.5 Z"/></g>
<g><path style="opacity:0.954" fill="#793743" d="M 173.5,1179.5 C 166.222,1199.83 158.056,1219.83 149,1239.5C 147.457,1241.38 145.624,1242.88 143.5,1244C 111.167,1244.67 78.8333,1244.67 46.5,1244C 44.9419,1243.79 43.6085,1243.29 42.5,1242.5C 41.537,1241.64 41.537,1240.97 42.5,1240.5C 44.3334,1241.05 46.0001,1241.89 47.5,1243C 78.681,1243.81 109.848,1243.64 141,1242.5C 143.255,1242.39 144.922,1241.39 146,1239.5C 148.325,1235.84 149.658,1231.84 150,1227.5C 153.449,1223.87 155.282,1219.54 155.5,1214.5C 156.5,1214.5 157.5,1214.5 158.5,1214.5C 161.927,1205.82 164.761,1196.82 167,1187.5C 169.433,1184.92 171.599,1182.25 173.5,1179.5 Z"/></g>
<g><path style="opacity:1" fill="#7c3741" d="M 282.5,1226.5 C 287.511,1226.33 292.511,1226.5 297.5,1227C 299.305,1227.97 300.972,1229.14 302.5,1230.5C 304.322,1226.9 305.322,1226.9 305.5,1230.5C 307.288,1230.21 308.955,1230.55 310.5,1231.5C 311.802,1233.2 313.469,1234.37 315.5,1235C 322.235,1236.01 328.901,1237.34 335.5,1239C 342.518,1242.21 349.851,1244.54 357.5,1246C 367.71,1246.41 377.71,1247.41 387.5,1249C 379.601,1247.38 372.601,1244.04 366.5,1239C 363.518,1238.5 360.518,1238.34 357.5,1238.5C 357.5,1236.83 357.5,1235.17 357.5,1233.5C 370.796,1237.65 383.129,1243.65 394.5,1251.5C 389.869,1252.66 385.202,1252.83 380.5,1252C 346.905,1246.6 314.238,1238.1 282.5,1226.5 Z"/></g>
</svg>
