<svg xmlns="http://www.w3.org/2000/svg" width="762" height="172" viewBox="0 0 762 172" version="1.1"><path d="M 531.243 82.316 C 531.081 125.541, 531.345 147.776, 532.035 149.066 C 533.453 151.715, 536.639 151.527, 548.500 148.091 C 554 146.497, 572 141.267, 588.500 136.468 C 605 131.669, 625.925 125.590, 635 122.958 C 644.075 120.326, 660.725 115.468, 672 112.162 C 683.275 108.857, 705.775 102.277, 722 97.541 C 739.507 92.431, 751.992 88.279, 752.711 87.327 C 754.178 85.385, 752.714 82, 750.406 82 C 749.568 82, 749.120 82.386, 749.412 82.857 C 749.703 83.329, 733.642 88.477, 713.721 94.297 C 615.628 122.958, 532.963 147, 532.515 147 C 532.240 147, 531.895 117.862, 531.750 82.250 L 531.485 17.500 531.243 82.316 M 539 82.617 L 539 138.233 541.250 137.756 C 542.951 137.395, 683.414 96.506, 722.500 84.994 C 726.079 83.939, 727.895 82.987, 727 82.634 C 726.175 82.308, 712.450 78.175, 696.500 73.450 C 611.962 48.404, 595.127 43.412, 568.729 35.559 C 552.905 30.851, 539.742 27, 539.479 27 C 539.215 27, 539 52.027, 539 82.617 M 27.222 40.411 C 17 43.743, 11 52.468, 11 64 C 11 83.339, 29.106 94.365, 46.840 85.825 C 50.681 83.975, 57 77.149, 57 74.850 C 57 74.382, 55.395 74, 53.433 74 C 50.671 74, 49.141 74.768, 46.658 77.401 C 38.855 85.675, 24.932 83.687, 20.049 73.601 C 16.181 65.610, 17.725 55.337, 23.627 49.808 C 30.279 43.575, 44.159 44.824, 48 52 C 48.794 53.484, 50.094 54, 53.035 54 C 55.216 54, 57 53.618, 57 53.150 C 57 52.683, 55.690 50.492, 54.090 48.283 C 48.778 40.950, 36.554 37.369, 27.222 40.411 M 240.071 40.107 C 225.305 44.598, 218.411 61.987, 225.793 76.119 C 234.635 93.044, 259.365 93.044, 268.207 76.119 C 274.844 63.413, 269.898 47.450, 257.502 41.568 C 252.987 39.425, 244.619 38.724, 240.071 40.107 M 435.222 40.411 C 425 43.743, 419 52.468, 419 64 C 419 83.339, 437.106 94.365, 454.840 85.825 C 458.681 83.975, 465 77.149, 465 74.850 C 465 74.382, 463.395 74, 461.433 74 C 458.671 74, 457.141 74.768, 454.658 77.401 C 446.855 85.675, 432.932 83.687, 428.049 73.601 C 424.181 65.610, 425.725 55.337, 431.627 49.808 C 438.279 43.575, 452.159 44.824, 456 52 C 456.794 53.484, 458.094 54, 461.035 54 C 463.216 54, 465 53.618, 465 53.150 C 465 52.683, 463.690 50.492, 462.090 48.283 C 456.778 40.950, 444.554 37.369, 435.222 40.411 M 488.071 40.107 C 473.305 44.598, 466.411 61.987, 473.793 76.119 C 482.635 93.044, 507.365 93.044, 516.207 76.119 C 522.844 63.413, 517.898 47.450, 505.502 41.568 C 500.987 39.425, 492.619 38.724, 488.071 40.107 M 65 64 L 65 88 78 88 L 91 88 91 85 L 91 82 81.500 82 L 72 82 72 74.500 L 72 67 80.500 67 L 89 67 89 64 L 89 61 80.500 61 L 72 61 72 53.500 L 72 46 81.500 46 L 91 46 91 43 L 91 40 78 40 L 65 40 65 64 M 100 64 L 100 88 103.500 88 L 107 88 107.003 69.750 L 107.006 51.500 119.157 69.750 C 130.881 87.361, 131.424 88, 134.653 88 L 138 88 138 64 L 138 40 134.500 40 L 131 40 130.979 58.250 L 130.958 76.500 118.950 58.250 C 107.202 40.395, 106.867 40, 103.471 40 L 100 40 100 64 M 144 43 L 144 46 150.500 46 L 157 46 157 67 L 157 88 160.500 88 L 164 88 164 67 L 164 46 170.500 46 L 177 46 177 43 L 177 40 160.500 40 L 144 40 144 43 M 184 64 L 184 88 187.500 88 L 191 88 191 78.500 L 191 69 194.442 69 C 197.730 69, 198.132 69.423, 203.474 78.500 L 209.065 88 213.092 88 C 215.306 88, 216.937 87.662, 216.716 87.250 C 216.495 86.838, 213.947 82.535, 211.053 77.688 C 208.159 72.841, 205.950 68.757, 206.145 68.612 C 206.340 68.466, 208.142 67.361, 210.149 66.154 C 216.829 62.140, 218.750 51.766, 213.944 45.656 C 210.499 41.277, 206.132 40, 194.599 40 L 184 40 184 64 M 294.924 47.750 C 297.417 54.472, 307.531 81.131, 309.550 86.301 C 310.097 87.703, 311.152 88.036, 314.305 87.801 L 318.356 87.500 326.683 65.500 C 331.262 53.400, 335.272 42.683, 335.593 41.684 C 336.097 40.115, 335.664 39.912, 332.397 40.184 L 328.617 40.500 321.659 59.717 C 317.833 70.286, 314.394 78.743, 314.017 78.511 C 313.640 78.278, 310.241 69.517, 306.463 59.044 L 299.595 40 295.823 40 L 292.050 40 294.924 47.750 M 341 64 L 341 88 354 88 L 367 88 367 85 L 367 82 357.500 82 L 348 82 348 74.500 L 348 67 356.500 67 L 365 67 365 64 L 365 61 356.500 61 L 348 61 348 53.500 L 348 46 357.500 46 L 367 46 367 43 L 367 40 354 40 L 341 40 341 64 M 376 64 L 376 88 388 88 L 400 88 400 85.500 C 400 83.029, 399.900 83, 391.500 83 L 383 83 383 61.500 L 383 40 379.500 40 L 376 40 376 64 M 405 64 L 405 88 408.500 88 L 412 88 412 64 L 412 40 408.500 40 L 405 40 405 64 M 243.123 46.042 C 235.331 47.790, 230.747 53.606, 230.183 62.461 C 229.487 73.404, 234.608 80.740, 244.185 82.515 C 251.308 83.836, 259.664 79.198, 262.623 72.282 C 264.263 68.449, 264.423 60.246, 262.933 56.315 C 260.054 48.716, 251.341 44.198, 243.123 46.042 M 491.123 46.042 C 483.331 47.790, 478.747 53.606, 478.183 62.461 C 477.487 73.404, 482.608 80.740, 492.185 82.515 C 499.308 83.836, 507.664 79.198, 510.623 72.282 C 512.263 68.449, 512.423 60.246, 510.933 56.315 C 508.054 48.716, 499.341 44.198, 491.123 46.042 M 191 54.500 L 191 63 197.365 63 C 205.942 63, 209 60.747, 209 54.427 C 209 47.732, 206.739 46, 198 46 L 191 46 191 54.500 M 540 82.500 L 540 105 594.724 105 L 649.448 105 686.214 94.290 C 706.435 88.399, 722.647 83.269, 722.240 82.891 C 721.833 82.512, 704.625 77.205, 684 71.098 L 646.500 59.994 593.250 59.997 L 540 60 540 82.500 M 554.692 63.642 C 554.311 64.022, 554 66.691, 554 69.573 L 554 74.812 558.954 75.494 C 564.758 76.292, 566 75.754, 566 72.441 C 566 70.307, 566.451 70, 569.583 70 C 574.042 70, 573.751 71.592, 568.684 74.918 C 565.745 76.846, 565 77.965, 565 80.448 C 565 83.214, 565.475 83.726, 569.250 85.031 C 572.880 86.286, 573.544 86.950, 573.801 89.585 C 574.171 93.379, 571.696 95.922, 569.166 94.346 C 568.250 93.775, 566.992 91.776, 566.372 89.904 L 565.244 86.500 558.122 86.206 C 551.193 85.920, 551 85.977, 551 88.308 C 551 95.507, 560.364 102, 570.744 102 C 581.583 102, 586.589 98.486, 587.715 90.086 C 588.180 86.625, 587.865 85.726, 585.336 83.298 C 583.734 81.759, 581.540 79.984, 580.461 79.353 C 578.596 78.263, 578.687 78.012, 582.323 74.236 C 585.475 70.963, 586.090 69.672, 585.823 66.883 L 585.500 63.500 570.442 63.225 C 562.160 63.074, 555.072 63.261, 554.692 63.642 M 589 66.500 C 589 69.308, 589.387 70, 590.958 70 C 592.777 70, 594.721 74.756, 597.500 86 C 597.704 86.825, 598.819 90.763, 599.978 94.750 L 602.085 102 610.965 102 L 619.845 102 622.990 91.750 C 624.719 86.112, 626.883 79.068, 627.798 76.096 C 628.843 72.702, 630.120 70.520, 631.231 70.229 C 632.483 69.902, 633 68.778, 633 66.383 L 633 63 624 63 L 615 63 615 65.640 C 615 67.092, 615.626 68.779, 616.391 69.390 C 617.565 70.326, 617.380 71.895, 615.207 79.424 L 612.631 88.348 609.815 79.969 C 606.547 70.243, 606.515 70, 608.500 70 C 609.548 70, 610 68.944, 610 66.500 L 610 63 599.500 63 L 589 63 589 66.500 M 82 108.709 C 78.860 109.864, 77 112.402, 77 115.533 C 77 119.265, 78.009 120.270, 83.500 122 C 85.700 122.693, 88.063 123.707, 88.750 124.253 C 92.638 127.339, 87.324 132.380, 82.500 130.182 C 81.125 129.555, 80 128.358, 80 127.521 C 80 126.685, 79.325 126, 78.500 126 C 76.449 126, 76.607 129.336, 78.750 131.267 C 84.811 136.729, 94.500 132.114, 92.629 124.657 C 92.169 122.825, 90.748 121.703, 87.252 120.411 C 84.638 119.446, 81.938 118.228, 81.250 117.705 C 77.488 114.845, 82.569 109.629, 86.874 111.932 C 88.043 112.558, 89 113.505, 89 114.035 C 89 114.566, 89.900 115, 91 115 C 92.100 115, 93 114.745, 93 114.434 C 93 112.547, 90.604 110.058, 87.872 109.105 C 84.429 107.905, 84.225 107.891, 82 108.709 M 100 108.709 C 96.860 109.864, 95 112.402, 95 115.533 C 95 119.265, 96.009 120.270, 101.500 122 C 103.700 122.693, 106.063 123.707, 106.750 124.253 C 110.638 127.339, 105.324 132.380, 100.500 130.182 C 99.125 129.555, 98 128.358, 98 127.521 C 98 126.685, 97.325 126, 96.500 126 C 94.449 126, 94.607 129.336, 96.750 131.267 C 102.811 136.729, 112.500 132.114, 110.629 124.657 C 110.169 122.825, 108.748 121.703, 105.252 120.411 C 102.638 119.446, 99.938 118.228, 99.250 117.705 C 95.488 114.845, 100.569 109.629, 104.874 111.932 C 106.043 112.558, 107 113.505, 107 114.035 C 107 114.566, 107.900 115, 109 115 C 110.100 115, 111 114.745, 111 114.434 C 111 112.547, 108.604 110.058, 105.872 109.105 C 102.429 107.905, 102.225 107.891, 100 108.709 M 129.258 108.696 C 126.101 109.317, 121.283 114.433, 120.501 117.997 C 118.314 127.954, 127.008 135.953, 136.547 132.760 C 148.532 128.747, 146.996 110.870, 134.485 108.758 C 132.843 108.481, 130.491 108.453, 129.258 108.696 M 448 109.500 C 448 110.325, 448.675 111, 449.500 111 C 450.742 111, 451 112.889, 451 122 C 451 131.111, 451.258 133, 452.500 133 C 453.753 133, 454 130.944, 454 120.500 L 454 108 451 108 C 449 108, 448 108.500, 448 109.500 M 460.073 110.635 C 454.263 118.021, 461.748 127.767, 470.049 123.625 C 472.879 122.213, 473.133 122.212, 472.596 123.611 C 472.268 124.465, 472 125.791, 472 126.559 C 472 127.326, 470.857 128.703, 469.459 129.619 C 467.424 130.952, 466.428 131.061, 464.459 130.163 C 463.107 129.547, 462 128.358, 462 127.521 C 462 126.685, 461.325 126, 460.500 126 C 458.565 126, 458.588 127.967, 460.557 130.777 C 461.762 132.498, 463.101 133, 466.484 133 C 472.946 133, 475 129.986, 475 120.500 C 475 111.022, 472.945 108, 466.500 108 C 462.986 108, 461.745 108.509, 460.073 110.635 M 478 109.454 C 478 110.544, 479.599 110.983, 484.371 111.204 L 490.741 111.500 486.913 120.328 C 481.806 132.107, 481.553 133, 483.331 133 C 484.786 133, 494 112.731, 494 109.531 C 494 108.284, 492.516 108, 486 108 C 479.667 108, 478 108.303, 478 109.454 M 498.055 109.945 C 495.782 112.218, 495.287 116, 497.263 116 C 497.957 116, 498.970 114.987, 499.513 113.750 C 500.974 110.421, 506.706 110.030, 507.871 113.181 C 509.234 116.866, 507.260 120.597, 500.900 126.353 C 497.655 129.289, 495 131.986, 495 132.346 C 495 132.706, 498.825 133, 503.500 133 C 510.389 133, 512 132.716, 512 131.500 C 512 130.361, 510.763 130, 506.863 130 L 501.726 130 506.247 125.167 C 511.787 119.245, 513.036 114.869, 510.256 111.130 C 507.616 107.579, 501.057 106.943, 498.055 109.945 M 37 121 C 37 132.333, 37.111 133, 39 133 C 40.733 133, 41 132.333, 41 128 L 41 123 44.777 123 C 50.338 123, 53 120.734, 53 116 C 53 110.787, 50.390 109, 42.777 109 L 37 109 37 121 M 58.588 119.756 C 56.436 125.665, 54.475 131.063, 54.231 131.750 C 53.364 134.187, 57.065 132.960, 58 130.500 C 58.852 128.258, 59.510 128, 64.367 128 C 69.310 128, 69.838 128.218, 70.411 130.500 C 71 132.848, 74 134.131, 74 132.035 C 74 131.505, 72.146 126.105, 69.880 120.035 C 66.945 112.174, 65.292 109.002, 64.130 109.006 C 62.969 109.010, 61.375 112.101, 58.588 119.756 M 114 121 C 114 132.333, 114.111 133, 116 133 C 117.889 133, 118 132.333, 118 121 C 118 109.667, 117.889 109, 116 109 C 114.111 109, 114 109.667, 114 121 M 147 121 C 147 132.254, 147.122 133, 148.961 133 C 150.736 133, 150.950 132.178, 151.211 124.342 L 151.500 115.684 157.257 124.342 C 165.196 136.283, 166 135.975, 166 121 C 166 111.137, 165.740 109, 164.538 109 C 163.380 109, 163.015 110.931, 162.788 118.250 L 162.500 127.500 156.620 118.250 C 152.633 111.977, 150.138 109, 148.870 109 C 147.147 109, 147 109.945, 147 121 M 170 121 L 170 133 177 133 C 181 133, 184 132.571, 184 132 C 184 131.450, 181.750 131, 179 131 L 174 131 174 126.500 L 174 122 178.500 122 C 180.975 122, 183 121.550, 183 121 C 183 120.450, 180.975 120, 178.500 120 L 174 120 174 115.500 L 174 111 179 111 C 181.750 111, 184 110.550, 184 110 C 184 109.429, 181 109, 177 109 L 170 109 170 121 M 195 121 C 195 132.333, 195.111 133, 197 133 C 198.733 133, 199 132.333, 199 128 L 199 123 202.777 123 C 208.338 123, 211 120.734, 211 116 C 211 110.787, 208.390 109, 200.777 109 L 195 109 195 121 M 213 121 L 213 133 220 133 C 224 133, 227 132.571, 227 132 C 227 131.450, 224.750 131, 222 131 L 217 131 217 126.500 L 217 122 221.500 122 C 223.975 122, 226 121.550, 226 121 C 226 120.450, 223.975 120, 221.500 120 L 217 120 217 115.500 L 217 111 222 111 C 224.750 111, 227 110.550, 227 110 C 227 109.429, 224 109, 220 109 L 213 109 213 121 M 230 121 C 230 132.333, 230.111 133, 232 133 C 233.733 133, 234 132.333, 234 128 C 234 124.209, 234.365 123, 235.509 123 C 236.339 123, 238.403 125.250, 240.095 128 C 241.787 130.750, 243.808 133, 244.586 133 C 246.505 133, 246.341 132.157, 243.536 127.591 L 241.134 123.682 243.567 121.769 C 245.396 120.330, 246 118.893, 246 115.984 C 246 110.789, 243.382 109, 235.777 109 L 230 109 230 121 M 257 121 L 257 133 263 133 C 266.333 133, 269 132.556, 269 132 C 269 131.450, 267.200 131, 265 131 L 261 131 261 120 C 261 109.667, 260.879 109, 259 109 C 257.111 109, 257 109.667, 257 121 M 274.588 119.756 C 272.436 125.665, 270.475 131.063, 270.231 131.750 C 269.364 134.187, 273.065 132.960, 274 130.500 C 274.852 128.258, 275.510 128, 280.367 128 C 285.310 128, 285.838 128.218, 286.411 130.500 C 287 132.848, 290 134.131, 290 132.035 C 290 131.505, 288.146 126.105, 285.880 120.035 C 282.945 112.174, 281.292 109.002, 280.130 109.006 C 278.969 109.010, 277.375 112.101, 274.588 119.756 M 299.980 109.750 C 299.969 110.162, 301.876 115.580, 304.218 121.788 C 309.836 136.681, 310.723 136.624, 316.639 121 C 319.034 114.675, 320.995 109.355, 320.997 109.177 C 320.998 108.999, 320.222 109.003, 319.271 109.186 C 318.093 109.413, 316.393 112.668, 313.944 119.387 L 310.346 129.254 306.548 119.127 C 304.266 113.045, 302.200 109, 301.375 109 C 300.619 109, 299.991 109.338, 299.980 109.750 M 323 121 L 323 133 330 133 C 334 133, 337 132.571, 337 132 C 337 131.450, 334.750 131, 332 131 L 327 131 327 126.500 L 327 122 331.500 122 C 333.975 122, 336 121.550, 336 121 C 336 120.450, 333.975 120, 331.500 120 L 327 120 327 115.500 L 327 111 332 111 C 334.750 111, 337 110.550, 337 110 C 337 109.429, 334 109, 330 109 L 323 109 323 121 M 339 121 L 339 133 346.525 133 C 353.631 133, 354.102 132.861, 355 130.500 C 355.852 128.258, 356.510 128, 361.367 128 C 366.310 128, 366.838 128.218, 367.411 130.500 C 368 132.848, 371 134.131, 371 132.035 C 371 131.505, 369.146 126.105, 366.880 120.035 C 363.950 112.185, 362.290 109, 361.130 109 C 359.965 109.001, 358.360 112.135, 355.500 120 L 351.500 130.999 347.250 131 L 343 131 343 120 C 343 109.667, 342.879 109, 341 109 C 339.111 109, 339 109.667, 339 121 M 382 121 L 382 133 387.935 133 C 395.576 133, 398.531 131.818, 400.996 127.775 C 403.355 123.906, 403.531 120.206, 401.579 115.534 C 399.690 111.014, 395.520 109, 388.050 109 L 382 109 382 121 M 409.588 119.756 C 407.436 125.665, 405.475 131.063, 405.231 131.750 C 404.364 134.187, 408.065 132.960, 409 130.500 C 409.852 128.258, 410.510 128, 415.367 128 C 420.310 128, 420.838 128.218, 421.411 130.500 C 422 132.848, 425 134.131, 425 132.035 C 425 131.505, 423.146 126.105, 420.880 120.035 C 417.945 112.174, 416.292 109.002, 415.130 109.006 C 413.969 109.010, 412.375 112.101, 409.588 119.756 M 427 121 L 427 133 433 133 C 436.333 133, 439 132.556, 439 132 C 439 131.450, 437.200 131, 435 131 L 431 131 431 120 C 431 109.667, 430.879 109, 429 109 C 427.111 109, 427 109.667, 427 121 M 463 112 C 459.250 115.750, 461.598 122, 466.757 122 C 471.822 122, 473.989 114.507, 469.777 111.557 C 466.840 109.499, 465.407 109.593, 463 112 M 41 115.557 L 41 120.115 45.250 119.807 C 49.239 119.519, 49.519 119.301, 49.813 116.249 C 50.076 113.521, 49.704 112.838, 47.498 111.999 C 42.117 109.954, 41 110.565, 41 115.557 M 128.901 112.091 C 125.792 113.257, 123.667 116.874, 123.667 121 C 123.667 129.853, 133.139 134.061, 138.972 127.799 C 141.911 124.645, 141.787 117.083, 138.750 114.248 C 135.940 111.626, 132.280 110.824, 128.901 112.091 M 199 115.557 L 199 120.115 203.250 119.807 C 207.239 119.519, 207.519 119.301, 207.813 116.249 C 208.076 113.521, 207.704 112.838, 205.498 111.999 C 200.117 109.954, 199 110.565, 199 115.557 M 234 116 C 234 120.701, 234.154 121, 236.566 121 C 240.776 121, 243 119.251, 243 115.940 C 243 113.651, 242.399 112.722, 240.435 111.975 C 235.006 109.911, 234 110.540, 234 116 M 386 121 L 386 131 388.532 131 C 396.930 131, 401.780 124.197, 398.678 116.771 C 397.480 113.905, 396.351 112.914, 393.330 112.075 C 385.868 110.003, 386 109.841, 386 121 M 63.624 115 C 63.299 115.825, 62.371 118.412, 61.561 120.750 L 60.089 125 64.112 125 C 68.546 125, 68.474 125.428, 65.465 117 C 64.610 114.606, 64.028 113.974, 63.624 115 M 279.624 115 C 279.299 115.825, 278.371 118.412, 277.561 120.750 L 276.089 125 280.112 125 C 284.546 125, 284.474 125.428, 281.465 117 C 280.610 114.606, 280.028 113.974, 279.624 115 M 360.624 115 C 360.299 115.825, 359.371 118.412, 358.561 120.750 L 357.089 125 361.112 125 C 365.546 125, 365.474 125.428, 362.465 117 C 361.610 114.606, 361.028 113.974, 360.624 115 M 414.624 115 C 414.299 115.825, 413.371 118.412, 412.561 120.750 L 411.089 125 415.112 125 C 419.546 125, 419.474 125.428, 416.465 117 C 415.610 114.606, 415.028 113.974, 414.624 115" stroke="none" fill="#171e6a" fill-rule="evenodd"/><path d="M 532 82.433 C 532 117.945, 532.228 147, 532.507 147 C 532.962 147, 615.210 123.080, 713.788 94.278 C 733.746 88.447, 749.721 83.344, 749.288 82.938 C 748.854 82.532, 730.950 77.007, 709.500 70.660 C 688.050 64.314, 653.625 54.104, 633 47.972 C 612.375 41.841, 582.225 32.880, 566 28.060 C 549.775 23.240, 535.487 18.974, 534.250 18.581 L 532 17.865 532 82.433 M 539 82.617 L 539 138.233 541.250 137.756 C 542.951 137.395, 683.414 96.506, 722.500 84.994 C 726.079 83.939, 727.895 82.987, 727 82.634 C 726.175 82.308, 712.450 78.175, 696.500 73.450 C 611.962 48.404, 595.127 43.412, 568.729 35.559 C 552.905 30.851, 539.742 27, 539.479 27 C 539.215 27, 539 52.027, 539 82.617 M 540 82.500 L 540 105 594.724 105 L 649.448 105 686.214 94.290 C 706.435 88.399, 722.647 83.269, 722.240 82.891 C 721.833 82.512, 704.625 77.205, 684 71.098 L 646.500 59.994 593.250 59.997 L 540 60 540 82.500 M 554.692 63.642 C 554.311 64.022, 554 66.691, 554 69.573 L 554 74.812 558.954 75.494 C 564.758 76.292, 566 75.754, 566 72.441 C 566 70.307, 566.451 70, 569.583 70 C 574.042 70, 573.751 71.592, 568.684 74.918 C 565.745 76.846, 565 77.965, 565 80.448 C 565 83.214, 565.475 83.726, 569.250 85.031 C 572.880 86.286, 573.544 86.950, 573.801 89.585 C 574.171 93.379, 571.696 95.922, 569.166 94.346 C 568.250 93.775, 566.992 91.776, 566.372 89.904 L 565.244 86.500 558.122 86.206 C 551.193 85.920, 551 85.977, 551 88.308 C 551 95.507, 560.364 102, 570.744 102 C 581.583 102, 586.589 98.486, 587.715 90.086 C 588.180 86.625, 587.865 85.726, 585.336 83.298 C 583.734 81.759, 581.540 79.984, 580.461 79.353 C 578.596 78.263, 578.687 78.012, 582.323 74.236 C 585.475 70.963, 586.090 69.672, 585.823 66.883 L 585.500 63.500 570.442 63.225 C 562.160 63.074, 555.072 63.261, 554.692 63.642 M 589 66.500 C 589 69.308, 589.387 70, 590.958 70 C 592.777 70, 594.721 74.756, 597.500 86 C 597.704 86.825, 598.819 90.763, 599.978 94.750 L 602.085 102 610.965 102 L 619.845 102 622.990 91.750 C 624.719 86.112, 626.883 79.068, 627.798 76.096 C 628.843 72.702, 630.120 70.520, 631.231 70.229 C 632.483 69.902, 633 68.778, 633 66.383 L 633 63 624 63 L 615 63 615 65.640 C 615 67.092, 615.626 68.779, 616.391 69.390 C 617.565 70.326, 617.380 71.895, 615.207 79.424 L 612.631 88.348 609.815 79.969 C 606.547 70.243, 606.515 70, 608.500 70 C 609.548 70, 610 68.944, 610 66.500 L 610 63 599.500 63 L 589 63 589 66.500" stroke="none" fill="#eee007" fill-rule="evenodd"/></svg>