<svg xmlns="http://www.w3.org/2000/svg" width="2172" height="572" viewBox="0 0 2172 572" version="1.1"><path d="M 1005.250 196.750 C 1048.563 196.894, 1119.438 196.894, 1162.750 196.750 C 1206.063 196.606, 1170.625 196.488, 1084 196.488 C 997.375 196.488, 961.938 196.606, 1005.250 196.750 M 1853.750 196.750 C 1891.838 196.895, 1954.162 196.895, 1992.250 196.750 C 2030.338 196.605, 1999.175 196.486, 1923 196.486 C 1846.825 196.486, 1815.662 196.605, 1853.750 196.750 M 420.385 216 C 420.385 222.875, 420.545 225.688, 420.740 222.250 C 420.936 218.813, 420.936 213.188, 420.740 209.750 C 420.545 206.313, 420.385 209.125, 420.385 216 M 830.470 294 C 830.470 327.275, 830.596 340.888, 830.749 324.250 C 830.903 307.613, 830.903 280.388, 830.749 263.750 C 830.596 247.113, 830.470 260.725, 830.470 294 M 1337.475 308.500 C 1337.475 349.750, 1337.598 366.771, 1337.750 346.324 C 1337.901 325.877, 1337.901 292.127, 1337.750 271.324 C 1337.599 250.521, 1337.475 267.250, 1337.475 308.500 M 888.475 309 C 888.475 349.975, 888.599 366.738, 888.750 346.250 C 888.901 325.762, 888.901 292.238, 888.750 271.750 C 888.599 251.262, 888.475 268.025, 888.475 309 M 1054.474 313 C 1054.474 351.775, 1054.598 367.637, 1054.750 348.250 C 1054.901 328.863, 1054.901 297.137, 1054.750 277.750 C 1054.598 258.363, 1054.474 274.225, 1054.474 313 M 771.464 294.500 C 771.464 322.550, 771.592 334.169, 771.749 320.320 C 771.906 306.471, 771.906 283.521, 771.749 269.320 C 771.593 255.119, 771.465 266.450, 771.464 294.500 M 947.474 315 C 947.474 353.775, 947.598 369.637, 947.750 350.250 C 947.901 330.863, 947.901 299.137, 947.750 279.750 C 947.598 260.363, 947.474 276.225, 947.474 315 M 1220.474 315 C 1220.474 353.775, 1220.598 369.637, 1220.750 350.250 C 1220.901 330.863, 1220.901 299.137, 1220.750 279.750 C 1220.598 260.363, 1220.474 276.225, 1220.474 315 M 420.382 372.500 C 420.384 379.100, 420.546 381.670, 420.741 378.211 C 420.937 374.752, 420.936 369.352, 420.738 366.211 C 420.540 363.070, 420.380 365.900, 420.382 372.500 M 1869 480.500 L 1869 516 1874.500 516 L 1880 516 1880 480.500 L 1880 445 1874.500 445 L 1869 445 1869 480.500 M 74 481.500 L 74 517 79.500 517 L 85 517 85 500.500 L 85 484 114.500 484 L 144 484 144 500.500 L 144 517 150 517 L 156 517 156 481.500 L 156 446 150 446 L 144 446 144 461.500 L 144 477 114.500 477 L 85 477 85 461.500 L 85 446 79.500 446 L 74 446 74 481.500 M 379 459 C 379 471.542, 378.512 473.527, 376.134 470.662 C 374.143 468.262, 367.055 466.877, 356.543 466.834 C 333.164 466.737, 327.344 472.411, 328.162 494.498 C 328.611 506.620, 330.553 510.637, 337.623 514.059 C 346.437 518.326, 367.828 517.963, 374.503 513.433 C 376.475 512.095, 378.294 511, 378.544 511 C 378.795 511, 379 512.350, 379 514 C 379 516.933, 379.111 517, 384 517 L 389 517 389 481.500 L 389 446 384 446 L 379 446 379 459 M 658 459 C 658 471.542, 657.512 473.527, 655.134 470.662 C 653.143 468.262, 646.055 466.877, 635.543 466.834 C 612.171 466.737, 606.342 472.339, 607.148 494.120 C 607.612 506.655, 609.489 510.606, 616.623 514.059 C 625.437 518.326, 646.828 517.963, 653.503 513.433 C 655.475 512.095, 657.294 511, 657.544 511 C 657.795 511, 658 512.350, 658 514 C 658 516.933, 658.111 517, 663 517 L 668 517 668 481.500 L 668 446 663 446 L 658 446 658 459 M 801.610 447.202 C 802.043 447.916, 810.183 457.120, 819.698 467.655 L 837 486.811 837 501.905 L 837 517 843 517 L 849 517 849 501.956 L 849 486.911 862.682 472.206 C 870.207 464.118, 878.855 454.913, 881.901 451.750 L 887.437 446 880.289 446 L 873.141 446 858.820 461.922 C 850.944 470.679, 844.050 477.839, 843.500 477.834 C 842.950 477.828, 836.174 470.775, 828.443 462.161 L 814.386 446.500 807.605 446.202 C 802.254 445.967, 800.989 446.178, 801.610 447.202 M 1047 481.500 L 1047 517 1052.500 517 L 1058 517 1058 499.565 C 1058 489.976, 1058.430 480.999, 1058.955 479.617 C 1060.761 474.868, 1064.382 473.533, 1076.455 473.164 C 1095.410 472.587, 1096 473.381, 1096 499.468 L 1096 517 1101.056 517 L 1106.112 517 1105.806 496.103 C 1105.469 473.119, 1105.385 472.802, 1098.651 469.320 C 1091.345 465.541, 1066.223 465.980, 1060.812 469.981 L 1058 472.060 1058 459.030 L 1058 446 1052.500 446 L 1047 446 1047 481.500 M 1175 450 L 1175 454 1180 454 L 1185 454 1185 450 L 1185 446 1180 446 L 1175 446 1175 450 M 1398 449.500 L 1398 453 1414.500 453 L 1431 453 1431 485 L 1431 517 1436.500 517 L 1442 517 1442 485 L 1442 453 1458.500 453 L 1475 453 1475 449.500 L 1475 446 1436.500 446 L 1398 446 1398 449.500 M 1636 481.500 L 1636 517 1640.903 517 L 1645.806 517 1646.153 499.072 C 1646.469 482.750, 1646.688 480.891, 1648.594 478.322 C 1651.523 474.374, 1655.972 473.122, 1667.300 473.056 C 1677.609 472.997, 1682.003 474.255, 1683.565 477.713 C 1684.008 478.696, 1684.555 487.938, 1684.779 498.250 L 1685.187 517 1690.094 517 L 1695 517 1694.996 497.250 C 1694.992 475.221, 1694.377 472.798, 1687.943 469.471 C 1680.391 465.565, 1655.441 465.819, 1649.979 469.857 C 1648.385 471.036, 1646.838 472, 1646.540 472 C 1646.243 472, 1646 466.150, 1646 459 L 1646 446 1641 446 L 1636 446 1636 481.500 M 1125 461 L 1125 467 1120 467 C 1115.132 467, 1115 467.078, 1115 469.945 C 1115 472.749, 1115.228 472.905, 1119.750 473.195 L 1124.500 473.500 1125 492.148 C 1125.442 508.644, 1125.719 511.039, 1127.400 512.893 C 1129.978 515.737, 1135.051 516.989, 1144 516.989 C 1153.455 516.989, 1158.576 515.578, 1162.171 511.983 C 1164.533 509.620, 1165 508.316, 1165 504.077 L 1165 499 1160 499 L 1155 499 1155 503.378 C 1155 506.230, 1154.424 508.233, 1153.346 509.128 C 1151.165 510.938, 1138.595 510.994, 1136.800 509.202 C 1135.834 508.237, 1135.500 503.484, 1135.500 490.702 L 1135.500 473.500 1149.250 473.222 L 1163 472.944 1163 469.972 L 1163 467 1149 467 L 1135 467 1135 461 L 1135 455 1130 455 L 1125 455 1125 461 M 192 467.056 C 179.756 467.950, 176.172 470.145, 174.539 477.750 L 173.841 481 179.401 481 C 184.519 481, 185.013 480.798, 185.598 478.465 C 186.662 474.226, 190.612 473, 203.200 473.002 C 215.946 473.003, 220.921 474.581, 222.122 479 C 222.950 482.051, 223.206 491, 222.465 491 C 222.170 491, 220.729 490.212, 219.262 489.250 C 217.101 487.833, 213.817 487.436, 201.981 487.162 C 185.455 486.780, 180.086 487.760, 175.928 491.919 C 172.471 495.375, 171.327 501.866, 173.184 507.481 C 174.198 510.550, 175.531 512.039, 179 513.981 C 183.270 516.371, 184.293 516.500, 199 516.500 C 213.106 516.500, 214.882 516.299, 218.750 514.266 L 223 512.032 223 514.516 C 223 516.830, 223.342 517, 228 517 L 233 517 233 496.400 L 233 475.800 229.690 472.490 C 227.869 470.669, 224.606 468.731, 222.440 468.183 C 217.135 466.841, 202.411 466.295, 192 467.056 M 277 467.032 C 269.813 467.812, 267.356 468.569, 264.750 470.807 C 263.145 472.185, 263 472.089, 263 469.655 C 263 467.103, 262.786 467, 257.500 467 L 252 467 252 492 L 252 517 257.500 517 L 263 517 263 499.450 C 263 474.200, 263.557 473.500, 283.624 473.500 C 301.180 473.500, 300.411 472.425, 300.809 497.525 L 301.119 517 306.059 517 L 311 517 311 496.535 L 311 476.070 307.980 472.630 C 305.821 470.171, 303.610 468.896, 300.230 468.162 C 293.330 466.662, 284.411 466.228, 277 467.032 M 434.885 467.075 C 428.383 467.796, 423.205 469.746, 419.750 472.776 C 418.123 474.202, 418 474.054, 418 470.655 L 418 467 413 467 L 408 467 408 492 L 408 517 412.901 517 L 417.802 517 418.151 499.704 C 418.552 479.817, 419.120 478.162, 426.683 474.816 C 430.439 473.154, 432.877 472.876, 441.189 473.159 C 455.432 473.645, 455 472.880, 455 497.611 L 455 517 460.500 517 L 466 517 466 500.468 C 466 475.087, 467.194 473.500, 486.289 473.500 C 498.066 473.500, 498.191 473.524, 500.585 476.306 C 502.955 479.059, 503 479.467, 503 498.056 L 503 517 508.500 517 L 514 517 513.978 498.250 C 513.947 471.708, 512.322 468.782, 496.664 467.082 C 484.014 465.708, 468.141 468.727, 465.493 473.012 C 465.099 473.649, 463.701 473.085, 461.880 471.552 C 457.005 467.451, 446.783 465.755, 434.885 467.075 M 550 467.062 C 545.325 467.402, 540.322 468.169, 538.881 468.766 C 535.261 470.266, 532 474.706, 532 478.135 C 532 480.941, 532.113 481, 537.500 481 C 542.179 481, 543 480.725, 543 479.155 C 543 478.140, 543.947 476.453, 545.105 475.405 C 546.964 473.723, 548.846 473.500, 561.192 473.500 L 575.173 473.500 577.587 476.306 C 579.555 478.594, 580 480.213, 580 485.079 L 580 491.046 577.294 489.273 C 574.971 487.751, 572.177 487.500, 557.544 487.500 C 542.856 487.500, 539.976 487.761, 536.706 489.385 C 531.867 491.789, 530 495.455, 530 502.550 C 530 507.603, 530.347 508.547, 533.284 511.484 C 537.744 515.944, 544.888 517.345, 560.517 516.825 C 570.692 516.486, 573.208 516.075, 576.310 514.245 L 580 512.067 580 514.534 C 580 516.856, 580.320 517, 585.500 517 L 591 517 590.994 498.750 C 590.991 488.712, 590.514 478.789, 589.933 476.698 C 588.783 472.555, 585.073 469.632, 579 468.083 C 574.074 466.826, 560.038 466.332, 550 467.062 M 706.917 466.997 C 688.720 468.437, 683.935 475.034, 685.202 496.933 C 685.778 506.872, 687.840 510.650, 694.517 514 C 699.290 516.395, 700.259 516.498, 717.500 516.464 C 731.981 516.434, 736.188 516.108, 739.020 514.796 C 743.730 512.614, 745.692 510.250, 746.527 505.750 L 747.223 502 741.736 502 C 736.423 502, 736.231 502.096, 735.641 505.044 C 734.742 509.538, 730.351 511.001, 717.782 510.994 C 700.476 510.985, 696.917 509.002, 696.191 498.963 L 695.760 493 721.524 493 L 747.289 493 746.730 485.617 C 745.627 471.023, 741.649 468.097, 721 466.692 C 717.975 466.486, 711.638 466.623, 706.917 466.997 M 913 467.056 C 900.756 467.950, 897.172 470.145, 895.539 477.750 L 894.841 481 900.401 481 C 905.519 481, 906.013 480.798, 906.598 478.465 C 907.657 474.247, 911.624 473, 923.982 473 C 937.244 473, 941.200 474.266, 942.865 479.042 C 944.014 482.339, 944.449 491, 943.465 491 C 943.170 491, 941.728 490.212, 940.259 489.250 C 937.979 487.756, 935.092 487.500, 920.544 487.500 C 905.219 487.500, 903.147 487.705, 900 489.534 C 890.549 495.026, 890.838 509.435, 900.500 514.431 C 904.040 516.262, 906.284 516.500, 920 516.500 C 934.106 516.500, 935.882 516.299, 939.750 514.266 L 944 512.032 944 514.516 C 944 516.830, 944.342 517, 949 517 L 954 517 954 496.400 L 954 475.800 950.690 472.490 C 948.869 470.669, 945.606 468.731, 943.440 468.183 C 938.135 466.841, 923.411 466.295, 913 467.056 M 991.827 467.053 C 981.594 467.979, 975.635 470.884, 972.742 476.355 C 970.855 479.924, 970.549 482.099, 970.545 492 C 970.540 501.641, 970.870 504.136, 972.584 507.435 C 976.401 514.780, 985.953 517.456, 1006 516.796 C 1024.341 516.192, 1029.989 513.200, 1031.577 503.250 L 1032.256 499 1026.628 499 C 1021.253 499, 1021 499.115, 1021 501.566 C 1021 508.514, 1016.095 511.033, 1002.782 510.923 C 991.556 510.830, 986.402 509.419, 983.606 505.674 C 981.749 503.186, 981.514 501.583, 981.620 492.127 C 981.820 474.346, 983.929 472.549, 1003.875 473.156 C 1014.830 473.489, 1015.251 473.586, 1017.589 476.306 C 1018.915 477.849, 1020 479.986, 1020 481.056 C 1020 482.747, 1020.719 483, 1025.519 483 C 1031.019 483, 1031.036 482.990, 1030.438 480.250 C 1029.171 474.447, 1027.750 472.228, 1023.923 470.077 C 1018.770 467.181, 1004.875 465.872, 991.827 467.053 M 1228.890 466.992 C 1224.929 467.379, 1220.821 468.498, 1218.640 469.785 L 1215 471.933 1215 469.466 C 1215 467.144, 1214.680 467, 1209.500 467 L 1204 467 1204 492 L 1204 517 1209.500 517 L 1215 517 1215.015 499.750 C 1215.031 481.145, 1215.456 479.211, 1220.323 475.596 C 1222.834 473.732, 1224.521 473.500, 1235.546 473.500 C 1253.192 473.500, 1252.410 472.412, 1252.809 497.525 L 1253.119 517 1258.559 517 L 1264 517 1263.994 499.250 C 1263.988 480.029, 1263.153 474.973, 1259.411 471.505 C 1255.147 467.554, 1242.414 465.671, 1228.890 466.992 M 1300.444 467.076 C 1284.926 468.584, 1280.513 474.107, 1280.526 492 C 1280.536 505.285, 1282.708 510.116, 1290.383 513.920 C 1299.548 518.463, 1323.576 517.839, 1328.855 512.920 L 1331 510.922 1331 518.027 C 1331 521.934, 1330.514 526.040, 1329.920 527.150 C 1328.061 530.624, 1322.745 532.060, 1311.660 532.083 C 1298.028 532.111, 1295.016 530.896, 1293.472 524.744 C 1292.829 522.181, 1292.431 522, 1287.454 522 L 1282.126 522 1282.683 525.750 C 1283.942 534.224, 1288.184 536.914, 1301.992 537.999 C 1315.164 539.034, 1327.884 537.767, 1333.803 534.831 C 1341.848 530.839, 1341.997 530.140, 1341.998 496.250 L 1342 467 1336.500 467 C 1331.040 467, 1331 467.022, 1331 470.039 L 1331 473.078 1328.793 471.022 C 1324.891 467.387, 1313.524 465.805, 1300.444 467.076 M 1505 467.037 C 1495.750 467.723, 1490.069 469.825, 1487.031 473.688 C 1484.240 477.236, 1482.677 486.303, 1483.256 495.595 C 1484.104 509.231, 1487.716 513.767, 1499.434 515.913 C 1507.183 517.333, 1526.474 517.306, 1533.184 515.867 C 1539.830 514.442, 1545 509.731, 1545 505.100 C 1545 502.009, 1544.984 502, 1539.500 502 C 1534.774 502, 1534 502.266, 1534 503.889 C 1534 504.928, 1533.140 506.840, 1532.090 508.138 C 1530.311 510.334, 1529.362 510.521, 1518.313 510.847 C 1499.180 511.412, 1494.913 509.232, 1494.638 498.754 L 1494.500 493.500 1519.750 493.233 L 1545 492.966 1544.994 487.733 C 1544.983 476.783, 1541.020 470.095, 1533.408 468.178 C 1527.964 466.806, 1515.090 466.289, 1505 467.037 M 1580.241 467.131 C 1570.582 468.017, 1564.285 471.174, 1561.552 476.500 C 1559.833 479.850, 1559.500 482.368, 1559.500 492 C 1559.500 506.475, 1561.009 510.155, 1568.500 513.946 C 1573.263 516.357, 1574.307 516.477, 1590.500 516.488 C 1605.816 516.499, 1607.962 516.286, 1612.166 514.344 C 1617.548 511.856, 1619.532 509.212, 1620.492 503.250 L 1621.176 499 1615.780 499 L 1610.384 499 1609.442 503.250 C 1608.081 509.391, 1604.378 511.020, 1592 510.922 C 1580.562 510.831, 1575.416 509.438, 1572.606 505.673 C 1570.757 503.195, 1570.500 501.478, 1570.500 491.630 C 1570.500 474.365, 1572.695 472.537, 1592.684 473.156 C 1604.956 473.536, 1607.307 474.567, 1608.523 480.104 C 1609.119 482.820, 1609.464 483, 1614.079 483 L 1619 483 1619 479.400 C 1619 474.829, 1614.096 469.617, 1608.440 468.175 C 1603.157 466.829, 1589.176 466.311, 1580.241 467.131 M 1738.890 466.982 C 1734.947 467.373, 1730.811 468.504, 1728.640 469.785 L 1725 471.933 1725 469.466 C 1725 467.144, 1724.680 467, 1719.500 467 L 1714 467 1714 492 L 1714 517 1719.500 517 L 1725 517 1725 499.901 C 1725 479.535, 1725.736 477.030, 1732.482 474.454 C 1735.755 473.204, 1739.308 472.894, 1747.365 473.156 C 1762.919 473.662, 1762.418 472.871, 1762.809 497.525 L 1763.119 517 1768.650 517 L 1774.181 517 1773.826 497.250 C 1773.428 475.067, 1772.770 472.542, 1766.624 469.626 C 1760.996 466.955, 1749.865 465.894, 1738.890 466.982 M 1812 466.985 C 1802.615 467.616, 1796.826 469.860, 1793.767 474.052 C 1789.611 479.749, 1789.265 500.524, 1793.196 508.334 C 1794.598 511.118, 1796.410 512.756, 1799.813 514.314 C 1803.976 516.219, 1806.288 516.461, 1820.500 516.479 C 1839.362 516.504, 1842.903 515.902, 1847.461 511.900 C 1851.969 507.942, 1853.436 501.468, 1852.798 488.344 C 1852.114 474.263, 1849.575 470.293, 1839.843 468.095 C 1833.939 466.761, 1822.259 466.295, 1812 466.985 M 1918 467 C 1906.942 467.724, 1902.298 469.946, 1899.190 476 C 1897.070 480.129, 1896.907 481.532, 1897.219 493 C 1897.630 508.132, 1898.830 511.107, 1905.821 514.338 C 1910.053 516.293, 1912.171 516.500, 1928 516.500 C 1943.829 516.500, 1945.947 516.293, 1950.179 514.338 C 1956.980 511.195, 1958.327 508.040, 1958.821 494.098 C 1959.421 477.186, 1957.026 471.429, 1948.237 468.660 C 1942.688 466.911, 1929.998 466.215, 1918 467 M 1994.500 466.997 C 1977.728 468.862, 1973.477 474.411, 1974.150 493.555 C 1974.592 506.105, 1976.530 510.367, 1983.403 513.905 C 1992.306 518.486, 2016.101 517.855, 2022.439 512.869 L 2025 510.855 2024.944 516.177 C 2024.804 529.318, 2021.330 532.004, 2004.500 531.984 C 1991.783 531.968, 1989.001 530.992, 1987.374 525.974 C 1986.303 522.672, 1985.993 522.485, 1981.124 522.198 L 1976 521.895 1976 524.997 C 1976 529.606, 1978.453 533.513, 1982.575 535.468 C 1990.712 539.330, 2017.309 539.191, 2026.140 535.241 C 2034.804 531.365, 2034.462 532.840, 2034.791 497.897 L 2035.082 467 2030.041 467 C 2025.118 467, 2025 467.069, 2025 469.970 L 2025 472.940 2021.437 470.522 C 2016.740 467.334, 2005.127 465.815, 1994.500 466.997 M 1175 492 L 1175 517 1180 517 L 1185 517 1185 492 L 1185 467 1180 467 L 1175 467 1175 492 M 2044.167 467.949 C 2044.350 468.471, 2050.107 479.702, 2056.960 492.907 C 2065.633 509.620, 2069.977 517.005, 2071.253 517.208 C 2072.940 517.477, 2072.863 517.936, 2070.293 522.949 C 2066.971 529.430, 2063.573 532.153, 2058.634 532.293 C 2055.383 532.386, 2055 532.679, 2055 535.082 C 2055 538.458, 2057.320 539.169, 2064.522 537.996 C 2071.667 536.833, 2075.516 534.688, 2078.471 530.222 C 2079.825 528.175, 2085.720 514.125, 2091.571 499 C 2097.422 483.875, 2102.601 470.488, 2103.080 469.250 C 2103.921 467.077, 2103.754 467, 2098.224 467 L 2092.498 467 2085.076 487.750 C 2080.995 499.163, 2077.312 508.898, 2076.892 509.385 C 2076.472 509.872, 2071.267 500.535, 2065.325 488.635 L 2054.522 467 2049.177 467 C 2046.238 467, 2043.983 467.427, 2044.167 467.949 M 345.404 474.382 C 341.042 476.343, 338.980 482.009, 339.076 491.770 C 339.167 500.970, 340.662 505.658, 344.394 508.445 C 346.793 510.236, 348.605 510.500, 358.500 510.500 C 371.061 510.500, 374.008 509.369, 376.914 503.431 C 378.844 499.490, 378.866 484.446, 376.948 480.590 C 374.072 474.809, 370.970 473.527, 359.180 473.245 C 351.721 473.067, 347.566 473.410, 345.404 474.382 M 624.404 474.382 C 620.042 476.343, 617.980 482.009, 618.076 491.770 C 618.167 500.970, 619.662 505.658, 623.394 508.445 C 625.793 510.236, 627.605 510.500, 637.500 510.500 C 650.020 510.500, 653.009 509.364, 655.872 503.519 C 657.743 499.701, 657.770 484.359, 655.913 480.566 C 653.100 474.821, 649.965 473.526, 638.180 473.245 C 630.721 473.067, 626.566 473.410, 624.404 474.382 M 702.329 474.458 C 698.738 476.020, 697.483 477.910, 696.477 483.268 L 695.777 487 715.889 487 C 729.355 487, 736 486.651, 736 485.943 C 736 485.361, 735.492 482.868, 734.871 480.402 C 733.256 473.988, 730.808 472.991, 716.800 473.039 C 709.474 473.065, 704.385 473.563, 702.329 474.458 M 1298.325 474.459 C 1293.451 476.579, 1292.074 479.586, 1291.406 489.572 C 1290.303 506.051, 1293.708 510.158, 1308.936 510.715 C 1320.281 511.130, 1326.723 509.006, 1329.306 504 C 1330.780 501.144, 1331.052 498.628, 1330.784 490.330 C 1330.420 479.070, 1329.431 476.965, 1323.282 474.362 C 1319.011 472.554, 1302.557 472.618, 1298.325 474.459 M 1500.329 474.458 C 1496.723 476.026, 1495.524 477.900, 1494.702 483.250 L 1494.126 487 1514.191 487 L 1534.256 487 1533.596 482.875 C 1532.716 477.372, 1531.384 475.097, 1528.374 473.952 C 1524.484 472.473, 1504.044 472.842, 1500.329 474.458 M 1807.242 474.494 C 1802.821 476.415, 1801.737 479.693, 1801.618 491.500 C 1801.452 507.898, 1803.329 510.150, 1817.720 510.812 C 1829.575 511.357, 1835.361 510.453, 1838.769 507.523 C 1841.471 505.200, 1841.500 505.045, 1841.500 492.743 C 1841.500 478.786, 1840.555 475.738, 1835.707 474.048 C 1831.197 472.475, 1811.164 472.789, 1807.242 474.494 M 1913.384 474.434 C 1911.370 475.311, 1909.868 476.941, 1909.134 479.044 C 1907.592 483.467, 1907.695 501.830, 1909.279 505 C 1911.504 509.454, 1916.320 510.997, 1928 510.997 C 1939.680 510.997, 1944.496 509.454, 1946.721 505 C 1948.306 501.829, 1948.407 483.467, 1946.865 479.042 C 1945.187 474.228, 1941.259 472.992, 1927.782 473.039 C 1920.566 473.064, 1915.377 473.567, 1913.384 474.434 M 1991.014 474.752 C 1985.992 477.270, 1985.032 480, 1985.015 491.800 C 1984.991 508.304, 1987.302 510.519, 2004.500 510.473 C 2020.567 510.430, 2024.052 507.287, 2024.237 492.670 C 2024.442 476.374, 2021.029 473.060, 2004 473.024 C 1996.920 473.008, 1993.612 473.448, 1991.014 474.752 M 186.794 494.549 C 183.614 496.275, 182.328 501.102, 183.927 505.309 C 185.482 509.399, 190.293 511, 201.025 511 C 216.345 511, 222 508.496, 222 501.712 C 222 494.566, 218.281 492.985, 201.601 493.040 C 192.916 493.069, 188.736 493.495, 186.794 494.549 M 546 493.672 C 541.204 495.555, 539.602 500.837, 542.138 506.403 C 543.727 509.890, 547.781 511.001, 558.899 510.994 C 570.406 510.988, 575.218 509.810, 577.955 506.331 C 580.654 502.899, 580.538 499.738, 577.589 496.306 C 575.182 493.505, 575.154 493.500, 561.339 493.291 C 553.728 493.177, 546.825 493.348, 546 493.672 M 907.794 494.549 C 903.208 497.038, 903.047 505.305, 907.513 509.010 C 909.842 510.944, 927.621 511.627, 934.655 510.053 C 940.555 508.732, 943 506.288, 943 501.712 C 943 494.566, 939.281 492.985, 922.601 493.040 C 913.916 493.069, 909.736 493.495, 907.794 494.549" stroke="none" fill="#9a9999" fill-rule="evenodd"/><path d="M 1088.775 61.559 C 1087.276 62.372, 1085.589 63.900, 1085.025 64.953 C 1084.372 66.173, 1084 81.972, 1084 108.484 C 1084 154.721, 1084.018 154.861, 1090.344 156.949 C 1093.343 157.938, 1103.688 155.856, 1182.112 138.481 C 1230.725 127.710, 1271.716 118.425, 1273.201 117.847 C 1279.033 115.581, 1280.936 107.353, 1276.750 102.507 C 1274.660 100.087, 1268.122 98.482, 1185 79.975 C 1135.775 69.016, 1094.600 60.056, 1093.500 60.064 C 1092.400 60.073, 1090.274 60.746, 1088.775 61.559" stroke="none" fill="#fbb900" fill-rule="evenodd"/><path d="M 97.500 198.402 C 83.551 202.825, 74.068 212.767, 70.496 226.711 C 69.122 232.073, 68.955 241.215, 69.208 297.186 L 69.500 361.500 71.909 367.500 C 75.237 375.791, 85.209 385.763, 93.500 389.091 L 99.500 391.500 257.337 391.500 L 415.173 391.500 417.587 388.694 C 419.878 386.030, 420 385.211, 420 372.500 C 420 359.789, 419.878 358.970, 417.587 356.306 L 415.173 353.500 274 353 L 132.827 352.500 130.413 349.694 L 128 346.888 128 294.367 L 128 241.846 130.923 238.923 L 133.846 236 272.973 236 C 422.885 236, 416.203 236.226, 418.970 231.055 C 419.537 229.997, 420 223.217, 420 215.989 L 420 202.846 417.077 199.923 L 414.154 197 257.827 197.067 C 134.478 197.120, 100.656 197.401, 97.500 198.402 M 505.579 199.103 C 494.481 202.920, 487.546 209.325, 482.234 220.664 L 479.500 226.500 479.215 291.956 C 478.940 355.188, 478.999 357.638, 480.949 364.058 C 484.410 375.453, 492.921 384.703, 504.197 389.326 L 509.500 391.500 654.500 391.500 L 799.500 391.500 805.252 389.177 C 816.505 384.634, 824.717 375.851, 828.411 364.409 C 829.881 359.857, 830.026 352.242, 829.777 292.409 L 829.500 225.500 827.192 220.533 C 822.294 209.988, 813.513 202.195, 802.760 198.848 C 797.099 197.086, 790.160 197.002, 654.161 197.033 C 513.301 197.067, 511.425 197.093, 505.579 199.103 M 915.070 199.025 C 904.800 202.718, 896.959 209.887, 892.128 220 L 889.500 225.500 889.227 305.272 C 889.040 359.715, 889.288 385.669, 890.006 387.012 C 892.475 391.624, 895.580 392.126, 919.641 391.803 L 942.177 391.500 944.588 388.694 L 947 385.888 947 316.569 C 947 278.444, 947.280 245.850, 947.622 244.139 C 947.964 242.428, 949.376 239.897, 950.759 238.514 L 953.273 236 1000.886 236.022 C 1052.772 236.046, 1050.897 235.846, 1053.883 241.684 C 1054.675 243.232, 1055 264.549, 1055 314.878 L 1055 385.888 1057.412 388.694 L 1059.823 391.500 1082.359 391.803 C 1107.036 392.134, 1110.068 391.581, 1112.043 386.387 C 1112.619 384.871, 1113 356.027, 1113 313.885 C 1113 238.863, 1112.946 239.705, 1117.945 237.030 C 1119.186 236.365, 1136.561 236, 1166.918 236 L 1213.968 236 1217.234 238.917 L 1220.500 241.835 1221 314.390 L 1221.500 386.946 1223.776 389.223 C 1225.988 391.437, 1226.673 391.508, 1248.473 391.803 C 1273.026 392.134, 1276.070 391.577, 1278.043 386.387 C 1278.622 384.863, 1279 353.541, 1279 307.040 C 1279 232.932, 1278.929 229.986, 1276.995 223.855 C 1273.300 212.140, 1264.367 203.066, 1252.556 199.031 C 1246.675 197.022, 1244.863 197, 1083.556 197.036 C 924.379 197.071, 920.371 197.119, 915.070 199.025 M 1367.500 197.928 C 1356.566 200.611, 1346.781 208.577, 1341.724 218.911 L 1338.500 225.500 1338.227 305.668 L 1337.954 385.835 1340.389 388.668 L 1342.823 391.500 1365.359 391.803 C 1390.036 392.134, 1393.068 391.581, 1395.043 386.387 C 1395.619 384.871, 1396 356.027, 1396 313.885 C 1396 238.863, 1395.946 239.705, 1400.945 237.030 C 1402.231 236.341, 1439.538 236, 1513.511 236 L 1624.154 236 1627.077 238.923 L 1630 241.846 1630 254.989 C 1630 262.217, 1629.537 268.997, 1628.970 270.055 C 1626.295 275.055, 1627.146 275, 1552 275 C 1473.675 275, 1477.069 274.701, 1474.944 281.792 C 1474.286 283.990, 1473.956 290.255, 1474.156 296.766 C 1474.484 307.453, 1474.625 308.085, 1477.272 310.730 L 1480.044 313.500 1552.495 314 L 1624.946 314.500 1627.223 316.776 C 1629.480 319.032, 1629.504 319.344, 1630 352.505 L 1630.500 385.958 1633.271 388.729 L 1636.041 391.500 1658.180 391.805 C 1682.768 392.145, 1684.941 391.751, 1687.430 386.507 C 1689.738 381.642, 1689.807 235.517, 1687.505 226.680 C 1684.285 214.318, 1677.488 206.022, 1666.201 200.674 L 1659.500 197.500 1515 197.346 C 1435.525 197.261, 1369.150 197.523, 1367.500 197.928 M 1775.500 198.392 C 1760.372 203.202, 1750.134 215.633, 1747.875 231.933 C 1747.339 235.801, 1747.058 270.237, 1747.219 312.328 L 1747.500 385.956 1750.271 388.728 L 1753.041 391.500 1775.180 391.805 C 1790.719 392.020, 1798.179 391.754, 1800.206 390.915 C 1806.171 388.444, 1806 390.746, 1806 312.973 L 1806 241.846 1808.923 238.923 L 1811.846 236 1923 236 L 2034.154 236 2037.077 238.923 L 2040 241.846 2040 254.989 C 2040 262.217, 2039.537 268.997, 2038.970 270.055 C 2036.295 275.054, 2037.137 275, 1962.115 275 C 1919.973 275, 1891.129 275.381, 1889.613 275.957 C 1885.181 277.642, 1884 281.634, 1884 294.935 C 1884 306.672, 1884.068 307.042, 1886.750 309.953 C 1888.487 311.839, 1915.523 326.708, 1960.144 350.318 C 1998.998 370.877, 2032.748 388.545, 2035.144 389.580 C 2038.997 391.245, 2042.775 391.501, 2067.873 391.802 C 2098.757 392.171, 2100.984 391.866, 2103.547 386.909 C 2105.718 382.710, 2105.316 379.366, 2102.250 376.124 C 2100.594 374.374, 2080.402 363.370, 2051.500 348.468 C 2025.100 334.856, 2002.713 323.037, 2001.750 322.204 C 1999.720 320.448, 1999.432 316.485, 2001.250 315.309 C 2001.938 314.864, 2017.350 314.268, 2035.500 313.985 C 2067.057 313.493, 2068.753 313.369, 2074.285 311.151 C 2086.077 306.421, 2095.497 294.622, 2097.906 281.566 C 2099.610 272.326, 2099.291 234.861, 2097.442 227.014 C 2094.633 215.098, 2087.184 205.919, 2076 200.595 L 2069.500 197.500 1924.500 197.310 C 1809.512 197.159, 1778.672 197.383, 1775.500 198.392 M 541.077 238.589 L 538 241.178 538 294.166 L 538 347.154 540.923 350.077 L 543.846 353 654.407 353 L 764.968 353 768.234 350.083 L 771.500 347.165 771.796 297.333 C 771.958 269.925, 771.816 245.989, 771.480 244.141 C 771.144 242.294, 769.707 239.707, 768.288 238.391 L 765.708 236 654.931 236 L 544.153 236 541.077 238.589" stroke="none" fill="#043c7c" fill-rule="evenodd"/><path d="M 0 286 L 0 572.001 1086.250 571.750 L 2172.500 571.500 2172.752 285.750 L 2173.003 -0 1086.502 -0 L 0 0 0 286 M 0.493 286.500 C 0.493 443.800, 0.609 508.001, 0.750 429.169 C 0.891 350.337, 0.891 221.637, 0.750 143.169 C 0.609 64.701, 0.493 129.200, 0.493 286.500 M 1088.775 61.559 C 1087.276 62.372, 1085.589 63.900, 1085.025 64.953 C 1084.372 66.173, 1084 81.972, 1084 108.484 C 1084 154.721, 1084.018 154.861, 1090.344 156.949 C 1093.343 157.938, 1103.688 155.856, 1182.112 138.481 C 1230.725 127.710, 1271.716 118.425, 1273.201 117.847 C 1279.033 115.581, 1280.936 107.353, 1276.750 102.507 C 1274.660 100.087, 1268.122 98.482, 1185 79.975 C 1135.775 69.016, 1094.600 60.056, 1093.500 60.064 C 1092.400 60.073, 1090.274 60.746, 1088.775 61.559 M 921.527 197.114 C 913.460 198.289, 906.308 201.977, 900.143 208.143 C 893.494 214.792, 890.281 221.505, 888.964 231.500 C 888.283 236.668, 888.015 265.456, 888.205 312.832 L 888.500 386.165 891.766 389.082 L 895.032 392 917.469 392 C 931.472 392, 940.801 391.592, 942.288 390.915 C 943.598 390.318, 945.419 388.561, 946.335 387.010 C 947.846 384.452, 948 377.636, 948 313.151 L 948 242.112 950.413 239.306 L 952.827 236.500 1000.886 236.500 L 1048.944 236.500 1051.222 238.777 L 1053.500 241.054 1054 313.610 L 1054.500 386.165 1057.766 389.083 L 1061.032 392 1083.960 392 C 1106.754 392, 1106.905 391.986, 1109.694 389.587 L 1112.500 387.174 1113 314.609 L 1113.500 242.044 1116.273 239.272 L 1119.045 236.500 1167.109 236.500 L 1215.173 236.500 1217.587 239.306 L 1220 242.112 1220 313.122 C 1220 363.451, 1220.325 384.768, 1221.117 386.316 C 1223.926 391.808, 1224.665 391.954, 1249.827 391.978 L 1273.154 392 1276.100 389.054 L 1279.046 386.108 1278.773 305.304 L 1278.500 224.500 1275.334 218.500 C 1269.111 206.708, 1258.199 198.887, 1245.385 197.035 C 1236.773 195.790, 930.102 195.865, 921.527 197.114 M 1780.357 196.989 C 1764.704 199.321, 1751.486 211.957, 1748.124 227.799 C 1746.547 235.232, 1746.540 383.233, 1748.117 386.316 C 1750.924 391.804, 1751.678 391.954, 1776.694 391.978 C 1799.785 392, 1799.901 391.989, 1802.694 389.587 L 1805.500 387.174 1806 314.609 L 1806.500 242.044 1809.273 239.272 L 1812.045 236.500 1923.105 236.500 L 2034.164 236.500 2037.159 239.852 L 2040.155 243.205 2039.827 256.001 C 2039.459 270.393, 2038.702 272.155, 2032.100 273.989 C 2029.860 274.611, 2002.308 274.991, 1959.173 274.994 L 1889.846 275 1886.923 277.923 L 1884 280.846 1884 294.367 C 1884 306.990, 1884.150 308.053, 1886.250 310.362 C 1888.781 313.145, 2028.721 387.506, 2036.500 390.202 C 2040.784 391.687, 2045.629 391.939, 2070.327 391.967 L 2099.154 392 2102.077 389.077 C 2105.550 385.604, 2106.099 379.541, 2103.250 376.120 C 2102.287 374.964, 2079.020 362.370, 2051.545 348.133 C 1999.840 321.341, 1997.635 319.938, 2001.362 316.207 C 2002.882 314.686, 2006.741 314.446, 2036.784 314 L 2070.500 313.500 2076.487 310.560 C 2084.457 306.647, 2091.371 299.550, 2095.307 291.241 L 2098.500 284.500 2098.500 256 C 2098.500 230.239, 2098.313 226.996, 2096.556 222.261 C 2092.679 211.810, 2084.143 203.218, 2073.282 198.834 L 2067.500 196.500 1926.500 196.361 C 1848.950 196.285, 1783.186 196.568, 1780.357 196.989 M 94.813 198.926 C 84.480 202.967, 77.288 209.648, 72.263 219.876 L 69.500 225.500 69.500 294.052 L 69.500 362.603 73.272 370.236 C 77.565 378.922, 83.098 384.424, 91.876 388.737 L 97.500 391.500 255.500 391.774 C 374.571 391.980, 414.043 391.760, 415.705 390.879 C 419.653 388.786, 421 384.129, 421 372.567 C 421 361.875, 419.710 356.215, 416.852 354.372 C 416.108 353.892, 352.126 353.275, 274.668 353 L 133.836 352.500 130.918 349.234 L 128 345.968 128 294.935 C 128 239.572, 127.989 239.693, 133.472 237.195 C 135.465 236.287, 169.442 236, 275.031 236 L 413.968 236 417.234 233.084 L 420.500 230.169 420.836 217.998 C 421.058 209.951, 420.757 204.827, 419.948 202.874 C 417.330 196.555, 429.644 196.996, 257.027 197.047 C 106.732 197.091, 99.285 197.178, 94.813 198.926 M 505.844 198.394 C 495.614 202.048, 486.722 210.095, 482.160 219.825 L 479.500 225.500 479.500 294.500 L 479.500 363.500 482.442 369.500 C 486.198 377.163, 493.849 384.814, 501.500 388.561 L 507.500 391.500 654.500 391.500 L 801.500 391.500 807.218 388.820 C 819.746 382.948, 828.197 371.308, 830.070 357.343 C 830.741 352.341, 831.005 327.405, 830.801 288.500 C 830.483 228.009, 830.461 227.454, 828.242 222 C 823.972 211.504, 814.781 202.529, 804.661 198.972 C 799.174 197.043, 795.862 197.001, 654.275 197.044 C 537.771 197.079, 508.786 197.343, 505.844 198.394 M 1364.096 198.500 C 1353.663 201.769, 1343.153 212.299, 1339.299 223.344 C 1337.626 228.138, 1337.500 233.985, 1337.500 306.598 C 1337.500 390.686, 1337.365 388.478, 1342.657 390.890 C 1344.212 391.598, 1353.204 392, 1367.491 392 C 1389.724 392, 1389.909 391.982, 1392.694 389.587 L 1395.500 387.174 1396 314.609 L 1396.500 242.044 1399.273 239.272 L 1402.045 236.500 1512.047 236.237 C 1632.340 235.949, 1626.793 235.695, 1629.043 241.613 C 1629.569 242.997, 1630 249.494, 1630 256.049 C 1630 267.805, 1629.960 268.013, 1627.083 271.234 L 1624.165 274.500 1551.495 275 L 1478.826 275.500 1476.413 278.306 C 1474.141 280.948, 1474 281.841, 1474 293.605 C 1474 306.809, 1475.040 310.880, 1478.945 312.970 C 1480.212 313.648, 1504.822 314, 1551.033 314 C 1627.477 314, 1626.273 313.913, 1628.861 319.595 C 1629.635 321.292, 1630 332.043, 1630 353.097 C 1630 386.040, 1630.321 388.496, 1634.945 390.970 C 1636.105 391.591, 1646.051 392, 1660.011 392 L 1683.154 392 1686.100 389.054 L 1689.046 386.108 1688.773 305.804 L 1688.500 225.500 1685.820 219.782 C 1682.275 212.218, 1675.411 205.044, 1667.737 200.882 L 1661.500 197.500 1515 197.310 C 1392.843 197.152, 1367.768 197.350, 1364.096 198.500 M 542.704 237.589 C 541.166 238.427, 539.479 240.241, 538.954 241.621 C 537.523 245.386, 537.695 344.237, 539.139 347.405 C 541.795 353.234, 536.971 353, 654.433 353 C 769.644 353, 767.271 353.100, 769.920 348.150 C 770.654 346.778, 771 329.465, 771 294.122 L 771 242.112 768.587 239.306 L 766.173 236.500 655.837 236.283 C 558.627 236.092, 545.167 236.247, 542.704 237.589 M 1869 480.500 L 1869 516 1874.500 516 L 1880 516 1880 480.500 L 1880 445 1874.500 445 L 1869 445 1869 480.500 M 74 481.500 L 74 517 79.500 517 L 85 517 85 500.500 L 85 484 114.500 484 L 144 484 144 500.500 L 144 517 150 517 L 156 517 156 481.500 L 156 446 150 446 L 144 446 144 461.500 L 144 477 114.500 477 L 85 477 85 461.500 L 85 446 79.500 446 L 74 446 74 481.500 M 379 459 C 379 471.542, 378.512 473.527, 376.134 470.662 C 374.143 468.262, 367.055 466.877, 356.543 466.834 C 333.164 466.737, 327.344 472.411, 328.162 494.498 C 328.611 506.620, 330.553 510.637, 337.623 514.059 C 346.437 518.326, 367.828 517.963, 374.503 513.433 C 376.475 512.095, 378.294 511, 378.544 511 C 378.795 511, 379 512.350, 379 514 C 379 516.933, 379.111 517, 384 517 L 389 517 389 481.500 L 389 446 384 446 L 379 446 379 459 M 658 459 C 658 471.542, 657.512 473.527, 655.134 470.662 C 653.143 468.262, 646.055 466.877, 635.543 466.834 C 612.171 466.737, 606.342 472.339, 607.148 494.120 C 607.612 506.655, 609.489 510.606, 616.623 514.059 C 625.437 518.326, 646.828 517.963, 653.503 513.433 C 655.475 512.095, 657.294 511, 657.544 511 C 657.795 511, 658 512.350, 658 514 C 658 516.933, 658.111 517, 663 517 L 668 517 668 481.500 L 668 446 663 446 L 658 446 658 459 M 801.610 447.202 C 802.043 447.916, 810.183 457.120, 819.698 467.655 L 837 486.811 837 501.905 L 837 517 843 517 L 849 517 849 501.956 L 849 486.911 862.682 472.206 C 870.207 464.118, 878.855 454.913, 881.901 451.750 L 887.437 446 880.289 446 L 873.141 446 858.820 461.922 C 850.944 470.679, 844.050 477.839, 843.500 477.834 C 842.950 477.828, 836.174 470.775, 828.443 462.161 L 814.386 446.500 807.605 446.202 C 802.254 445.967, 800.989 446.178, 801.610 447.202 M 1047 481.500 L 1047 517 1052.500 517 L 1058 517 1058 499.565 C 1058 489.976, 1058.430 480.999, 1058.955 479.617 C 1060.761 474.868, 1064.382 473.533, 1076.455 473.164 C 1095.410 472.587, 1096 473.381, 1096 499.468 L 1096 517 1101.056 517 L 1106.112 517 1105.806 496.103 C 1105.469 473.119, 1105.385 472.802, 1098.651 469.320 C 1091.345 465.541, 1066.223 465.980, 1060.812 469.981 L 1058 472.060 1058 459.030 L 1058 446 1052.500 446 L 1047 446 1047 481.500 M 1175 450 L 1175 454 1180 454 L 1185 454 1185 450 L 1185 446 1180 446 L 1175 446 1175 450 M 1398 449.500 L 1398 453 1414.500 453 L 1431 453 1431 485 L 1431 517 1436.500 517 L 1442 517 1442 485 L 1442 453 1458.500 453 L 1475 453 1475 449.500 L 1475 446 1436.500 446 L 1398 446 1398 449.500 M 1636 481.500 L 1636 517 1640.903 517 L 1645.806 517 1646.153 499.072 C 1646.469 482.750, 1646.688 480.891, 1648.594 478.322 C 1651.523 474.374, 1655.972 473.122, 1667.300 473.056 C 1677.609 472.997, 1682.003 474.255, 1683.565 477.713 C 1684.008 478.696, 1684.555 487.938, 1684.779 498.250 L 1685.187 517 1690.094 517 L 1695 517 1694.996 497.250 C 1694.992 475.221, 1694.377 472.798, 1687.943 469.471 C 1680.391 465.565, 1655.441 465.819, 1649.979 469.857 C 1648.385 471.036, 1646.838 472, 1646.540 472 C 1646.243 472, 1646 466.150, 1646 459 L 1646 446 1641 446 L 1636 446 1636 481.500 M 1125 461 L 1125 467 1120 467 C 1115.132 467, 1115 467.078, 1115 469.945 C 1115 472.749, 1115.228 472.905, 1119.750 473.195 L 1124.500 473.500 1125 492.148 C 1125.442 508.644, 1125.719 511.039, 1127.400 512.893 C 1129.978 515.737, 1135.051 516.989, 1144 516.989 C 1153.455 516.989, 1158.576 515.578, 1162.171 511.983 C 1164.533 509.620, 1165 508.316, 1165 504.077 L 1165 499 1160 499 L 1155 499 1155 503.378 C 1155 506.230, 1154.424 508.233, 1153.346 509.128 C 1151.165 510.938, 1138.595 510.994, 1136.800 509.202 C 1135.834 508.237, 1135.500 503.484, 1135.500 490.702 L 1135.500 473.500 1149.250 473.222 L 1163 472.944 1163 469.972 L 1163 467 1149 467 L 1135 467 1135 461 L 1135 455 1130 455 L 1125 455 1125 461 M 192 467.056 C 179.756 467.950, 176.172 470.145, 174.539 477.750 L 173.841 481 179.401 481 C 184.519 481, 185.013 480.798, 185.598 478.465 C 186.662 474.226, 190.612 473, 203.200 473.002 C 215.946 473.003, 220.921 474.581, 222.122 479 C 222.950 482.051, 223.206 491, 222.465 491 C 222.170 491, 220.729 490.212, 219.262 489.250 C 217.101 487.833, 213.817 487.436, 201.981 487.162 C 185.455 486.780, 180.086 487.760, 175.928 491.919 C 172.471 495.375, 171.327 501.866, 173.184 507.481 C 174.198 510.550, 175.531 512.039, 179 513.981 C 183.270 516.371, 184.293 516.500, 199 516.500 C 213.106 516.500, 214.882 516.299, 218.750 514.266 L 223 512.032 223 514.516 C 223 516.830, 223.342 517, 228 517 L 233 517 233 496.400 L 233 475.800 229.690 472.490 C 227.869 470.669, 224.606 468.731, 222.440 468.183 C 217.135 466.841, 202.411 466.295, 192 467.056 M 277 467.032 C 269.813 467.812, 267.356 468.569, 264.750 470.807 C 263.145 472.185, 263 472.089, 263 469.655 C 263 467.103, 262.786 467, 257.500 467 L 252 467 252 492 L 252 517 257.500 517 L 263 517 263 499.450 C 263 474.200, 263.557 473.500, 283.624 473.500 C 301.180 473.500, 300.411 472.425, 300.809 497.525 L 301.119 517 306.059 517 L 311 517 311 496.535 L 311 476.070 307.980 472.630 C 305.821 470.171, 303.610 468.896, 300.230 468.162 C 293.330 466.662, 284.411 466.228, 277 467.032 M 434.885 467.075 C 428.383 467.796, 423.205 469.746, 419.750 472.776 C 418.123 474.202, 418 474.054, 418 470.655 L 418 467 413 467 L 408 467 408 492 L 408 517 412.901 517 L 417.802 517 418.151 499.704 C 418.552 479.817, 419.120 478.162, 426.683 474.816 C 430.439 473.154, 432.877 472.876, 441.189 473.159 C 455.432 473.645, 455 472.880, 455 497.611 L 455 517 460.500 517 L 466 517 466 500.468 C 466 475.087, 467.194 473.500, 486.289 473.500 C 498.066 473.500, 498.191 473.524, 500.585 476.306 C 502.955 479.059, 503 479.467, 503 498.056 L 503 517 508.500 517 L 514 517 513.978 498.250 C 513.947 471.708, 512.322 468.782, 496.664 467.082 C 484.014 465.708, 468.141 468.727, 465.493 473.012 C 465.099 473.649, 463.701 473.085, 461.880 471.552 C 457.005 467.451, 446.783 465.755, 434.885 467.075 M 550 467.062 C 545.325 467.402, 540.322 468.169, 538.881 468.766 C 535.261 470.266, 532 474.706, 532 478.135 C 532 480.941, 532.113 481, 537.500 481 C 542.179 481, 543 480.725, 543 479.155 C 543 478.140, 543.947 476.453, 545.105 475.405 C 546.964 473.723, 548.846 473.500, 561.192 473.500 L 575.173 473.500 577.587 476.306 C 579.555 478.594, 580 480.213, 580 485.079 L 580 491.046 577.294 489.273 C 574.971 487.751, 572.177 487.500, 557.544 487.500 C 542.856 487.500, 539.976 487.761, 536.706 489.385 C 531.867 491.789, 530 495.455, 530 502.550 C 530 507.603, 530.347 508.547, 533.284 511.484 C 537.744 515.944, 544.888 517.345, 560.517 516.825 C 570.692 516.486, 573.208 516.075, 576.310 514.245 L 580 512.067 580 514.534 C 580 516.856, 580.320 517, 585.500 517 L 591 517 590.994 498.750 C 590.991 488.712, 590.514 478.789, 589.933 476.698 C 588.783 472.555, 585.073 469.632, 579 468.083 C 574.074 466.826, 560.038 466.332, 550 467.062 M 706.917 466.997 C 688.720 468.437, 683.935 475.034, 685.202 496.933 C 685.778 506.872, 687.840 510.650, 694.517 514 C 699.290 516.395, 700.259 516.498, 717.500 516.464 C 731.981 516.434, 736.188 516.108, 739.020 514.796 C 743.730 512.614, 745.692 510.250, 746.527 505.750 L 747.223 502 741.736 502 C 736.423 502, 736.231 502.096, 735.641 505.044 C 734.742 509.538, 730.351 511.001, 717.782 510.994 C 700.476 510.985, 696.917 509.002, 696.191 498.963 L 695.760 493 721.524 493 L 747.289 493 746.730 485.617 C 745.627 471.023, 741.649 468.097, 721 466.692 C 717.975 466.486, 711.638 466.623, 706.917 466.997 M 913 467.056 C 900.756 467.950, 897.172 470.145, 895.539 477.750 L 894.841 481 900.401 481 C 905.519 481, 906.013 480.798, 906.598 478.465 C 907.657 474.247, 911.624 473, 923.982 473 C 937.244 473, 941.200 474.266, 942.865 479.042 C 944.014 482.339, 944.449 491, 943.465 491 C 943.170 491, 941.728 490.212, 940.259 489.250 C 937.979 487.756, 935.092 487.500, 920.544 487.500 C 905.219 487.500, 903.147 487.705, 900 489.534 C 890.549 495.026, 890.838 509.435, 900.500 514.431 C 904.040 516.262, 906.284 516.500, 920 516.500 C 934.106 516.500, 935.882 516.299, 939.750 514.266 L 944 512.032 944 514.516 C 944 516.830, 944.342 517, 949 517 L 954 517 954 496.400 L 954 475.800 950.690 472.490 C 948.869 470.669, 945.606 468.731, 943.440 468.183 C 938.135 466.841, 923.411 466.295, 913 467.056 M 991.827 467.053 C 981.594 467.979, 975.635 470.884, 972.742 476.355 C 970.855 479.924, 970.549 482.099, 970.545 492 C 970.540 501.641, 970.870 504.136, 972.584 507.435 C 976.401 514.780, 985.953 517.456, 1006 516.796 C 1024.341 516.192, 1029.989 513.200, 1031.577 503.250 L 1032.256 499 1026.628 499 C 1021.253 499, 1021 499.115, 1021 501.566 C 1021 508.514, 1016.095 511.033, 1002.782 510.923 C 991.556 510.830, 986.402 509.419, 983.606 505.674 C 981.749 503.186, 981.514 501.583, 981.620 492.127 C 981.820 474.346, 983.929 472.549, 1003.875 473.156 C 1014.830 473.489, 1015.251 473.586, 1017.589 476.306 C 1018.915 477.849, 1020 479.986, 1020 481.056 C 1020 482.747, 1020.719 483, 1025.519 483 C 1031.019 483, 1031.036 482.990, 1030.438 480.250 C 1029.171 474.447, 1027.750 472.228, 1023.923 470.077 C 1018.770 467.181, 1004.875 465.872, 991.827 467.053 M 1228.890 466.992 C 1224.929 467.379, 1220.821 468.498, 1218.640 469.785 L 1215 471.933 1215 469.466 C 1215 467.144, 1214.680 467, 1209.500 467 L 1204 467 1204 492 L 1204 517 1209.500 517 L 1215 517 1215.015 499.750 C 1215.031 481.145, 1215.456 479.211, 1220.323 475.596 C 1222.834 473.732, 1224.521 473.500, 1235.546 473.500 C 1253.192 473.500, 1252.410 472.412, 1252.809 497.525 L 1253.119 517 1258.559 517 L 1264 517 1263.994 499.250 C 1263.988 480.029, 1263.153 474.973, 1259.411 471.505 C 1255.147 467.554, 1242.414 465.671, 1228.890 466.992 M 1300.444 467.076 C 1284.926 468.584, 1280.513 474.107, 1280.526 492 C 1280.536 505.285, 1282.708 510.116, 1290.383 513.920 C 1299.548 518.463, 1323.576 517.839, 1328.855 512.920 L 1331 510.922 1331 518.027 C 1331 521.934, 1330.514 526.040, 1329.920 527.150 C 1328.061 530.624, 1322.745 532.060, 1311.660 532.083 C 1298.028 532.111, 1295.016 530.896, 1293.472 524.744 C 1292.829 522.181, 1292.431 522, 1287.454 522 L 1282.126 522 1282.683 525.750 C 1283.942 534.224, 1288.184 536.914, 1301.992 537.999 C 1315.164 539.034, 1327.884 537.767, 1333.803 534.831 C 1341.848 530.839, 1341.997 530.140, 1341.998 496.250 L 1342 467 1336.500 467 C 1331.040 467, 1331 467.022, 1331 470.039 L 1331 473.078 1328.793 471.022 C 1324.891 467.387, 1313.524 465.805, 1300.444 467.076 M 1505 467.037 C 1495.750 467.723, 1490.069 469.825, 1487.031 473.688 C 1484.240 477.236, 1482.677 486.303, 1483.256 495.595 C 1484.104 509.231, 1487.716 513.767, 1499.434 515.913 C 1507.183 517.333, 1526.474 517.306, 1533.184 515.867 C 1539.830 514.442, 1545 509.731, 1545 505.100 C 1545 502.009, 1544.984 502, 1539.500 502 C 1534.774 502, 1534 502.266, 1534 503.889 C 1534 504.928, 1533.140 506.840, 1532.090 508.138 C 1530.311 510.334, 1529.362 510.521, 1518.313 510.847 C 1499.180 511.412, 1494.913 509.232, 1494.638 498.754 L 1494.500 493.500 1519.750 493.233 L 1545 492.966 1544.994 487.733 C 1544.983 476.783, 1541.020 470.095, 1533.408 468.178 C 1527.964 466.806, 1515.090 466.289, 1505 467.037 M 1580.241 467.131 C 1570.582 468.017, 1564.285 471.174, 1561.552 476.500 C 1559.833 479.850, 1559.500 482.368, 1559.500 492 C 1559.500 506.475, 1561.009 510.155, 1568.500 513.946 C 1573.263 516.357, 1574.307 516.477, 1590.500 516.488 C 1605.816 516.499, 1607.962 516.286, 1612.166 514.344 C 1617.548 511.856, 1619.532 509.212, 1620.492 503.250 L 1621.176 499 1615.780 499 L 1610.384 499 1609.442 503.250 C 1608.081 509.391, 1604.378 511.020, 1592 510.922 C 1580.562 510.831, 1575.416 509.438, 1572.606 505.673 C 1570.757 503.195, 1570.500 501.478, 1570.500 491.630 C 1570.500 474.365, 1572.695 472.537, 1592.684 473.156 C 1604.956 473.536, 1607.307 474.567, 1608.523 480.104 C 1609.119 482.820, 1609.464 483, 1614.079 483 L 1619 483 1619 479.400 C 1619 474.829, 1614.096 469.617, 1608.440 468.175 C 1603.157 466.829, 1589.176 466.311, 1580.241 467.131 M 1738.890 466.982 C 1734.947 467.373, 1730.811 468.504, 1728.640 469.785 L 1725 471.933 1725 469.466 C 1725 467.144, 1724.680 467, 1719.500 467 L 1714 467 1714 492 L 1714 517 1719.500 517 L 1725 517 1725 499.901 C 1725 479.535, 1725.736 477.030, 1732.482 474.454 C 1735.755 473.204, 1739.308 472.894, 1747.365 473.156 C 1762.919 473.662, 1762.418 472.871, 1762.809 497.525 L 1763.119 517 1768.650 517 L 1774.181 517 1773.826 497.250 C 1773.428 475.067, 1772.770 472.542, 1766.624 469.626 C 1760.996 466.955, 1749.865 465.894, 1738.890 466.982 M 1812 466.985 C 1802.615 467.616, 1796.826 469.860, 1793.767 474.052 C 1789.611 479.749, 1789.265 500.524, 1793.196 508.334 C 1794.598 511.118, 1796.410 512.756, 1799.813 514.314 C 1803.976 516.219, 1806.288 516.461, 1820.500 516.479 C 1839.362 516.504, 1842.903 515.902, 1847.461 511.900 C 1851.969 507.942, 1853.436 501.468, 1852.798 488.344 C 1852.114 474.263, 1849.575 470.293, 1839.843 468.095 C 1833.939 466.761, 1822.259 466.295, 1812 466.985 M 1918 467 C 1906.942 467.724, 1902.298 469.946, 1899.190 476 C 1897.070 480.129, 1896.907 481.532, 1897.219 493 C 1897.630 508.132, 1898.830 511.107, 1905.821 514.338 C 1910.053 516.293, 1912.171 516.500, 1928 516.500 C 1943.829 516.500, 1945.947 516.293, 1950.179 514.338 C 1956.980 511.195, 1958.327 508.040, 1958.821 494.098 C 1959.421 477.186, 1957.026 471.429, 1948.237 468.660 C 1942.688 466.911, 1929.998 466.215, 1918 467 M 1994.500 466.997 C 1977.728 468.862, 1973.477 474.411, 1974.150 493.555 C 1974.592 506.105, 1976.530 510.367, 1983.403 513.905 C 1992.306 518.486, 2016.101 517.855, 2022.439 512.869 L 2025 510.855 2024.944 516.177 C 2024.804 529.318, 2021.330 532.004, 2004.500 531.984 C 1991.783 531.968, 1989.001 530.992, 1987.374 525.974 C 1986.303 522.672, 1985.993 522.485, 1981.124 522.198 L 1976 521.895 1976 524.997 C 1976 529.606, 1978.453 533.513, 1982.575 535.468 C 1990.712 539.330, 2017.309 539.191, 2026.140 535.241 C 2034.804 531.365, 2034.462 532.840, 2034.791 497.897 L 2035.082 467 2030.041 467 C 2025.118 467, 2025 467.069, 2025 469.970 L 2025 472.940 2021.437 470.522 C 2016.740 467.334, 2005.127 465.815, 1994.500 466.997 M 1175 492 L 1175 517 1180 517 L 1185 517 1185 492 L 1185 467 1180 467 L 1175 467 1175 492 M 2044.167 467.949 C 2044.350 468.471, 2050.107 479.702, 2056.960 492.907 C 2065.633 509.620, 2069.977 517.005, 2071.253 517.208 C 2072.940 517.477, 2072.863 517.936, 2070.293 522.949 C 2066.971 529.430, 2063.573 532.153, 2058.634 532.293 C 2055.383 532.386, 2055 532.679, 2055 535.082 C 2055 538.458, 2057.320 539.169, 2064.522 537.996 C 2071.667 536.833, 2075.516 534.688, 2078.471 530.222 C 2079.825 528.175, 2085.720 514.125, 2091.571 499 C 2097.422 483.875, 2102.601 470.488, 2103.080 469.250 C 2103.921 467.077, 2103.754 467, 2098.224 467 L 2092.498 467 2085.076 487.750 C 2080.995 499.163, 2077.312 508.898, 2076.892 509.385 C 2076.472 509.872, 2071.267 500.535, 2065.325 488.635 L 2054.522 467 2049.177 467 C 2046.238 467, 2043.983 467.427, 2044.167 467.949 M 345.404 474.382 C 341.042 476.343, 338.980 482.009, 339.076 491.770 C 339.167 500.970, 340.662 505.658, 344.394 508.445 C 346.793 510.236, 348.605 510.500, 358.500 510.500 C 371.061 510.500, 374.008 509.369, 376.914 503.431 C 378.844 499.490, 378.866 484.446, 376.948 480.590 C 374.072 474.809, 370.970 473.527, 359.180 473.245 C 351.721 473.067, 347.566 473.410, 345.404 474.382 M 624.404 474.382 C 620.042 476.343, 617.980 482.009, 618.076 491.770 C 618.167 500.970, 619.662 505.658, 623.394 508.445 C 625.793 510.236, 627.605 510.500, 637.500 510.500 C 650.020 510.500, 653.009 509.364, 655.872 503.519 C 657.743 499.701, 657.770 484.359, 655.913 480.566 C 653.100 474.821, 649.965 473.526, 638.180 473.245 C 630.721 473.067, 626.566 473.410, 624.404 474.382 M 702.329 474.458 C 698.738 476.020, 697.483 477.910, 696.477 483.268 L 695.777 487 715.889 487 C 729.355 487, 736 486.651, 736 485.943 C 736 485.361, 735.492 482.868, 734.871 480.402 C 733.256 473.988, 730.808 472.991, 716.800 473.039 C 709.474 473.065, 704.385 473.563, 702.329 474.458 M 1298.325 474.459 C 1293.451 476.579, 1292.074 479.586, 1291.406 489.572 C 1290.303 506.051, 1293.708 510.158, 1308.936 510.715 C 1320.281 511.130, 1326.723 509.006, 1329.306 504 C 1330.780 501.144, 1331.052 498.628, 1330.784 490.330 C 1330.420 479.070, 1329.431 476.965, 1323.282 474.362 C 1319.011 472.554, 1302.557 472.618, 1298.325 474.459 M 1500.329 474.458 C 1496.723 476.026, 1495.524 477.900, 1494.702 483.250 L 1494.126 487 1514.191 487 L 1534.256 487 1533.596 482.875 C 1532.716 477.372, 1531.384 475.097, 1528.374 473.952 C 1524.484 472.473, 1504.044 472.842, 1500.329 474.458 M 1807.242 474.494 C 1802.821 476.415, 1801.737 479.693, 1801.618 491.500 C 1801.452 507.898, 1803.329 510.150, 1817.720 510.812 C 1829.575 511.357, 1835.361 510.453, 1838.769 507.523 C 1841.471 505.200, 1841.500 505.045, 1841.500 492.743 C 1841.500 478.786, 1840.555 475.738, 1835.707 474.048 C 1831.197 472.475, 1811.164 472.789, 1807.242 474.494 M 1913.384 474.434 C 1911.370 475.311, 1909.868 476.941, 1909.134 479.044 C 1907.592 483.467, 1907.695 501.830, 1909.279 505 C 1911.504 509.454, 1916.320 510.997, 1928 510.997 C 1939.680 510.997, 1944.496 509.454, 1946.721 505 C 1948.306 501.829, 1948.407 483.467, 1946.865 479.042 C 1945.187 474.228, 1941.259 472.992, 1927.782 473.039 C 1920.566 473.064, 1915.377 473.567, 1913.384 474.434 M 1991.014 474.752 C 1985.992 477.270, 1985.032 480, 1985.015 491.800 C 1984.991 508.304, 1987.302 510.519, 2004.500 510.473 C 2020.567 510.430, 2024.052 507.287, 2024.237 492.670 C 2024.442 476.374, 2021.029 473.060, 2004 473.024 C 1996.920 473.008, 1993.612 473.448, 1991.014 474.752 M 186.794 494.549 C 183.614 496.275, 182.328 501.102, 183.927 505.309 C 185.482 509.399, 190.293 511, 201.025 511 C 216.345 511, 222 508.496, 222 501.712 C 222 494.566, 218.281 492.985, 201.601 493.040 C 192.916 493.069, 188.736 493.495, 186.794 494.549 M 546 493.672 C 541.204 495.555, 539.602 500.837, 542.138 506.403 C 543.727 509.890, 547.781 511.001, 558.899 510.994 C 570.406 510.988, 575.218 509.810, 577.955 506.331 C 580.654 502.899, 580.538 499.738, 577.589 496.306 C 575.182 493.505, 575.154 493.500, 561.339 493.291 C 553.728 493.177, 546.825 493.348, 546 493.672 M 907.794 494.549 C 903.208 497.038, 903.047 505.305, 907.513 509.010 C 909.842 510.944, 927.621 511.627, 934.655 510.053 C 940.555 508.732, 943 506.288, 943 501.712 C 943 494.566, 939.281 492.985, 922.601 493.040 C 913.916 493.069, 909.736 493.495, 907.794 494.549" stroke="none" fill="#f7f8f8" fill-rule="evenodd"/></svg>