<svg xmlns="http://www.w3.org/2000/svg" width="1556" height="2000" viewBox="0 0 1556 2000" version="1.1"><path d="M 1327.294 796.819 C 1325.775 797.757, 1326.897 803, 1328.617 803 C 1329.481 803, 1330 801.896, 1330 800.059 C 1330 796.874, 1329.048 795.734, 1327.294 796.819 M 522.203 800.733 C 520.469 801.921, 519.624 802.024, 518.753 801.153 C 517.425 799.825, 514.619 799.574, 515.410 800.855 C 515.701 801.325, 514.823 802.757, 513.459 804.038 C 511.165 806.193, 510.106 806.372, 499.298 806.434 L 487.616 806.500 482.243 816.858 C 479.257 822.613, 477.129 827.895, 477.455 828.745 C 478.740 832.092, 495.012 827.529, 497.758 823.052 C 499.124 820.825, 502.157 820.216, 501.750 822.250 C 501.436 823.819, 503.724 823.526, 516 820.421 C 528.117 817.356, 531.643 817.383, 537.365 820.580 C 542.411 823.401, 543.438 824.483, 542.502 825.996 C 542.113 826.626, 540.842 826.453, 539.048 825.525 C 537.487 824.718, 534.353 823.760, 532.083 823.397 C 529.813 823.034, 527.714 822.346, 527.419 821.869 C 526.706 820.716, 519.892 820.783, 518.029 821.961 C 516.196 823.120, 516.062 823.027, 524.500 826.485 C 533.973 830.366, 538.838 833.905, 543 839.939 C 553.767 855.547, 555.509 856.955, 564.200 857.070 C 567.115 857.109, 570.400 857.503, 571.500 857.947 C 572.600 858.390, 574.023 858.336, 574.663 857.826 C 575.397 857.241, 577.101 857.433, 579.291 858.348 C 583.125 859.950, 585.170 862.119, 582.086 861.312 C 580.312 860.848, 580.242 861.132, 581.144 865.144 C 582.310 870.336, 585.371 877.493, 586.804 878.379 C 588.253 879.274, 604.324 882.010, 604.878 881.455 C 605.129 881.204, 605.407 879.987, 605.496 878.750 C 605.761 875.049, 609.128 875.502, 613.865 879.875 C 616.223 882.052, 618.254 884.524, 618.378 885.369 C 618.654 887.251, 621.564 890.548, 625.294 893.207 L 628.088 895.199 627.436 892.599 C 626.507 888.900, 628.386 889.329, 631.608 893.552 C 633.551 896.101, 634.540 896.745, 635.105 895.830 C 635.693 894.879, 636.074 895.028, 636.609 896.423 C 637.087 897.669, 636.742 898.715, 635.572 899.571 C 634.512 900.346, 634.043 901.574, 634.386 902.677 C 635.062 904.847, 633.632 907.508, 632.248 906.654 C 631.676 906.300, 631.048 908.533, 630.728 912.063 C 630.428 915.369, 629.701 918.656, 629.111 919.366 C 628.522 920.076, 627.673 922.421, 627.225 924.578 C 626.616 927.509, 625.921 928.500, 624.475 928.500 C 621.855 928.500, 617 933.754, 617 936.589 C 617 939.399, 618.622 940.558, 620.442 939.048 C 621.486 938.181, 622.219 938.458, 623.648 940.259 C 627.087 944.594, 628.358 944.723, 627.596 940.659 C 626.690 935.830, 627.994 933.705, 634.363 929.631 C 640.632 925.621, 644 921.660, 644 918.299 C 644 915.136, 645.522 912.259, 649.316 908.250 C 652.895 904.469, 653.743 904.254, 654.180 907.017 C 654.498 909.022, 654.521 909.023, 658.080 907.106 C 663.072 904.418, 671.644 902, 676.182 902 C 680.333 902, 682.844 900.136, 685.432 895.132 C 686.278 893.496, 688.439 891.134, 690.235 889.884 C 692.031 888.633, 695.268 886.123, 697.430 884.305 C 699.591 882.487, 702.066 881.014, 702.930 881.032 C 705.261 881.079, 708 883.476, 708 885.467 C 708 886.688, 708.503 887.021, 709.670 886.573 C 710.589 886.221, 711.653 886.439, 712.036 887.058 C 713.223 888.980, 716.829 879.851, 717.175 874.047 L 717.500 868.595 713.016 867.293 C 709.503 866.273, 707.276 866.238, 702.735 867.132 C 699.547 867.759, 696.645 867.978, 696.286 867.619 C 695.075 866.408, 697.641 864.937, 701.583 864.583 C 707.787 864.026, 705.686 862.528, 698.262 862.214 C 692.874 861.986, 690.840 862.339, 688.250 863.949 C 686.462 865.061, 685 866.427, 685 866.985 C 685 868.380, 687.743 868.271, 688.214 866.857 C 688.497 866.010, 689.183 866.028, 690.859 866.924 C 693.693 868.441, 693.094 870.559, 689.899 870.321 C 685.396 869.986, 684.263 870.935, 686.844 872.882 C 688.998 874.507, 689.090 874.952, 688.060 878.778 C 686.934 882.958, 685 885.385, 685 882.618 C 685 881.793, 685.390 880.877, 685.866 880.583 C 686.342 880.289, 686.500 878.833, 686.216 877.348 L 685.700 874.648 683.398 877.324 C 680.776 880.372, 680 880.640, 680 878.500 C 680 876.673, 680.349 876.674, 673.393 878.486 C 667.379 880.052, 663.615 882.568, 664.688 884.304 C 665.078 884.935, 664.690 885.095, 663.696 884.714 C 662.798 884.369, 661.798 884.518, 661.473 885.044 C 660.479 886.652, 656.128 886.107, 655.133 884.249 C 654.618 883.286, 654.045 880.739, 653.859 878.590 L 653.523 874.682 661.511 870.558 C 665.905 868.289, 671.969 864.761, 674.987 862.716 C 678.004 860.672, 681.042 859, 681.737 859 C 683.962 859, 683.090 860.902, 680.175 862.410 C 675.899 864.621, 670 871.632, 670 874.503 C 670 876.598, 670.472 877, 672.935 877 C 676.526 877, 681.534 875.201, 680.585 874.252 C 680.204 873.871, 678.342 873.693, 676.446 873.856 C 672.421 874.203, 672.288 873.809, 675.097 869.863 C 677.191 866.923, 677.198 866.922, 678.965 868.959 C 681.082 871.401, 682.455 871.627, 681.598 869.394 C 680.675 866.990, 687.556 861.209, 693.408 859.471 C 700.667 857.316, 707.555 857.658, 714.500 860.519 C 717.800 861.879, 720.581 862.993, 720.679 862.995 C 721.075 863.006, 724 852.083, 724 850.596 C 724 849.374, 722.959 849, 719.559 849 C 714.602 849, 712.419 847.314, 716.733 846.818 C 721.039 846.323, 721.090 842.478, 716.816 840.611 L 713.500 839.163 716.500 839.050 C 718.150 838.987, 720.374 838.276, 721.441 837.468 C 722.509 836.661, 724.405 836, 725.656 836 C 728.119 836, 730 833.399, 730 829.992 C 730 827.126, 726.948 827.719, 725.366 830.894 C 723.850 833.933, 722.181 834.966, 718.750 834.985 C 716.684 834.996, 716 834.515, 716 833.047 C 716 830.647, 713.983 826.054, 712.839 825.850 C 710.100 825.360, 709.500 825.747, 709.500 828 C 709.500 829.831, 708.898 830.585, 707.250 830.820 C 705.834 831.021, 705 831.831, 705 833.006 C 705 834.367, 704.147 834.958, 701.851 835.187 C 698.057 835.564, 695.705 838.532, 698 840.047 C 699.295 840.902, 699.226 841.257, 697.500 842.634 C 696.131 843.726, 695.890 844.376, 696.737 844.694 C 697.417 844.949, 698.992 845.990, 700.237 847.007 L 702.500 848.857 700 849.802 C 698.625 850.323, 697.275 850.410, 697 849.997 C 696.428 849.136, 688.253 847.457, 686 847.737 C 682.437 848.179, 677.735 845.490, 672.985 840.293 C 669.275 836.234, 667.586 835.014, 666.785 835.815 C 665.985 836.615, 665.988 837.280, 666.797 838.255 C 667.664 839.300, 667.204 839.960, 664.704 841.257 C 656.061 845.743, 649.443 848, 644.935 848 C 636.889 848, 638.476 846.282, 647.755 844.949 C 657.944 843.484, 660 842.647, 660 839.965 C 660 838.884, 660.438 838, 660.974 838 C 661.510 838, 662.673 836.598, 663.559 834.885 C 665.787 830.578, 664.198 829.300, 659.884 831.930 C 655.146 834.818, 652.250 834.523, 646.352 830.551 C 643.535 828.654, 640.954 827.379, 640.615 827.718 C 640.277 828.056, 640 827.428, 640 826.322 C 640 823.429, 636.760 820.912, 632.260 820.308 C 628.573 819.814, 628.143 820.052, 624.183 824.782 C 621.882 827.529, 620 830.272, 620 830.876 C 620 831.480, 623.150 833.561, 627 835.500 C 630.850 837.439, 634 839.293, 634 839.621 C 634 840.548, 628.676 838.993, 627 837.577 C 626.175 836.880, 623.692 835.611, 621.482 834.756 C 618.047 833.427, 617.087 833.399, 614.872 834.559 C 610.438 836.882, 605.747 834.810, 600.110 828.037 L 595.228 822.170 592.234 825.335 C 590.587 827.076, 588.764 829.430, 588.183 830.567 C 586.606 833.649, 573.995 848.318, 570.157 851.533 C 567.007 854.173, 566.603 854.260, 563.157 853.054 C 557.874 851.204, 552.304 845.432, 550.469 839.906 C 548.537 834.089, 547.931 817.020, 549.596 815.300 C 550.822 814.033, 552.494 805.161, 551.664 804.331 C 551.397 804.064, 547.426 803.484, 542.839 803.042 C 538.253 802.600, 533.375 801.801, 532 801.266 C 526.940 799.297, 524.494 799.163, 522.203 800.733 M 532.028 804.902 C 530.732 805.774, 530.732 805.948, 532.028 806.357 C 535.668 807.507, 543.091 809, 545.165 809 L 547.444 809 545.306 806.861 C 542.916 804.472, 534.511 803.232, 532.028 804.902 M 428 809.708 C 410.082 812.571, 408.457 813.001, 412 813.934 C 414.109 814.489, 414.227 814.697, 412.750 815.265 C 410.634 816.078, 410.425 818, 412.453 818 C 417.607 818, 421.261 822.949, 418.422 826.086 C 417.069 827.582, 417.146 827.808, 419.210 828.373 C 421.116 828.895, 421.248 829.165, 420 829.985 C 418.782 830.784, 418.923 830.972, 420.750 830.985 C 421.988 830.993, 423 830.550, 423 830 C 423 828.739, 429.681 828.675, 430.456 829.929 C 430.771 830.439, 430.010 831.053, 428.765 831.292 C 427.292 831.575, 427.769 831.775, 430.128 831.864 C 432.130 831.939, 434.263 831.388, 434.890 830.633 C 436.173 829.086, 435.689 828.597, 430 825.704 C 428.075 824.725, 425.375 823.051, 424 821.984 L 421.500 820.044 426.500 820.016 C 429.250 820, 432.830 819.294, 434.455 818.447 C 436.081 817.599, 439.367 816.637, 441.758 816.310 C 445.544 815.791, 446.357 815.221, 448.053 811.897 C 449.124 809.797, 450 807.837, 450 807.540 C 450 806.573, 443.780 807.186, 428 809.708 M 569.712 810.012 C 567.839 811.485, 566.753 813.826, 565.654 818.762 C 563.750 827.304, 562.582 838.515, 563.449 839.918 C 564.614 841.803, 570.744 835.913, 576.470 827.407 C 582.153 818.963, 585 815.803, 585 817.937 C 585 818.586, 585.489 818.816, 586.087 818.446 C 586.840 817.981, 586.854 817.454, 586.134 816.734 C 585.413 816.013, 585.419 815.085, 586.152 813.716 C 587.140 811.870, 586.971 811.783, 583.605 812.414 C 581.255 812.855, 580 812.711, 580 812 C 580 811.287, 578.738 811.146, 576.355 811.593 C 573.745 812.083, 572.911 811.954, 573.414 811.138 C 573.801 810.512, 574.879 809.993, 575.809 809.985 C 577.266 809.971, 577.293 809.835, 576 809 C 573.793 807.574, 572.559 807.773, 569.712 810.012 M 1212.729 813.450 C 1209.005 814.124, 1205.405 815.373, 1204.729 816.225 C 1203.941 817.217, 1198.296 818.726, 1189 820.428 C 1181.025 821.888, 1173.515 823.290, 1172.311 823.545 C 1169.496 824.140, 1168.424 822.447, 1170.729 821.048 C 1172.695 819.854, 1171.166 820.087, 1161 822.531 C 1157.975 823.258, 1147.855 825.271, 1138.512 827.003 C 1129.168 828.736, 1121.293 830.456, 1121.012 830.827 C 1120.730 831.197, 1119.825 831.500, 1119 831.500 C 1118.047 831.500, 1117.510 832.442, 1117.526 834.083 C 1117.541 835.504, 1117.040 836.667, 1116.414 836.667 C 1115.787 836.667, 1115.490 835.842, 1115.754 834.833 C 1116.065 833.644, 1115.694 833, 1114.700 833 C 1111.458 833, 1063.144 850.467, 1062 852.052 C 1060.257 854.468, 1035.500 865.092, 1033.392 864.329 C 1032.069 863.850, 1020.253 867.680, 1010.500 871.748 C 1006.650 873.354, 1002.337 874.958, 1000.915 875.312 C 998.966 875.797, 998.025 876.974, 997.088 880.100 C 995.748 884.572, 992.015 889, 989.584 889 C 988.756 889, 987.222 888.081, 986.175 886.958 C 984.366 885.016, 984.058 884.991, 979.886 886.443 C 977.474 887.284, 974.712 887.977, 973.750 887.985 C 972.788 887.993, 972 888.423, 972 888.941 C 972 890.624, 973.911 891.118, 976.031 889.983 C 977.171 889.373, 979.092 889.049, 980.302 889.263 C 983.258 889.786, 974.786 893.709, 962.259 897.617 C 957.176 899.203, 953.013 900.986, 953.009 901.581 C 953.004 902.175, 951.936 904.762, 950.636 907.331 C 947.800 912.932, 947.234 912.805, 962.535 909.993 C 971.195 908.403, 973.915 907.493, 975.669 905.601 C 977.456 903.674, 979.289 903.085, 985.191 902.541 C 1001.790 901.010, 1026.314 890.606, 1052 874.199 C 1055.575 871.915, 1060.256 869.092, 1062.401 867.926 C 1065.011 866.507, 1065.896 865.554, 1065.073 865.045 C 1063.231 863.906, 1073.589 856.560, 1080.683 853.975 C 1083.243 853.042, 1083.135 853.267, 1079.500 856.437 C 1075.114 860.261, 1075.372 860.883, 1080.300 858.363 C 1083.489 856.732, 1083.494 856.733, 1081.693 858.755 C 1080.699 859.871, 1076.517 863.193, 1072.400 866.137 C 1068.008 869.278, 1064.678 872.433, 1064.342 873.772 C 1063.913 875.483, 1063.451 875.790, 1062.497 874.997 C 1060.748 873.546, 1055.724 875.837, 1056.458 877.751 C 1057.311 879.974, 1055.345 882.619, 1051.788 884.033 C 1049.980 884.752, 1044.767 887.794, 1040.205 890.792 C 1035.643 893.791, 1031.723 896.056, 1031.494 895.827 C 1031.265 895.598, 1034.660 892.992, 1039.039 890.036 C 1043.417 887.080, 1047 884.062, 1047 883.330 C 1047 882.599, 1046.727 882, 1046.394 882 C 1046.061 882, 1040.793 885.010, 1034.688 888.688 C 1028.582 892.367, 1017.963 898.217, 1011.089 901.688 C 1004.215 905.160, 999.021 907.997, 999.546 907.994 C 1001.525 907.982, 1011.581 906.129, 1013.500 905.423 C 1015.025 904.862, 1014.904 905.140, 1012.989 906.594 C 1009.075 909.564, 1007.003 910.755, 999.750 914.203 C 992.436 917.680, 991.105 919.274, 996.250 918.394 C 1000.201 917.718, 1020.426 907.919, 1024.261 904.823 C 1027.998 901.805, 1038.803 900.986, 1042.544 903.437 C 1044.968 905.025, 1045.272 904.996, 1048.796 902.847 C 1051.417 901.248, 1052.108 901.075, 1051.160 902.255 C 1050.423 903.172, 1048.960 904.195, 1047.910 904.529 C 1045.420 905.319, 1045.486 906.654, 1048.083 908.045 C 1049.745 908.934, 1050.554 908.809, 1052.083 907.425 C 1053.137 906.471, 1054 906.155, 1054 906.723 C 1054 907.290, 1053.303 908.333, 1052.452 909.040 C 1049.991 911.083, 1051.151 914.313, 1055.106 916.431 C 1058.267 918.123, 1059.101 918.201, 1061.856 917.060 C 1064.846 915.821, 1066.534 912.474, 1063.601 913.600 C 1062.832 913.895, 1061.921 913.681, 1061.576 913.124 C 1061.232 912.567, 1064.449 909.179, 1068.725 905.594 C 1074.425 900.817, 1077.301 899.067, 1079.500 899.039 C 1081.150 899.017, 1085.875 898.354, 1090 897.564 C 1097.318 896.164, 1099.161 895.698, 1102.750 894.336 C 1103.713 893.971, 1104.725 893.630, 1105 893.577 C 1105.660 893.450, 1119.799 884.799, 1128 879.505 C 1131.575 877.196, 1136.862 874.042, 1139.750 872.495 C 1142.638 870.948, 1145 869.277, 1145 868.782 C 1145 868.287, 1145.422 868.143, 1145.939 868.462 C 1146.455 868.781, 1147.341 868.245, 1147.908 867.271 C 1148.475 866.297, 1148.960 865.950, 1148.985 866.500 C 1149.011 867.079, 1149.340 867.034, 1149.765 866.392 C 1150.438 865.378, 1159.292 860.473, 1177.500 851.026 C 1186.928 846.134, 1192.986 842.200, 1193.615 840.560 C 1194.251 838.904, 1209.198 826.189, 1213.435 823.700 L 1216.500 821.900 1212 822.496 C 1207.648 823.073, 1182.086 831.107, 1178.962 832.880 C 1178.115 833.360, 1175.519 834.074, 1173.192 834.468 C 1168.206 835.310, 1165.688 837.442, 1166.533 840.105 C 1167.218 842.261, 1166.686 842.437, 1163.934 840.965 C 1162.601 840.251, 1162 840.251, 1162 840.965 C 1162 841.534, 1161.311 842, 1160.469 842 C 1159.626 842, 1158.642 842.788, 1158.281 843.750 C 1157.220 846.576, 1154.695 848.004, 1151.801 847.414 C 1149.778 847.001, 1148.779 847.381, 1147.811 848.932 C 1146.227 851.467, 1141.227 851.756, 1140.309 849.364 C 1139.344 846.848, 1141.123 844.854, 1148.217 840.500 C 1151.802 838.300, 1155.910 835.668, 1157.344 834.650 C 1162.068 831.301, 1174.261 826.898, 1189.951 822.874 C 1198.449 820.695, 1206.012 818.405, 1206.757 817.786 C 1207.503 817.168, 1211.575 815.637, 1215.807 814.384 C 1224.250 811.885, 1223.175 811.559, 1212.729 813.450 M 408.492 829.348 C 401.978 833.084, 399.311 836.437, 403.666 835.415 C 406.103 834.843, 412.753 832.208, 413.869 831.372 C 414.269 831.072, 411.350 827.937, 410.821 828.098 C 410.645 828.152, 409.596 828.714, 408.492 829.348 M 339.750 832.771 C 337.137 833.640, 335 834.758, 335 835.255 C 335 836.494, 340.744 835.155, 345 832.923 C 349.420 830.606, 346.512 830.522, 339.750 832.771 M 345.500 835.072 C 343.110 836.221, 342.506 836.774, 344 836.444 C 345.375 836.140, 343.800 837.258, 340.500 838.928 C 334.599 841.914, 334.477 841.931, 333.128 839.982 C 332.373 838.892, 330.897 838, 329.847 838 C 327.542 838, 326.293 840.693, 327.867 842.267 C 329.656 844.056, 329.222 844.740, 326 845.213 C 323.953 845.514, 323 845.232, 323 844.327 C 323 843.597, 322.325 843, 321.500 843 C 320.567 843, 320 843.944, 320 845.500 C 320 846.875, 319.460 848, 318.800 848 C 317.881 848, 317.875 848.275, 318.775 849.175 C 320.538 850.938, 331.780 850.149, 337.024 847.894 C 339.512 846.824, 341.987 844.947, 342.524 843.724 C 343.453 841.607, 344.064 841.500, 355.262 841.500 C 364.039 841.500, 366.907 841.194, 366.560 840.293 C 366.216 839.398, 366.746 839.333, 368.613 840.043 C 371.661 841.202, 375 841.291, 375 840.214 C 375 839.782, 374.212 839.381, 373.250 839.322 C 368.076 839.007, 355 836.481, 355 835.796 C 355 835.358, 354.325 835, 353.500 835 C 352.675 835, 352 834.550, 352 834 C 352 832.559, 350.061 832.879, 345.500 835.072 M 1131.896 835.914 C 1133.599 836.993, 1132.632 840, 1130.581 840 C 1129.766 840, 1128.694 839.276, 1128.199 838.391 C 1127.380 836.928, 1127.239 836.936, 1126.646 838.481 C 1125.226 842.182, 1129.188 843.288, 1132.950 840.241 C 1135.389 838.267, 1134.882 834.990, 1132.143 835.015 C 1130.805 835.028, 1130.759 835.194, 1131.896 835.914 M 1104 839.513 C 1099.875 840.784, 1094.700 842.507, 1092.500 843.341 C 1085.580 845.967, 1090.265 845.129, 1100 842 C 1105.134 840.350, 1109.907 839, 1110.608 839 C 1111.309 839, 1112.160 838.550, 1112.500 838 C 1113.302 836.702, 1112.886 836.776, 1104 839.513 M 758.643 842.511 C 759.039 843.543, 758.762 843.846, 757.772 843.466 C 755.726 842.681, 753.891 845.279, 753.562 849.425 C 753.408 851.367, 752.714 853.640, 752.019 854.478 C 750.955 855.759, 751.090 856, 752.878 856 C 754.045 856, 755 855.550, 755 855 C 755 853.703, 760.057 853.732, 762 855.041 C 763.246 855.880, 762.846 856.613, 759.633 859.374 L 755.765 862.697 758.883 864.916 C 760.597 866.137, 762 867.906, 762 868.848 C 762 870.259, 761.138 870.524, 757.097 870.355 C 752.851 870.178, 752.100 870.442, 751.491 872.325 C 750.258 876.143, 750.419 877.449, 752.406 879.750 C 754.778 882.497, 756 882.619, 756 880.107 C 756 878.091, 757.801 877.027, 761.332 876.957 C 765.001 876.883, 771.087 872.687, 773.612 868.491 C 779.941 857.971, 780.430 853.923, 775.500 852.875 C 773.850 852.524, 772.950 852.183, 773.500 852.117 C 774.050 852.051, 772.952 851.210, 771.060 850.248 C 767.160 848.267, 765.928 846.039, 768.667 845.921 C 769.924 845.867, 769.635 845.526, 767.750 844.838 C 766.237 844.285, 765 843.196, 765 842.417 C 765 841.467, 763.857 841, 761.531 841 C 758.847 841, 758.194 841.342, 758.643 842.511 M 1128.092 844.984 C 1120.542 848.991, 1117.714 851, 1119.622 851 C 1120.983 851, 1130.851 845.530, 1134 843.029 C 1137.603 840.168, 1136.442 840.553, 1128.092 844.984 M 591.769 843.447 C 587.240 844.917, 587.013 847.519, 591.292 848.931 C 593.163 849.549, 596.783 851.379, 599.337 852.999 C 602.982 855.310, 604.465 855.748, 606.240 855.035 C 607.483 854.535, 607.952 854.098, 607.281 854.063 C 606.611 854.029, 606.306 853.366, 606.604 852.590 C 606.929 851.743, 606.318 850.918, 605.072 850.523 C 601.871 849.507, 602.612 848.156, 606.750 847.463 C 608.813 847.118, 610.879 846.747, 611.343 846.637 C 611.806 846.528, 608.322 845.528, 603.599 844.416 C 596.848 842.827, 594.319 842.620, 591.769 843.447 M 618.500 844.651 C 620.433 846.184, 620.408 846.216, 617.750 845.600 C 614.292 844.798, 614.156 846.294, 617.547 847.839 C 620.745 849.296, 624 849.338, 624 847.922 C 624 847.305, 625.390 846.984, 627.250 847.172 C 629.038 847.352, 630.639 847.074, 630.808 846.554 C 631.188 845.385, 623.576 843.024, 619.500 843.047 C 616.586 843.063, 616.557 843.109, 618.500 844.651 M 301.942 846.487 C 300.404 848.024, 256.104 865, 253.628 865 C 251.573 865, 234.725 872.207, 231.915 874.289 L 229.500 876.077 233.023 875.536 C 235.362 875.176, 237.305 875.526, 238.803 876.574 C 240.917 878.055, 241.575 877.937, 249.279 874.698 C 253.801 872.796, 264.331 868.444, 272.680 865.026 C 281.029 861.608, 288.591 858.004, 289.484 857.017 C 290.378 856.030, 294.418 853.780, 298.462 852.016 C 303.147 849.974, 305.997 848.119, 306.315 846.905 C 306.928 844.559, 304.137 844.292, 301.942 846.487 M 311 847.031 C 311 849.319, 313.627 850.773, 315.100 849.300 C 316.536 847.864, 315.066 845, 312.893 845 C 311.657 845, 311 845.705, 311 847.031 M 761.641 849.492 C 760.997 851.173, 765.581 854, 768.950 854 C 771.528 854, 771.514 853.606, 768.820 850.508 C 766.404 847.729, 762.528 847.181, 761.641 849.492 M 1134.544 848.929 C 1134.229 849.439, 1134.990 850.053, 1136.235 850.292 C 1137.680 850.570, 1137.164 850.777, 1134.809 850.864 C 1130.225 851.033, 1129.331 852.334, 1131.714 855.363 C 1134.942 859.467, 1139 855.853, 1139 848.875 C 1139 847.706, 1135.272 847.751, 1134.544 848.929 M 656.500 856.742 C 654.300 856.965, 651.825 857.748, 651 858.481 C 649.117 860.154, 643.265 861.676, 635.500 862.512 C 628.338 863.283, 623 864.805, 623 866.078 C 623 866.585, 620.750 867, 618 867 C 615.250 867, 613 867.220, 613 867.489 C 613 867.757, 613.775 868.882, 614.722 869.989 C 616.565 872.140, 620.459 872.685, 621.536 870.941 C 622.326 869.664, 627.856 870.677, 630 872.493 C 634.277 876.116, 639.561 874.837, 648.642 867.981 C 651.519 865.808, 656.264 862.949, 659.187 861.627 C 662.109 860.305, 665.400 858.513, 666.500 857.644 C 668.407 856.137, 668.315 856.070, 664.500 856.200 C 662.300 856.275, 658.700 856.519, 656.500 856.742 M 750.688 857.646 C 749.210 859.123, 750.032 863.947, 751.934 864.965 C 754.505 866.341, 755.286 866.271, 754.346 864.750 C 753.921 864.063, 753.557 862.188, 753.536 860.584 C 753.501 857.741, 752.069 856.264, 750.688 857.646 M 707 863.368 C 707 864.174, 708.542 864.988, 710.750 865.348 C 712.813 865.685, 715.737 866.247, 717.250 866.597 C 719.309 867.073, 720 866.857, 720 865.735 C 720 864.797, 718.339 863.819, 715.557 863.119 C 709.647 861.630, 707 861.708, 707 863.368 M 851 863.639 C 851 864.150, 849.693 865.341, 848.096 866.284 C 844.652 868.319, 841.541 868.583, 842.613 866.750 C 843.015 866.063, 842.397 866.330, 841.239 867.344 C 839.724 868.672, 838.310 869.007, 836.191 868.542 C 833.181 867.881, 830.025 869.800, 829.978 872.321 C 829.966 872.970, 829.076 874.625, 828 876 C 825.633 879.026, 825.459 880.421, 827.549 879.620 C 828.906 879.099, 828.894 879.371, 827.451 881.813 C 825.943 884.366, 825.935 885.043, 827.358 889.835 C 828.808 894.715, 828.797 895.048, 827.206 894.784 C 825.298 894.466, 824.887 898.717, 824.633 921.382 L 824.500 933.263 830 934.703 C 833.025 935.494, 838.518 936.729, 842.207 937.447 C 848.189 938.610, 849.069 938.576, 850.336 937.126 C 851.634 935.640, 852.650 932.021, 853.371 926.315 C 853.523 925.113, 854.118 923.538, 854.693 922.815 C 855.269 922.092, 856.020 919.925, 856.364 918 L 856.988 914.500 846.244 911.536 C 836.594 908.874, 824.221 903.931, 831 905.446 C 832.375 905.753, 839.296 907.218, 846.381 908.700 L 859.262 911.395 861.224 908.947 C 862.304 907.601, 865.170 904.395, 867.593 901.822 L 872 897.144 877.500 897.712 C 881.785 898.154, 883.014 897.973, 883.063 896.890 C 883.098 896.125, 883.512 896.455, 883.984 897.622 C 884.455 898.788, 886.025 900.040, 887.472 900.404 C 889.568 900.930, 890.786 900.421, 893.452 897.906 C 895.294 896.169, 897.059 893.455, 897.375 891.874 C 897.691 890.293, 898.362 889, 898.867 889 C 900.010 889, 901.271 893.752, 900.472 895.046 C 900.147 895.571, 900.696 896.014, 901.691 896.032 C 903.433 896.062, 903.434 896.114, 901.697 897.431 C 900.460 898.369, 900.280 898.927, 901.124 899.208 C 901.854 899.451, 902.028 900.145, 901.552 900.916 C 900.969 901.859, 900.558 901.902, 900.045 901.073 C 899.008 899.395, 896 900.907, 896 903.107 C 896 905.469, 895.106 905.519, 893.420 903.250 C 892.321 901.771, 892.210 902.429, 892.698 907.500 C 893.016 910.800, 893.476 913.725, 893.721 914 C 893.966 914.275, 899.416 914.646, 905.833 914.825 L 917.500 915.150 918.750 912.376 C 920.388 908.741, 920.334 908.234, 918.250 907.689 C 916.773 907.303, 916.812 907.212, 918.500 907.105 C 919.939 907.014, 921.493 904.950, 924.041 899.748 C 928.459 890.728, 930.071 889.807, 940 890.630 C 947.634 891.263, 951.297 893.121, 952.859 897.154 C 953.428 898.623, 954.224 898.479, 959.986 895.859 C 964.524 893.795, 966.066 892.659, 965.123 892.076 C 963.993 891.378, 963.996 891.163, 965.137 890.758 C 965.887 890.492, 966.201 889.951, 965.836 889.556 C 965.470 889.161, 964.262 889.324, 963.151 889.919 C 960.166 891.517, 955.680 891.238, 950.287 889.119 C 946.315 887.559, 943.046 887.261, 931.083 887.369 C 920.535 887.465, 916.555 887.835, 916.250 888.750 C 915.591 890.727, 911.188 890.219, 910.017 888.031 C 909.437 886.949, 906.967 884.893, 904.527 883.463 C 902.088 882.033, 899.805 879.960, 899.454 878.856 C 899.104 877.752, 898.580 877.087, 898.290 877.377 C 897.616 878.051, 894.820 875.271, 893.492 872.608 C 892.149 869.915, 886.604 866.235, 882.099 865.047 C 876.907 863.678, 851 862.505, 851 863.639 M 1075.289 875.025 C 1071.926 878.199, 1070.324 879, 1067.339 879 C 1064.493 879, 1063.878 879.278, 1064.765 880.165 C 1066.132 881.532, 1063.638 883.915, 1060.785 883.968 C 1057.578 884.028, 1056.296 890, 1059.490 890 C 1060.294 890, 1060.619 889.260, 1060.319 888.113 C 1059.732 885.868, 1061.724 884.324, 1063.245 885.845 C 1064.005 886.605, 1063.945 887.362, 1063.035 888.458 C 1061.929 889.791, 1062.174 890, 1064.846 890 C 1067.325 890, 1067.810 889.669, 1067.295 888.326 C 1066.818 887.084, 1067.062 886.810, 1068.244 887.263 C 1069.186 887.625, 1070.072 887.254, 1070.417 886.355 C 1071.258 884.165, 1071.168 883.998, 1069.500 884.638 C 1068.675 884.955, 1068 884.786, 1068 884.262 C 1068 882.941, 1071.532 879.866, 1072.238 880.572 C 1073.741 882.075, 1083 875.097, 1083 872.461 C 1083 869.835, 1079.584 870.971, 1075.289 875.025 M 232.036 879.457 C 230.430 881.392, 232.240 884, 235.189 884 C 236.718 884, 237.065 883.416, 236.816 881.259 C 236.454 878.118, 233.935 877.169, 232.036 879.457 M 677.122 884.278 C 675.599 885.801, 675.704 888, 677.300 888 C 678.683 888, 681 886.063, 681 884.907 C 681 883.602, 678.245 883.155, 677.122 884.278 M 589.200 891.200 C 587.450 892.950, 587.731 895.351, 589.839 896.668 C 593.104 898.706, 596.150 894.293, 593.386 891.529 C 591.543 889.686, 590.774 889.626, 589.200 891.200 M 629.675 897.404 C 629.002 899.158, 629.951 903, 631.058 903 C 632.515 903, 633.078 901.160, 632.422 898.546 C 631.717 895.737, 630.508 895.234, 629.675 897.404 M 788.579 898.754 C 788.261 899.073, 788 900.277, 788 901.430 C 788 903.075, 789.129 903.893, 793.250 905.234 C 798.015 906.784, 796.830 906.873, 791.250 905.384 C 790.013 905.053, 789 905.229, 789 905.773 C 789 907.047, 798.150 913.025, 799.152 912.406 C 799.569 912.149, 799.817 909.631, 799.705 906.812 L 799.500 901.686 794.329 899.931 C 791.485 898.965, 788.897 898.436, 788.579 898.754 M 938.850 902 C 938.768 902.550, 938.655 903.563, 938.600 904.250 C 938.545 904.938, 938.227 905.725, 937.894 906 C 937.561 906.275, 936.969 908.235, 936.579 910.355 C 936.047 913.249, 936.184 914.105, 937.130 913.790 C 938.619 913.294, 940.206 908.223, 939.626 905.815 C 939.403 904.888, 939.846 903.889, 940.611 903.596 C 941.375 903.303, 942 902.599, 942 902.031 C 942 900.705, 939.049 900.675, 938.850 902 M 875.368 907.571 C 873.516 909.535, 872 911.540, 872 912.026 C 872 912.512, 873.624 913.214, 875.610 913.587 C 879.899 914.391, 880.962 913.237, 880.985 907.750 C 881.004 903.048, 879.674 903.005, 875.368 907.571 M 1032.339 911.870 C 1026.661 915.983, 1023.823 919.851, 1024.607 922.407 C 1024.960 923.558, 1025.394 924.664, 1025.573 924.865 C 1025.946 925.285, 1037.541 918.771, 1040.444 916.510 C 1042.367 915.012, 1042.366 914.967, 1040.383 912.311 C 1037.605 908.590, 1036.918 908.553, 1032.339 911.870 M 892 918.016 C 892 918.662, 891.086 920.475, 889.968 922.045 C 888.568 924.011, 888.136 925.695, 888.579 927.460 C 889.102 929.543, 888.921 929.907, 887.611 929.404 C 886.542 928.994, 886 929.326, 886 930.393 C 886 931.277, 885.325 932, 884.500 932 C 882.692 932, 882.567 933.167, 884.200 934.800 C 885.133 935.733, 884.719 936, 882.335 936 C 880.223 936, 877.672 937.299, 874.135 940.177 C 871.311 942.474, 869 944.724, 869 945.177 C 869 945.630, 872.038 946.039, 875.750 946.088 C 879.462 946.136, 884.750 946.499, 887.500 946.895 C 893.063 947.696, 896.995 946.217, 898.977 942.581 C 899.600 941.436, 901.548 939.825, 903.305 939 C 905.263 938.081, 906.502 936.757, 906.504 935.582 C 906.507 934.527, 907.182 933.458, 908.004 933.207 C 910.151 932.552, 915.015 927.834, 914.464 926.942 C 914.208 926.528, 910.287 926.406, 905.749 926.672 C 899.765 927.022, 897.912 926.863, 899 926.093 C 899.825 925.509, 903.087 925.024, 906.250 925.015 C 911.992 925, 913.846 923.721, 909.928 922.477 C 908.776 922.111, 908.077 921.241, 908.356 920.516 C 908.715 919.580, 907.255 919.030, 903.178 918.566 C 900.055 918.210, 896.263 917.677, 894.750 917.380 C 893.004 917.038, 892 917.270, 892 918.016 M 1007.432 921.584 C 1007.857 923.277, 1007.717 923.943, 1007.027 923.517 C 1006.448 923.159, 1004.689 923.507, 1003.118 924.291 C 1000.504 925.595, 1000.300 925.568, 1000.718 923.971 C 1001.421 921.283, 999.920 921.011, 993.792 922.717 C 988.348 924.232, 988.049 924.496, 985.111 930.393 C 980.987 938.669, 980.247 942, 982.532 942 C 984.503 942, 993.321 937.904, 993.833 936.750 C 994.017 936.337, 994.818 936, 995.615 936 C 996.411 936, 997.322 935.325, 997.638 934.500 C 997.956 933.672, 999.441 933, 1000.952 933 C 1004.225 933, 1006.067 931.079, 1008.787 924.827 C 1010.864 920.050, 1010.763 919, 1008.225 919 C 1007.174 919, 1006.959 919.700, 1007.432 921.584 M 1033.500 924.679 C 1030.750 926.578, 1025.974 929.428, 1022.886 931.012 C 1016.716 934.177, 1015.543 936.510, 1016.861 943 C 1017.435 945.828, 1018.084 946.560, 1020.243 946.812 C 1022.556 947.083, 1023.710 946.054, 1028.822 939.160 C 1034.330 931.731, 1039.697 922.325, 1038.864 921.561 C 1038.664 921.377, 1036.250 922.780, 1033.500 924.679 M 958 932.147 C 956.075 932.666, 949.469 933.041, 943.319 932.982 C 930.935 932.862, 929.614 933.530, 930.727 939.352 C 931.161 941.621, 931.688 942.083, 933.384 941.685 C 934.548 941.411, 940 940.070, 945.500 938.704 C 951 937.338, 957.295 935.833, 959.489 935.360 C 962.054 934.807, 963.598 933.875, 963.813 932.750 C 964.180 930.825, 963.264 930.730, 958 932.147 M 634.737 932.750 C 634.528 933.163, 634.273 934.841, 634.171 936.480 L 633.984 939.460 636.131 937.313 C 637.390 936.054, 638.027 934.512, 637.670 933.583 C 637.035 931.929, 635.391 931.462, 634.737 932.750 M 914 938.948 C 914 939.470, 912.875 941.111, 911.500 942.595 C 908.286 946.063, 908.352 946.678, 912 947.213 C 914.980 947.651, 915 947.621, 915 942.827 C 915 940.172, 914.775 938, 914.500 938 C 914.225 938, 914 938.427, 914 938.948 M 631.702 945.631 C 629.917 947.417, 637.281 953.987, 641.077 953.996 C 642.282 953.999, 642.547 953.235, 642.201 950.750 C 641.952 948.962, 641.300 946.938, 640.752 946.250 C 639.730 944.968, 632.836 944.497, 631.702 945.631 M 702.143 953.890 C 701.134 954.530, 701.088 954.936, 701.963 955.477 C 702.611 955.877, 703.449 957.040, 703.827 958.062 C 704.864 960.864, 706.904 958.949, 706.292 955.747 C 705.753 952.928, 704.528 952.379, 702.143 953.890 M 603.884 980.005 C 601.808 981.218, 602.562 985.726, 604.970 986.490 C 607.678 987.350, 610 986.012, 610 983.593 C 610 979.730, 607.183 978.077, 603.884 980.005 M 715.200 990.200 C 713.592 991.808, 713.676 994, 715.345 994 C 716.695 994, 720 990.927, 720 989.671 C 720 988.539, 716.473 988.927, 715.200 990.200 M 629.204 999.557 C 626.008 1000.998, 625.633 1003, 628.559 1003 C 629.352 1003, 630 1003.459, 630 1004.019 C 630 1004.595, 631.194 1004.803, 632.750 1004.496 C 635.343 1003.985, 635.367 1004.012, 633.176 1004.972 C 629.943 1006.388, 630.784 1009.187, 634.752 1010.215 C 636.538 1010.678, 638 1011.697, 638 1012.479 C 638 1015.075, 641.011 1015.801, 645.801 1014.360 C 648.297 1013.608, 650.547 1012.786, 650.801 1012.532 C 651.054 1012.279, 650.528 1010.525, 649.631 1008.635 C 648.734 1006.744, 648 1004.478, 648 1003.599 C 648 1002.719, 647.309 1002, 646.465 1002 C 645.620 1002, 643.933 1001.348, 642.715 1000.551 C 639.316 998.326, 632.970 997.860, 629.204 999.557 M 675.250 1006.745 C 671.676 1008.524, 670.900 1011, 673.917 1011 C 674.971 1011, 675.983 1010.654, 676.167 1010.232 C 676.350 1009.809, 677.798 1008.459, 679.385 1007.232 C 681.717 1005.428, 681.908 1005.012, 680.385 1005.064 C 679.348 1005.099, 677.038 1005.856, 675.250 1006.745 M 743.380 1006.452 C 742.605 1008.473, 743.758 1010, 746.059 1010 C 747.463 1010, 748 1009.308, 748 1007.500 C 748 1005.654, 747.469 1005, 745.969 1005 C 744.851 1005, 743.686 1005.653, 743.380 1006.452 M 674 1021.765 C 674 1024.262, 675.929 1026, 678.700 1026 C 681.451 1026, 681.615 1025.205, 679.250 1023.343 C 675.273 1020.214, 674 1019.831, 674 1021.765" stroke="none" fill="#3da0c8" fill-rule="evenodd"/><path d="M 555.546 601.927 C 551.900 603.189, 550.106 604.512, 548.749 606.942 C 547.735 608.758, 544.295 613.676, 541.105 617.872 C 537.915 622.067, 533.496 628.650, 531.284 632.500 C 529.073 636.350, 524.217 644.675, 520.493 651 C 516.769 657.325, 511.292 667.900, 508.321 674.500 C 505.350 681.100, 501.182 690.100, 499.059 694.500 C 496.936 698.900, 494.074 705.650, 492.700 709.500 C 491.325 713.350, 488.662 719.200, 486.781 722.500 C 482.128 730.664, 481.642 731.608, 478.511 738.597 C 475.518 745.275, 473.111 746.969, 459 752.333 C 447.493 756.707, 441 759.942, 441 761.301 C 441 762.101, 437.782 763.557, 432.890 764.970 C 428.430 766.259, 423.432 768.449, 421.783 769.836 C 419.181 772.026, 418.852 772.857, 419.291 776.133 C 420.001 781.426, 423.365 785.723, 427.793 786.994 C 429.832 787.579, 435.325 788.305, 440 788.607 C 444.675 788.909, 449.482 789.630, 450.683 790.211 C 451.883 790.791, 453.621 790.976, 454.544 790.622 C 455.851 790.120, 456.062 790.367, 455.498 791.739 C 455.099 792.707, 453.422 797.325, 451.771 802 C 447.165 815.043, 446.758 815.624, 441.753 816.310 C 439.365 816.638, 436.188 817.540, 434.694 818.315 L 431.976 819.725 436.592 820.358 C 439.130 820.705, 441.659 820.711, 442.211 820.370 C 443.399 819.636, 442.441 823.136, 440.306 827.331 C 439.452 829.009, 438.311 829.950, 437.506 829.640 C 436.758 829.354, 435.551 829.845, 434.823 830.733 C 433.660 832.152, 433.781 832.274, 435.825 831.747 C 438.046 831.175, 438.120 831.328, 437.474 835.152 C 437.102 837.354, 435.330 842.383, 433.536 846.328 C 431.742 850.273, 429.040 857.100, 427.532 861.500 C 426.024 865.900, 424.162 870, 423.395 870.610 C 422.628 871.221, 421.993 872.571, 421.985 873.610 C 421.964 876.299, 418.681 886.474, 417.296 888.143 C 415.775 889.976, 411.336 901.743, 409.005 910.123 C 407.992 913.766, 405.943 919.153, 404.452 922.094 C 402.677 925.597, 401.700 929.177, 401.621 932.471 L 401.500 937.500 405.389 937.500 C 409.101 937.500, 409.458 937.205, 413.248 931 C 415.431 927.425, 418.198 922.383, 419.396 919.796 C 420.735 916.902, 423.185 913.925, 425.760 912.059 C 428.062 910.391, 430.864 907.227, 431.986 905.028 C 433.108 902.829, 435.164 900.283, 436.556 899.371 C 437.948 898.460, 439.724 896.540, 440.503 895.107 C 441.872 892.588, 441.921 892.576, 441.960 894.750 C 441.982 896.015, 442.626 897, 443.429 897 C 445.186 897, 448 894.301, 448 892.616 C 448 891.933, 449.392 890.052, 451.093 888.437 C 455.732 884.032, 461.184 872.111, 470.498 846 C 472.558 840.225, 474.953 834.150, 475.820 832.500 C 476.687 830.850, 477.326 828.825, 477.240 828 C 477.154 827.175, 479.454 822, 482.351 816.500 L 487.618 806.500 499.299 806.434 C 510.106 806.372, 511.165 806.193, 513.459 804.038 C 516.546 801.138, 515.794 799.550, 512.193 801.365 C 509.064 802.942, 488.636 804.512, 491 802.994 C 491.968 802.372, 492.064 802.025, 491.269 802.015 C 490.532 802.006, 491.816 798.483, 494.461 793.250 C 496.895 788.438, 499.699 782.580, 500.693 780.234 C 502.210 776.651, 503.141 775.792, 506.500 774.872 C 514.681 772.631, 530.661 767.705, 535.500 765.932 C 538.250 764.925, 542.525 763.385, 545 762.510 C 550.782 760.465, 559.476 751.076, 558.483 747.948 C 558.127 746.824, 558.377 745.251, 559.040 744.452 C 560.409 742.802, 558.786 740, 556.461 740 C 555.749 740, 555.017 739.590, 554.833 739.088 C 554.495 738.163, 527.975 740.287, 524.879 741.487 C 520.450 743.203, 522.232 735.587, 529.795 720.470 C 531.988 716.087, 536.403 706.650, 539.607 699.500 C 545.623 686.073, 551.272 675.568, 553.074 674.454 C 553.642 674.103, 556.182 675.432, 558.718 677.408 C 561.253 679.384, 563.717 681, 564.191 681 C 565.798 681, 574.015 671.526, 575.899 667.500 C 576.929 665.300, 579.209 659.450, 580.967 654.500 C 582.724 649.550, 584.752 644.150, 585.475 642.500 C 587.998 636.735, 592 622.183, 591.977 618.855 C 591.959 616.282, 590.950 614.451, 587.649 611 C 583.075 606.218, 581.159 605.045, 574 602.649 C 566.836 600.250, 561.045 600.024, 555.546 601.927 M 846.290 626.965 C 841.957 629.607, 840.452 632.925, 831.985 658.500 C 824.949 679.756, 824.699 680.844, 824.601 690.667 C 824.546 696.258, 824.163 701.171, 823.750 701.583 C 823.337 701.996, 823 701.808, 823 701.167 C 823 700.525, 822.346 700, 821.547 700 C 818.928 700, 817.013 710.288, 818.957 713.919 C 821.012 717.759, 815.385 742, 812.438 742 C 810.836 742, 810.660 742.616, 808.034 757.401 C 806.969 763.397, 805.721 768.679, 805.262 769.138 C 804.802 769.598, 801.737 767.393, 798.450 764.237 C 795.163 761.082, 791.355 757.997, 789.987 757.381 C 785.233 755.244, 771.039 751, 768.642 751 C 765.085 751, 757.548 760.770, 750.724 774.226 C 745.550 784.431, 731.947 821.242, 730.085 830.077 C 729.060 834.942, 728.265 836, 725.632 836 C 724.395 836, 722.509 836.661, 721.441 837.468 C 720.374 838.276, 718.150 838.987, 716.500 839.050 L 713.500 839.163 716.816 840.611 C 721.090 842.478, 721.039 846.323, 716.733 846.818 C 712.419 847.314, 714.602 849, 719.559 849 C 722.959 849, 724 849.374, 724 850.596 C 724 852.083, 721.075 863.006, 720.679 862.995 C 720.581 862.993, 717.800 861.879, 714.500 860.519 C 707.555 857.658, 700.667 857.316, 693.408 859.471 C 687.556 861.209, 680.675 866.990, 681.598 869.394 C 682.455 871.627, 681.082 871.401, 678.965 868.959 C 677.198 866.922, 677.191 866.923, 675.097 869.863 C 672.288 873.809, 672.421 874.203, 676.446 873.856 C 678.342 873.693, 680.204 873.871, 680.585 874.252 C 681.534 875.201, 676.526 877, 672.935 877 C 670.472 877, 670 876.598, 670 874.503 C 670 871.632, 675.899 864.621, 680.175 862.410 C 683.090 860.902, 683.962 859, 681.737 859 C 681.042 859, 678.004 860.672, 674.987 862.716 C 671.969 864.761, 665.905 868.289, 661.511 870.558 L 653.523 874.682 653.859 878.590 C 654.045 880.739, 654.618 883.286, 655.133 884.249 C 656.128 886.107, 660.479 886.652, 661.473 885.044 C 661.798 884.518, 662.798 884.369, 663.696 884.714 C 664.690 885.095, 665.078 884.935, 664.688 884.304 C 663.615 882.568, 667.379 880.052, 673.393 878.486 C 680.349 876.674, 680 876.673, 680 878.500 C 680 880.640, 680.776 880.372, 683.398 877.324 L 685.700 874.648 686.216 877.348 C 686.500 878.833, 686.342 880.289, 685.866 880.583 C 685.390 880.877, 685 881.793, 685 882.618 C 685 885.385, 686.934 882.958, 688.060 878.778 C 689.090 874.952, 688.998 874.507, 686.844 872.882 C 684.263 870.935, 685.396 869.986, 689.899 870.321 C 693.094 870.559, 693.693 868.441, 690.859 866.924 C 689.183 866.028, 688.497 866.010, 688.214 866.857 C 687.743 868.271, 685 868.380, 685 866.985 C 685 866.427, 686.462 865.061, 688.250 863.949 C 690.840 862.339, 692.874 861.986, 698.262 862.214 C 705.477 862.519, 707.459 864.056, 701.345 864.604 C 697.607 864.940, 695.100 866.434, 696.286 867.619 C 696.645 867.978, 699.547 867.759, 702.735 867.132 C 707.276 866.238, 709.503 866.273, 713.016 867.293 L 717.500 868.595 717.175 874.047 C 716.996 877.046, 715.992 881.313, 714.943 883.529 C 713.894 885.745, 712.613 891.595, 712.097 896.529 C 711.580 901.463, 710.431 907.975, 709.543 911 C 707.740 917.143, 706.919 942.754, 708.314 949.352 L 709.129 953.204 706.842 951.602 C 702.158 948.321, 698 950.147, 698 955.484 C 698 957.828, 698.697 958.981, 700.904 960.284 C 704.117 962.182, 708.542 962.550, 709.500 961 C 709.840 960.450, 710.475 960, 710.911 960 C 711.978 960, 717.992 973.158, 718.032 975.580 C 718.049 976.636, 718.693 978.331, 719.463 979.347 C 722.246 983.020, 718.735 987.440, 711.321 989.595 C 707.881 990.595, 705.596 991.915, 704.872 993.322 C 704.255 994.520, 702.839 996.501, 701.725 997.724 C 700.115 999.493, 699.987 1000.057, 701.100 1000.480 C 703.017 1001.208, 708.120 1001.441, 716.867 1001.202 C 724.045 1001.005, 724.334 1000.897, 728.117 996.999 C 730.253 994.798, 732 992.548, 732 991.999 C 732 991.449, 733.597 991, 735.550 991 C 737.502 991, 740.314 990.362, 741.800 989.582 C 751.319 984.585, 767.624 958.698, 773.563 939.152 C 775.343 933.294, 779.320 922.733, 782.400 915.685 C 785.480 908.637, 788 902.089, 788 901.135 C 788 900.181, 788.474 898.926, 789.053 898.347 C 789.632 897.768, 790.296 895.387, 790.528 893.056 C 791.017 888.133, 794.762 881.362, 796.201 882.801 C 797.026 883.626, 798.559 894.132, 799.439 905 C 799.595 906.925, 799.361 915.925, 798.920 925 C 798.445 934.754, 798.503 944.362, 799.063 948.500 C 800.303 957.675, 805.582 968.394, 812.496 975.776 C 819.782 983.554, 821.118 982.759, 825.873 967.813 C 828.405 959.853, 828.554 955.774, 826.430 952.534 C 825.124 950.541, 824.855 946.380, 824.830 927.819 C 824.790 897.872, 825.038 894.423, 827.206 894.784 C 828.797 895.048, 828.808 894.715, 827.358 889.835 C 825.935 885.043, 825.943 884.366, 827.451 881.813 C 828.894 879.371, 828.906 879.099, 827.549 879.620 C 825.500 880.406, 825.594 879.385, 827.869 876.154 C 830.917 871.825, 831.392 869.091, 829.466 866.963 C 827.902 865.234, 827.853 863.915, 828.911 851.785 C 830.998 827.848, 832.063 819.859, 837.085 790.500 C 842.127 761.019, 844.402 750.316, 850.369 728 C 856.112 706.524, 858.914 698.285, 864.990 685.022 C 872.477 668.677, 873.440 665.201, 871.903 660.069 C 871.006 657.075, 871.002 655.047, 871.889 651.525 C 873.732 644.209, 872.043 639.843, 864.672 632.866 C 859.336 627.815, 854.287 625.016, 850.500 625.009 C 849.950 625.008, 848.056 625.888, 846.290 626.965 M 589 724.801 C 585.359 725.356, 583.793 727.131, 580.253 734.715 C 578.511 738.447, 575.492 744.922, 573.543 749.105 C 571.594 753.288, 570 757.675, 570 758.855 C 570 760.035, 569.556 761, 569.013 761 C 567.732 761, 566.140 764.811, 558.524 786.106 C 555.061 795.790, 551.907 806.039, 551.516 808.882 C 551.125 811.726, 550.272 814.603, 549.620 815.276 C 547.932 817.020, 548.518 834.033, 550.469 839.906 C 552.304 845.432, 557.874 851.204, 563.157 853.054 C 566.603 854.260, 567.007 854.173, 570.157 851.533 C 573.995 848.318, 586.606 833.649, 588.183 830.567 C 588.764 829.430, 590.587 827.076, 592.234 825.335 L 595.228 822.170 600.110 828.037 C 605.747 834.810, 610.438 836.882, 614.872 834.559 C 617.087 833.399, 618.047 833.427, 621.482 834.756 C 623.692 835.611, 626.175 836.880, 627 837.577 C 628.676 838.993, 634 840.548, 634 839.621 C 634 839.293, 630.850 837.439, 627 835.500 C 623.150 833.561, 620 831.484, 620 830.885 C 620 828.956, 634.971 811.748, 635.420 813.162 C 635.653 813.898, 636.116 816.142, 636.449 818.150 C 636.781 820.157, 637.716 822.349, 638.526 823.022 C 639.337 823.695, 640 825.165, 640 826.289 C 640 827.413, 640.277 828.056, 640.615 827.718 C 640.954 827.379, 643.535 828.654, 646.352 830.551 C 652.250 834.523, 655.146 834.818, 659.884 831.930 C 664.198 829.300, 665.787 830.578, 663.559 834.885 C 662.673 836.598, 661.510 838, 660.974 838 C 660.438 838, 660 838.884, 660 839.965 C 660 842.647, 657.944 843.484, 647.755 844.949 C 638.476 846.282, 636.889 848, 644.935 848 C 649.443 848, 656.061 845.743, 664.704 841.257 C 667.204 839.960, 667.664 839.300, 666.797 838.255 C 665.988 837.280, 665.985 836.615, 666.785 835.815 C 667.586 835.014, 669.275 836.234, 672.985 840.293 C 677.735 845.490, 682.437 848.179, 686 847.737 C 688.253 847.457, 696.428 849.136, 697 849.997 C 697.275 850.410, 698.625 850.323, 700 849.802 L 702.500 848.857 700.237 847.007 C 698.992 845.990, 697.417 844.949, 696.737 844.694 C 695.890 844.376, 696.131 843.726, 697.500 842.634 C 699.226 841.257, 699.295 840.902, 698 840.047 C 695.678 838.514, 698.076 835.562, 701.954 835.179 C 704.868 834.891, 705.154 834.586, 704.705 832.238 C 703.763 827.311, 707.321 824.609, 713.089 825.871 C 714.037 826.078, 716 830.919, 716 833.047 C 716 834.515, 716.684 834.996, 718.750 834.985 C 720.263 834.976, 722.092 834.594, 722.816 834.135 C 724.031 833.364, 727.374 827.835, 726.768 827.598 C 726.621 827.540, 725.150 826.556, 723.500 825.411 C 719.281 822.483, 715.364 821.725, 711.332 823.055 C 709.426 823.685, 707.665 823.999, 707.420 823.753 C 707.175 823.508, 708.299 821.640, 709.919 819.602 C 711.539 817.564, 713.154 814.575, 713.509 812.960 C 713.864 811.344, 714.569 809.766, 715.077 809.452 C 715.585 809.139, 716 808.009, 716 806.941 C 716 805.873, 716.450 805, 717 805 C 717.550 805, 718.015 804.438, 718.033 803.750 C 718.078 802.062, 721.102 798.555, 723.207 797.749 C 725.065 797.038, 728.768 791.589, 732.214 784.496 C 734.657 779.468, 734.211 778.392, 729.276 777.405 C 726.285 776.807, 725.983 777.035, 723.681 781.636 C 714.818 799.349, 708.434 809.212, 700.373 817.643 C 694.802 823.471, 694.256 823.787, 689.750 823.803 C 687.138 823.812, 685 823.494, 685 823.097 C 685 820.455, 697.051 788.920, 698.986 786.500 C 699.425 785.950, 700.587 782.620, 701.566 779.100 L 703.348 772.700 701.001 770.800 C 699.053 769.223, 697.705 769.011, 693.077 769.556 C 690.010 769.917, 686.732 770.953, 685.794 771.856 C 683.448 774.116, 675.724 791.836, 672.552 802.235 L 669.939 810.804 662.501 816.402 C 658.410 819.481, 654.347 822, 653.473 822 C 652.598 822, 652.160 822.450, 652.500 823 C 652.840 823.550, 652.673 824, 652.130 824 C 650.579 824, 648.714 813.111, 649.399 808.061 C 650.076 803.072, 652.247 795.595, 654.708 789.773 C 656.902 784.581, 655.431 783, 648.401 783 C 643.650 783, 642.849 783.310, 641.297 785.750 C 640.335 787.263, 639.019 788.835, 638.372 789.245 C 637.725 789.655, 634.047 794.380, 630.197 799.745 C 622.029 811.131, 610.548 823.836, 609.421 822.736 C 608.225 821.568, 611.908 803.680, 614.081 800.107 C 615.137 798.371, 616 796.225, 616 795.337 C 616 794.449, 617.800 789.969, 620 785.381 C 622.200 780.794, 624 776.101, 624 774.954 C 624 773.807, 624.448 772.031, 624.996 771.007 C 626.972 767.316, 625.260 766, 618.482 766 C 612.600 766, 611.994 766.217, 609.431 769.250 C 605.328 774.106, 602.032 782.148, 597.546 798.250 C 596.334 802.600, 595.494 804, 594.095 804 C 593.077 804, 591.690 804.669, 591.011 805.486 C 590.077 806.612, 587.805 806.925, 581.639 806.774 C 577.162 806.664, 572.525 806.914, 571.333 807.329 C 569.443 807.986, 569.237 807.789, 569.725 805.791 C 570.770 801.510, 584.958 765.016, 587.618 759.767 C 589.073 756.895, 591.161 752.060, 592.258 749.022 C 595.411 740.290, 599.001 729.620, 598.985 729.035 C 598.908 726.370, 593.568 724.105, 589 724.801 M 693.750 743.080 C 692.788 743.641, 692 745.135, 692 746.402 C 692 749.394, 696.056 755.387, 698.384 755.835 C 702.809 756.688, 709.479 745.184, 705.882 742.906 C 703.995 741.711, 695.901 741.827, 693.750 743.080 M 881 764 C 881 765.111, 881.667 766, 882.500 766 C 883.325 766, 884 766.724, 884 767.608 C 884 768.812, 884.611 769.063, 886.431 768.607 C 889.980 767.716, 893.884 769.565, 895.077 772.702 C 896.844 777.349, 896.304 792.713, 893.996 803.500 C 891.444 815.422, 886.293 832.701, 885.063 833.461 C 884.582 833.759, 882.859 836.814, 881.234 840.251 C 877.974 847.151, 873.955 852, 871.499 852 C 869.135 852, 866.047 844.316, 866.022 838.371 C 865.991 831.213, 869.397 812.533, 871.869 806.301 C 873.003 803.441, 876.196 796.588, 878.964 791.072 C 883.249 782.533, 884.573 780.748, 887.875 779.064 C 896.386 774.722, 892.680 771.551, 879.500 771.897 C 874.901 772.018, 870.638 772.669, 869.473 773.430 C 867.451 774.750, 854.467 801.383, 852.935 807.352 C 852.491 809.084, 851.207 813.875, 850.081 818 C 847.502 827.450, 847.489 835.824, 850.040 843.452 C 852.459 850.684, 854.829 853.361, 862 856.963 C 870.650 861.307, 874.492 862.258, 880.219 861.470 C 884.659 860.859, 886.078 860.053, 890.512 855.618 C 894.970 851.160, 896.335 848.745, 900.759 837.488 C 913.149 805.956, 914.391 771.371, 903.338 765.681 C 900.532 764.237, 888.511 762, 883.558 762 C 881.667 762, 881 762.521, 881 764 M 778.546 786.663 C 769.983 796.694, 764.601 808.422, 759.044 829.164 L 756.187 839.827 765.843 840.482 C 771.154 840.842, 776.063 841.317, 776.750 841.537 C 778.775 842.186, 778.179 844, 775.941 844 C 774.809 844, 774.134 844.408, 774.442 844.907 C 774.751 845.405, 774.102 845.578, 773.001 845.290 C 770.744 844.700, 770.242 846.842, 772.183 848.783 C 774.169 850.769, 772.224 851.377, 769.531 849.612 C 766.592 847.687, 766.242 846.034, 768.750 845.921 C 769.853 845.871, 769.483 845.471, 767.750 844.838 C 766.237 844.285, 765 843.196, 765 842.417 C 765 841.467, 763.857 841, 761.531 841 C 758.847 841, 758.194 841.342, 758.643 842.511 C 759.039 843.543, 758.762 843.846, 757.772 843.466 C 755.726 842.681, 753.891 845.279, 753.562 849.425 C 753.408 851.367, 752.714 853.640, 752.019 854.478 C 750.955 855.759, 751.090 856, 752.878 856 C 754.045 856, 755 855.550, 755 855 C 755 853.703, 760.057 853.732, 762 855.041 C 763.246 855.880, 762.846 856.613, 759.633 859.374 L 755.765 862.697 758.883 864.916 C 760.597 866.137, 762 867.906, 762 868.848 C 762 870.254, 761.142 870.524, 757.203 870.360 C 753.138 870.190, 752.259 870.491, 751.444 872.330 C 750.884 873.592, 749.753 874.377, 748.741 874.206 C 746.171 873.772, 746.592 874.703, 750.534 878.164 C 752.477 879.870, 753.896 881.437, 753.687 881.646 C 753.478 881.855, 751.691 881.351, 749.717 880.526 C 745.628 878.818, 745.679 878.754, 744.506 887 C 744.155 889.475, 742.706 895.547, 741.288 900.493 C 739.869 905.439, 738.617 912.512, 738.504 916.211 C 738.391 919.909, 737.795 923.542, 737.179 924.284 C 736.369 925.260, 736.354 926.720, 737.123 929.566 C 739.076 936.794, 739.064 936.806, 748.831 918.500 C 752.715 911.220, 769.635 876.497, 770.281 874.480 C 770.629 873.391, 772.062 870.700, 773.464 868.500 C 778.803 860.121, 780.127 855.527, 777.856 853.256 C 776.997 852.397, 777.226 852.246, 778.774 852.651 C 780.651 853.142, 781.299 851.765, 785.977 837.345 C 791.727 819.623, 792.846 811.738, 791.078 801.414 C 789.644 793.042, 786.263 781.280, 785.079 780.549 C 784.606 780.257, 781.666 783.008, 778.546 786.663 M 1321.529 793.054 C 1318.246 794.084, 1312.396 795.394, 1308.529 795.966 C 1279.674 800.235, 1273.034 801.188, 1269.586 801.555 C 1263.978 802.152, 1254.005 803.965, 1250.500 805.025 C 1248.850 805.524, 1244.125 806.680, 1240 807.594 C 1235.875 808.508, 1232.108 809.613, 1231.628 810.050 C 1231.149 810.486, 1230.136 810.606, 1229.378 810.315 C 1228.620 810.024, 1228 810.333, 1228 811.001 C 1228 811.798, 1227.140 812.001, 1225.500 811.589 C 1223.933 811.196, 1223 811.386, 1223 812.098 C 1223 812.766, 1221.984 813.039, 1220.530 812.761 C 1219.172 812.501, 1218.268 812.625, 1218.522 813.035 C 1218.775 813.445, 1217.499 814.059, 1215.685 814.399 C 1213.872 814.740, 1210.613 815.935, 1208.444 817.056 C 1206.275 818.177, 1197.750 820.837, 1189.500 822.966 C 1174.188 826.917, 1162.010 831.342, 1157.344 834.650 C 1155.910 835.668, 1151.802 838.300, 1148.217 840.500 C 1141.123 844.854, 1139.344 846.848, 1140.309 849.364 C 1141.227 851.756, 1146.227 851.467, 1147.811 848.932 C 1148.779 847.381, 1149.778 847.001, 1151.801 847.414 C 1154.695 848.004, 1157.220 846.576, 1158.281 843.750 C 1158.642 842.788, 1159.626 842, 1160.469 842 C 1161.311 842, 1162 841.534, 1162 840.965 C 1162 840.251, 1162.601 840.251, 1163.934 840.965 C 1166.686 842.437, 1167.218 842.261, 1166.533 840.105 C 1165.688 837.442, 1168.206 835.310, 1173.192 834.468 C 1175.519 834.074, 1178.115 833.360, 1178.962 832.880 C 1181.913 831.205, 1207.535 823.087, 1212 822.412 C 1214.475 822.039, 1227.750 818.900, 1241.500 815.439 C 1255.250 811.977, 1271.900 808.196, 1278.500 807.036 C 1285.100 805.876, 1292.975 804.483, 1296 803.941 C 1299.025 803.398, 1305.325 802.692, 1310 802.371 C 1317.807 801.835, 1318.781 801.980, 1321.941 804.144 C 1325.979 806.909, 1326.382 808.375, 1323.225 808.823 C 1321.974 809, 1320.216 810.267, 1319.318 811.638 C 1317.782 813.982, 1317.804 814.248, 1319.686 816.130 C 1320.786 817.231, 1322.323 818.224, 1323.100 818.338 C 1323.877 818.453, 1325.636 819.332, 1327.007 820.294 C 1329.486 822.032, 1329.503 822.025, 1330.131 818.986 C 1330.478 817.305, 1330.619 814.483, 1330.445 812.715 C 1330.270 810.947, 1330.099 808.144, 1330.064 806.487 C 1330.020 804.395, 1329.332 803.173, 1327.815 802.487 C 1326.613 801.944, 1325.468 800.990, 1325.270 800.366 C 1324.826 798.966, 1327.856 795.793, 1328.976 796.485 C 1330.089 797.173, 1331.071 794.348, 1330.362 792.500 C 1329.657 790.663, 1329.033 790.702, 1321.529 793.054 M 532.028 804.902 C 530.732 805.774, 530.732 805.948, 532.028 806.357 C 535.668 807.507, 543.091 809, 545.165 809 L 547.444 809 545.306 806.861 C 542.916 804.472, 534.511 803.232, 532.028 804.902 M 569.712 810.012 C 567.839 811.485, 566.753 813.826, 565.654 818.762 C 563.750 827.304, 562.582 838.515, 563.449 839.918 C 564.614 841.803, 570.744 835.913, 576.470 827.407 C 582.153 818.963, 585 815.803, 585 817.937 C 585 818.586, 585.489 818.816, 586.087 818.446 C 586.840 817.981, 586.854 817.454, 586.134 816.734 C 585.413 816.013, 585.419 815.085, 586.152 813.716 C 587.140 811.870, 586.971 811.783, 583.605 812.414 C 581.255 812.855, 580 812.711, 580 812 C 580 811.287, 578.738 811.146, 576.355 811.593 C 573.745 812.083, 572.911 811.954, 573.414 811.138 C 573.801 810.512, 574.879 809.993, 575.809 809.985 C 577.266 809.971, 577.293 809.835, 576 809 C 573.793 807.574, 572.559 807.773, 569.712 810.012 M 405.884 813.449 C 405.637 813.696, 400.950 814.847, 395.468 816.006 C 389.985 817.166, 383.310 818.817, 380.633 819.677 C 376.562 820.983, 375.628 821.016, 374.926 819.880 C 374.224 818.744, 373.132 818.788, 368.293 820.146 C 358.548 822.879, 319.583 836.682, 309.248 841.062 C 292.858 848.007, 259.379 859.937, 242.500 864.846 L 226.500 869.500 226.214 879.267 C 225.978 887.310, 226.198 889.139, 227.464 889.624 C 229.435 890.381, 229.460 893.886, 227.500 894.638 C 226.675 894.955, 226.007 895.953, 226.015 896.857 C 226.032 898.757, 232.902 891.262, 232.962 889.276 C 232.983 888.603, 235.081 885.972, 237.625 883.428 L 242.249 878.803 239.375 876.909 C 237.360 875.582, 235.453 875.174, 233 875.546 L 229.500 876.077 231.915 874.289 C 234.725 872.207, 251.573 865, 253.628 865 C 256.033 865, 300.226 848.105, 301.985 846.513 C 304.402 844.326, 306.929 844.555, 306.315 846.905 C 305.997 848.119, 303.147 849.974, 298.462 852.016 C 294.418 853.780, 290.356 856.054, 289.436 857.070 C 287.939 858.725, 288.585 858.659, 295.632 856.441 C 303.308 854.025, 308.556 852.774, 316.323 851.506 C 319.509 850.986, 319.947 850.642, 318.951 849.441 C 318.103 848.419, 318.082 848, 318.878 848 C 319.495 848, 320 846.875, 320 845.500 C 320 843.944, 320.567 843, 321.500 843 C 322.325 843, 323 843.597, 323 844.327 C 323 845.232, 323.953 845.514, 326 845.213 C 329.222 844.740, 329.656 844.056, 327.867 842.267 C 326.293 840.693, 327.542 838, 329.847 838 C 330.897 838, 332.373 838.892, 333.128 839.982 C 334.477 841.931, 334.599 841.914, 340.500 838.928 C 343.800 837.258, 345.375 836.140, 344 836.444 C 342.506 836.774, 343.110 836.221, 345.500 835.072 C 350.061 832.879, 352 832.559, 352 834 C 352 834.550, 352.675 835, 353.500 835 C 354.325 835, 355 835.387, 355 835.861 C 355 837.409, 365.199 838.091, 366.410 836.625 C 367.010 835.899, 370.875 834.320, 375 833.115 C 379.125 831.910, 383.850 830.306, 385.500 829.549 C 390.290 827.353, 394.010 827.097, 401.707 828.434 C 406.407 829.250, 409.254 829.346, 409.893 828.707 C 410.531 828.069, 411.457 828.314, 412.555 829.412 C 413.481 830.338, 414.072 831.220, 413.869 831.372 C 412.597 832.325, 405.968 835.003, 404.849 835.015 C 402.641 835.040, 400.693 836.693, 401.442 837.906 C 401.928 838.693, 402.973 838.444, 404.881 837.085 C 406.389 836.011, 408.945 834.816, 410.561 834.429 C 412.177 834.041, 414.128 833.224, 414.896 832.612 C 415.663 832, 417.463 830.969, 418.896 830.319 L 421.500 829.139 419.210 828.442 C 417.030 827.779, 417.002 827.655, 418.636 825.849 C 420.896 823.353, 419.281 821.566, 415.913 822.836 C 414.586 823.336, 408.550 824.051, 402.500 824.425 C 388.923 825.264, 383.122 826.188, 371.069 829.432 C 365.882 830.829, 361.382 831.714, 361.069 831.399 C 360.756 831.085, 361.531 829.992, 362.791 828.970 L 365.083 827.112 361.291 827.608 L 357.500 828.104 361 826.094 C 362.925 824.988, 365.486 824.065, 366.691 824.042 C 367.896 824.019, 369.160 823.550, 369.500 823 C 370.475 821.422, 373 821.835, 373 823.572 C 373 824.897, 373.904 825.038, 378.750 824.472 C 381.913 824.103, 386.300 823.426, 388.500 822.969 C 390.700 822.512, 395.772 821.823, 399.772 821.437 C 403.772 821.052, 407.286 820.346, 407.581 819.869 C 407.876 819.391, 409.779 818.939, 411.809 818.864 C 414.135 818.778, 414.668 818.567, 413.250 818.294 C 410.567 817.778, 410.307 816.203, 412.750 815.265 C 414.231 814.695, 414.116 814.485, 412 813.896 C 408.908 813.035, 406.476 812.857, 405.884 813.449 M 1199.500 815.687 C 1189.210 817.016, 1172.605 820.141, 1170.855 821.078 C 1164.615 824.417, 1176.155 823.317, 1200.426 818.259 C 1203.997 817.515, 1206.976 814.797, 1203.833 815.150 C 1203.100 815.232, 1201.150 815.474, 1199.500 815.687 M 513.500 821.022 L 502.500 823.858 509.321 823.929 C 514.128 823.979, 516.586 823.557, 517.643 822.500 C 519.248 820.895, 526.526 820.425, 527.419 821.869 C 527.714 822.346, 529.813 823.034, 532.083 823.397 C 534.353 823.760, 537.487 824.718, 539.048 825.525 C 540.842 826.453, 542.113 826.626, 542.502 825.996 C 543.438 824.483, 542.411 823.401, 537.365 820.580 C 531.505 817.305, 527.634 817.377, 513.500 821.022 M 688.329 825.728 C 684.326 826.092, 684.130 826.270, 683.480 830.121 C 683.107 832.329, 683.062 834.395, 683.380 834.714 C 683.699 835.032, 686.106 833.331, 688.730 830.934 C 693.517 826.561, 694.885 824.849, 693.333 825.175 C 692.875 825.271, 690.623 825.520, 688.329 825.728 M 395.143 831.493 C 390.128 833.057, 386 836.525, 386 839.174 C 386 841.774, 387.968 841.373, 391.962 837.959 C 393.995 836.222, 396.571 835, 398.201 835 C 401.598 835, 405.577 831.985, 403.729 830.811 C 402.060 829.751, 400.271 829.893, 395.143 831.493 M 339.750 832.771 C 337.137 833.640, 335 834.758, 335 835.255 C 335 836.494, 340.744 835.155, 345 832.923 C 349.420 830.606, 346.512 830.522, 339.750 832.771 M 1131.896 835.914 C 1133.599 836.993, 1132.632 840, 1130.581 840 C 1129.766 840, 1128.694 839.276, 1128.199 838.391 C 1127.380 836.928, 1127.239 836.936, 1126.646 838.481 C 1125.226 842.182, 1129.188 843.288, 1132.950 840.241 C 1135.389 838.267, 1134.882 834.990, 1132.143 835.015 C 1130.805 835.028, 1130.759 835.194, 1131.896 835.914 M 375.667 836.667 C 375.300 837.033, 375 838.158, 375 839.167 C 375 841.224, 372.589 841.555, 368.613 840.043 C 366.596 839.276, 366.204 839.368, 366.640 840.505 C 367.178 841.907, 367.945 842.248, 373.171 843.406 C 376.033 844.041, 379 843.307, 379 841.964 C 379 841.513, 378.293 840.436, 377.429 839.571 C 376 838.143, 376.096 838, 378.488 838 C 379.987 838, 380.852 837.570, 380.500 837 C 379.802 835.870, 376.679 835.655, 375.667 836.667 M 1104 839.513 C 1099.875 840.784, 1094.700 842.507, 1092.500 843.341 C 1085.580 845.967, 1090.265 845.129, 1100 842 C 1105.134 840.350, 1109.907 839, 1110.608 839 C 1111.309 839, 1112.160 838.550, 1112.500 838 C 1113.302 836.702, 1112.886 836.776, 1104 839.513 M 342.980 842.524 C 342.284 843.362, 341.956 844.290, 342.252 844.585 C 343.269 845.602, 359.997 843.723, 361.747 842.395 C 363.245 841.257, 362.103 841.059, 353.872 841.032 C 346.438 841.007, 343.957 841.347, 342.980 842.524 M 1128.092 844.984 C 1120.542 848.991, 1117.714 851, 1119.622 851 C 1120.983 851, 1130.851 845.530, 1134 843.029 C 1137.603 840.168, 1136.442 840.553, 1128.092 844.984 M 591.769 843.447 C 587.240 844.917, 587.013 847.519, 591.292 848.931 C 593.163 849.549, 596.783 851.379, 599.337 852.999 C 602.982 855.310, 604.465 855.748, 606.240 855.035 C 607.483 854.535, 607.952 854.098, 607.281 854.063 C 606.611 854.029, 606.306 853.366, 606.604 852.590 C 606.929 851.743, 606.318 850.918, 605.072 850.523 C 601.871 849.507, 602.612 848.156, 606.750 847.463 C 608.813 847.118, 610.879 846.747, 611.343 846.637 C 611.806 846.528, 608.322 845.528, 603.599 844.416 C 596.848 842.827, 594.319 842.620, 591.769 843.447 M 618.500 844.651 C 620.433 846.184, 620.408 846.216, 617.750 845.600 C 614.292 844.798, 614.156 846.294, 617.547 847.839 C 620.745 849.296, 624 849.338, 624 847.922 C 624 847.305, 625.390 846.984, 627.250 847.172 C 629.038 847.352, 630.639 847.074, 630.808 846.554 C 631.188 845.385, 623.576 843.024, 619.500 843.047 C 616.586 843.063, 616.557 843.109, 618.500 844.651 M 311 847.031 C 311 849.319, 313.627 850.773, 315.100 849.300 C 316.536 847.864, 315.066 845, 312.893 845 C 311.657 845, 311 845.705, 311 847.031 M 1134.544 848.929 C 1134.229 849.439, 1134.990 850.053, 1136.235 850.292 C 1137.680 850.570, 1137.164 850.777, 1134.809 850.864 C 1130.225 851.033, 1129.331 852.334, 1131.714 855.363 C 1134.942 859.467, 1139 855.853, 1139 848.875 C 1139 847.706, 1135.272 847.751, 1134.544 848.929 M 1051 854.918 C 1037.214 860.102, 1031.407 863.015, 1032.951 863.970 C 1034.676 865.036, 1043.241 861.942, 1054.500 856.188 C 1063.734 851.469, 1061.920 850.811, 1051 854.918 M 1078.123 855.030 C 1071.567 858.005, 1063.588 864.128, 1065.073 865.045 C 1065.896 865.554, 1065.011 866.507, 1062.401 867.926 C 1060.256 869.092, 1055.575 871.915, 1052 874.199 C 1026.314 890.606, 1001.790 901.010, 985.191 902.541 C 979.289 903.085, 977.456 903.674, 975.669 905.601 C 973.915 907.493, 971.195 908.403, 962.535 909.993 C 947.234 912.805, 947.800 912.932, 950.636 907.331 C 951.936 904.762, 953.004 902.175, 953.009 901.581 C 953.013 900.986, 957.176 899.203, 962.259 897.617 C 974.786 893.709, 983.258 889.786, 980.302 889.263 C 979.092 889.049, 977.103 889.410, 975.881 890.064 C 974.051 891.043, 973.448 890.966, 972.469 889.627 C 971.815 888.732, 970.417 888, 969.362 888 C 966.983 888, 963.558 891.660, 965.313 892.326 C 965.966 892.574, 963.575 894.134, 960 895.792 C 954.238 898.466, 953.427 898.620, 952.859 897.154 C 951.297 893.121, 947.634 891.263, 940 890.630 C 930.071 889.807, 928.459 890.728, 924.041 899.748 C 921.493 904.950, 919.939 907.014, 918.500 907.105 C 916.812 907.212, 916.773 907.303, 918.250 907.689 C 920.334 908.234, 920.388 908.741, 918.750 912.376 L 917.500 915.150 905.833 914.825 C 899.416 914.646, 893.966 914.275, 893.721 914 C 893.476 913.725, 893.016 910.800, 892.698 907.500 C 892.210 902.429, 892.321 901.771, 893.420 903.250 C 895.106 905.519, 896 905.469, 896 903.107 C 896 900.907, 899.008 899.395, 900.045 901.073 C 900.558 901.902, 900.969 901.859, 901.552 900.916 C 902.028 900.145, 901.854 899.451, 901.124 899.208 C 900.280 898.927, 900.460 898.369, 901.697 897.431 C 903.434 896.114, 903.433 896.062, 901.691 896.032 C 900.696 896.014, 900.147 895.571, 900.472 895.046 C 901.271 893.752, 900.010 889, 898.867 889 C 898.362 889, 897.691 890.293, 897.375 891.874 C 897.059 893.455, 895.294 896.169, 893.452 897.906 C 890.786 900.421, 889.568 900.930, 887.472 900.404 C 886.025 900.040, 884.455 898.788, 883.984 897.622 C 883.512 896.455, 883.098 896.125, 883.063 896.890 C 883.014 897.973, 881.785 898.154, 877.500 897.712 L 872 897.144 867.593 901.822 C 865.170 904.395, 862.304 907.601, 861.224 908.947 L 859.262 911.395 846.381 908.700 C 839.296 907.218, 832.375 905.753, 831 905.446 C 824.221 903.931, 836.594 908.874, 846.244 911.536 L 856.988 914.500 856.364 918 C 856.020 919.925, 855.269 922.092, 854.693 922.815 C 854.118 923.538, 853.523 925.113, 853.371 926.315 C 852.639 932.108, 851.623 935.652, 850.242 937.229 C 849.084 938.552, 848.845 940.588, 849.225 945.904 C 849.807 954.033, 852.616 959.613, 859.055 965.431 C 870.283 975.575, 880.699 973.916, 899.282 959.024 C 905.525 954.022, 909.287 949.146, 909.538 945.732 C 909.610 944.759, 910.362 943.409, 911.210 942.731 C 912.058 942.054, 913.244 940.600, 913.845 939.500 C 914.711 937.917, 914.946 939.233, 914.970 945.817 L 915 954.135 910.467 959.700 C 905.115 966.270, 898.501 977.328, 896.455 983.127 C 894.449 988.813, 894.680 999.697, 896.888 1003.500 C 898.921 1007.004, 906.976 1012.606, 912 1014.010 C 917.348 1015.506, 922.550 1015.197, 924.811 1013.250 C 925.929 1012.288, 928.279 1008.800, 930.032 1005.500 L 933.221 999.500 932.655 977.801 L 932.089 956.103 934.950 953.696 C 940.565 948.970, 957.679 943.641, 958.835 946.258 C 959.019 946.675, 958.854 950.377, 958.469 954.486 C 957.478 965.066, 958.353 968.394, 963.605 974.009 C 968.639 979.391, 972.785 981.522, 976.439 980.605 C 979.952 979.723, 992.184 967.445, 995.472 961.500 C 996.993 958.750, 999.176 955.081, 1000.322 953.346 L 1002.407 950.193 1004.174 954.139 C 1005.514 957.133, 1007.013 958.561, 1010.380 960.050 C 1018.681 963.722, 1020.281 963.645, 1026.847 959.261 L 1032.791 955.292 1033.426 959.263 C 1033.916 962.327, 1033.681 963.513, 1032.400 964.450 C 1030.413 965.902, 1029.078 976, 1030.873 976 C 1031.493 976, 1032 976.675, 1032 977.500 C 1032 978.325, 1031.539 979, 1030.975 979 C 1030.412 979, 1029.544 980.068, 1029.048 981.373 C 1028.552 982.679, 1025.976 985.460, 1023.323 987.555 C 1015.287 993.901, 1002.905 1006.986, 1001.274 1010.856 C 999.246 1015.669, 999.253 1023.212, 1001.291 1030 C 1003.129 1036.120, 1003.744 1036.620, 1017.500 1043.169 C 1029.753 1049.004, 1034.277 1048.333, 1038.468 1040.063 C 1041.545 1033.991, 1045.186 1014.164, 1046.560 996 C 1047.461 984.079, 1047.297 984.379, 1055.018 980.491 C 1058.858 978.557, 1062 976.586, 1062 976.110 C 1062 973.985, 1058.788 972.764, 1054.476 973.250 C 1051.997 973.529, 1049.814 973.475, 1049.626 973.129 C 1048.905 971.804, 1051.025 955.792, 1053.534 943.616 C 1056.395 929.733, 1056.527 932.049, 1051.915 915.221 C 1050.914 911.569, 1050.981 910.679, 1052.371 909.142 C 1054.638 906.637, 1054.417 905.313, 1052.083 907.425 C 1050.554 908.809, 1049.745 908.934, 1048.083 908.045 C 1045.486 906.654, 1045.420 905.319, 1047.910 904.529 C 1048.960 904.195, 1050.423 903.172, 1051.160 902.255 C 1052.108 901.075, 1051.417 901.248, 1048.796 902.847 C 1045.272 904.996, 1044.968 905.025, 1042.544 903.437 C 1038.803 900.986, 1027.998 901.805, 1024.261 904.823 C 1020.426 907.919, 1000.201 917.718, 996.250 918.394 C 991.105 919.274, 992.436 917.680, 999.750 914.203 C 1007.003 910.755, 1009.075 909.564, 1012.989 906.594 C 1014.904 905.140, 1015.025 904.862, 1013.500 905.423 C 1011.581 906.129, 1001.525 907.982, 999.546 907.994 C 999.021 907.997, 1004.215 905.160, 1011.089 901.688 C 1017.963 898.217, 1028.582 892.367, 1034.688 888.688 C 1040.793 885.010, 1046.061 882, 1046.394 882 C 1046.727 882, 1047 882.599, 1047 883.330 C 1047 884.062, 1043.417 887.080, 1039.039 890.036 C 1034.660 892.992, 1031.265 895.598, 1031.494 895.827 C 1031.723 896.056, 1035.643 893.791, 1040.205 890.792 C 1044.767 887.794, 1049.980 884.752, 1051.788 884.033 C 1055.345 882.619, 1057.311 879.974, 1056.458 877.751 C 1055.724 875.837, 1060.748 873.546, 1062.497 874.997 C 1063.451 875.790, 1063.913 875.483, 1064.342 873.772 C 1064.678 872.433, 1068.008 869.278, 1072.400 866.137 C 1076.517 863.193, 1080.699 859.871, 1081.693 858.755 C 1083.494 856.733, 1083.489 856.732, 1080.300 858.363 C 1075.374 860.882, 1075.111 860.260, 1079.500 856.477 C 1084.140 852.478, 1084.022 852.354, 1078.123 855.030 M 656.500 856.742 C 654.300 856.965, 651.825 857.748, 651 858.481 C 649.117 860.154, 643.265 861.676, 635.500 862.512 C 628.338 863.283, 623 864.805, 623 866.078 C 623 866.585, 620.750 867, 618 867 C 615.250 867, 613 867.220, 613 867.489 C 613 867.757, 613.775 868.882, 614.722 869.989 C 616.565 872.140, 620.459 872.685, 621.536 870.941 C 622.326 869.664, 627.856 870.677, 630 872.493 C 634.277 876.116, 639.561 874.837, 648.642 867.981 C 651.519 865.808, 656.264 862.949, 659.187 861.627 C 662.109 860.305, 665.400 858.513, 666.500 857.644 C 668.407 856.137, 668.315 856.070, 664.500 856.200 C 662.300 856.275, 658.700 856.519, 656.500 856.742 M 574.543 857.931 C 573.786 859.154, 574.819 859.725, 579.829 860.850 C 584.745 861.955, 584.500 860.525, 579.410 858.398 C 575.448 856.743, 575.287 856.727, 574.543 857.931 M 750.688 857.646 C 749.210 859.123, 750.032 863.947, 751.934 864.965 C 754.505 866.341, 755.286 866.271, 754.346 864.750 C 753.921 864.063, 753.557 862.188, 753.536 860.584 C 753.501 857.741, 752.069 856.264, 750.688 857.646 M 707 863.368 C 707 864.174, 708.542 864.988, 710.750 865.348 C 712.813 865.685, 715.737 866.247, 717.250 866.597 C 719.309 867.073, 720 866.857, 720 865.735 C 720 864.797, 718.339 863.819, 715.557 863.119 C 709.647 861.630, 707 861.708, 707 863.368 M 846.327 864.553 C 842.632 866.171, 841.152 868, 843.537 868 C 845.511 868, 851 864.900, 851 863.784 C 851 862.746, 850.124 862.890, 846.327 864.553 M 1075.289 875.025 C 1071.926 878.199, 1070.324 879, 1067.339 879 C 1064.493 879, 1063.878 879.278, 1064.765 880.165 C 1066.132 881.532, 1063.638 883.915, 1060.785 883.968 C 1057.578 884.028, 1056.296 890, 1059.490 890 C 1060.294 890, 1060.619 889.260, 1060.319 888.113 C 1059.732 885.868, 1061.724 884.324, 1063.245 885.845 C 1064.005 886.605, 1063.945 887.362, 1063.035 888.458 C 1061.929 889.791, 1062.174 890, 1064.846 890 C 1067.325 890, 1067.810 889.669, 1067.295 888.326 C 1066.818 887.084, 1067.062 886.810, 1068.244 887.263 C 1069.186 887.625, 1070.072 887.254, 1070.417 886.355 C 1071.258 884.165, 1071.168 883.998, 1069.500 884.638 C 1068.675 884.955, 1068 884.786, 1068 884.262 C 1068 882.941, 1071.532 879.866, 1072.238 880.572 C 1073.741 882.075, 1083 875.097, 1083 872.461 C 1083 869.835, 1079.584 870.971, 1075.289 875.025 M 986 875.242 C 982.845 876.893, 982.288 880.522, 984.546 884.715 C 986.684 888.685, 989.340 889.663, 992.450 887.624 C 995.164 885.846, 998.775 877.375, 997.404 876.005 C 995.747 874.350, 988.615 873.873, 986 875.242 M 605.931 876.250 C 605.893 876.388, 605.699 877.737, 605.499 879.250 C 605.223 881.347, 605.555 882, 606.899 882 C 607.868 882, 610.771 883.068, 613.350 884.374 C 615.928 885.679, 618.278 886.360, 618.570 885.886 C 619.370 884.592, 610.104 876, 607.908 876 C 606.859 876, 605.969 876.112, 605.931 876.250 M 232.036 879.457 C 230.430 881.392, 232.240 884, 235.189 884 C 236.718 884, 237.065 883.416, 236.816 881.259 C 236.454 878.118, 233.935 877.169, 232.036 879.457 M 677.122 884.278 C 675.599 885.801, 675.704 888, 677.300 888 C 678.683 888, 681 886.063, 681 884.907 C 681 883.602, 678.245 883.155, 677.122 884.278 M 705 884.477 C 705 886.315, 709.540 889.402, 710.956 888.527 C 712.799 887.388, 712.070 885.843, 710 886.500 C 708.440 886.995, 708 886.680, 708 885.067 C 708 883.896, 707.350 883, 706.500 883 C 705.675 883, 705 883.665, 705 884.477 M 591.348 886.995 C 590.165 887.472, 587.588 889.969, 585.623 892.543 C 582.753 896.301, 582.248 897.595, 583.060 899.112 C 584.276 901.385, 586.916 901.542, 589.559 899.500 C 591.397 898.080, 591.407 897.928, 589.750 896.640 C 586.554 894.156, 588.710 889.184, 592.373 890.590 C 594.062 891.238, 594.375 892.160, 594.021 895.434 C 593.826 897.242, 593.966 897.267, 596.156 895.820 C 599.245 893.778, 599.615 890.615, 597.061 888.061 C 594.793 885.793, 594.475 885.733, 591.348 886.995 M 627.454 892.675 C 628.038 895, 627.925 895.183, 626.589 894.074 C 625.264 892.974, 625.276 893.245, 626.677 896.054 C 628.194 899.096, 628.388 899.189, 629.640 897.478 C 631.212 895.328, 631.602 895.567, 632.525 899.243 C 633.035 901.276, 632.799 902.140, 631.606 902.598 C 629.510 903.402, 629.547 905.612, 631.670 906.427 C 633.696 907.204, 635.165 905.177, 634.386 902.677 C 634.043 901.574, 634.512 900.346, 635.572 899.571 C 636.742 898.715, 637.087 897.669, 636.609 896.423 C 636.074 895.028, 635.693 894.879, 635.105 895.830 C 634.540 896.745, 633.551 896.101, 631.608 893.552 C 628.357 889.291, 626.507 888.900, 627.454 892.675 M 1087.500 898 C 1085.850 898.420, 1082.700 898.834, 1080.500 898.921 C 1077.147 899.052, 1075.243 900.131, 1068.725 905.594 C 1064.449 909.179, 1061.232 912.567, 1061.576 913.124 C 1061.921 913.681, 1062.832 913.895, 1063.601 913.600 C 1064.371 913.304, 1065 913.502, 1065 914.040 C 1065 914.593, 1065.848 914.487, 1066.955 913.796 C 1069.898 911.958, 1070.258 913.195, 1068.651 919.639 C 1067.848 922.863, 1066.881 927.750, 1066.502 930.500 C 1066.123 933.250, 1065.461 935.950, 1065.032 936.500 C 1064.603 937.050, 1064.007 938.850, 1063.708 940.500 C 1063.409 942.150, 1062.688 945.300, 1062.106 947.500 C 1061.524 949.700, 1061.037 954.266, 1061.024 957.646 C 1061.001 963.443, 1061.201 963.969, 1064.535 966.896 C 1066.816 968.900, 1069.138 970, 1071.084 970 C 1073.660 970, 1074.378 969.383, 1076.027 965.750 C 1077.088 963.413, 1077.966 960.775, 1077.978 959.888 C 1077.990 959.002, 1079.289 955.402, 1080.865 951.888 C 1082.441 948.375, 1084.490 943.025, 1085.419 940 C 1086.347 936.975, 1087.533 933.719, 1088.053 932.764 C 1088.574 931.809, 1089 929.874, 1089 928.464 C 1089 923.940, 1094.193 916.113, 1097.254 916.022 C 1097.669 916.010, 1097.747 921.737, 1097.427 928.750 C 1096.737 943.907, 1097.669 946.608, 1105.363 951.750 C 1109.490 954.508, 1111.127 955, 1116.179 955 C 1122.987 955, 1124.874 954.195, 1129.934 949.135 C 1131.933 947.136, 1135.883 943.590, 1138.713 941.256 C 1143.915 936.964, 1151 925.318, 1151 921.058 C 1151 919.991, 1151.450 918.840, 1152 918.500 C 1152.550 918.160, 1153.014 916.896, 1153.032 915.691 C 1153.049 914.486, 1153.724 912.626, 1154.532 911.559 C 1156.152 909.417, 1156.477 907, 1155.145 907 C 1154.675 907, 1152.329 909.813, 1149.932 913.250 C 1142.552 923.835, 1133.851 933.235, 1125.800 939.318 C 1117.785 945.374, 1112.635 947.967, 1111.288 946.623 C 1110.265 945.603, 1110.359 927.540, 1111.435 918.362 C 1112.257 911.343, 1112.227 911.195, 1109.624 909.489 C 1107.640 908.189, 1105.594 907.869, 1101.466 908.211 C 1093.969 908.833, 1091.306 911.611, 1084.254 926.167 C 1081.127 932.622, 1078.435 937.769, 1078.272 937.605 C 1078.109 937.442, 1079.071 933.527, 1080.410 928.904 C 1081.749 924.282, 1083.131 917.575, 1083.481 914 C 1084.476 903.822, 1084.632 903.470, 1088.984 901.507 C 1094.245 899.135, 1096.178 896.953, 1092.872 897.118 C 1091.568 897.183, 1089.150 897.580, 1087.500 898 M 686.667 898.667 C 685.409 899.925, 686 903, 687.500 903 C 688.325 903, 689 902.502, 689 901.893 C 689 901.284, 689.685 901.049, 690.523 901.371 C 691.766 901.847, 691.851 901.591, 690.988 899.977 C 689.933 898.007, 687.933 897.400, 686.667 898.667 M 938.850 902 C 938.768 902.550, 938.655 903.563, 938.600 904.250 C 938.545 904.938, 938.227 905.725, 937.894 906 C 937.561 906.275, 936.969 908.235, 936.579 910.355 C 936.047 913.249, 936.184 914.105, 937.130 913.790 C 938.619 913.294, 940.206 908.223, 939.626 905.815 C 939.403 904.888, 939.846 903.889, 940.611 903.596 C 941.375 903.303, 942 902.599, 942 902.031 C 942 900.705, 939.049 900.675, 938.850 902 M 875.368 907.571 C 873.516 909.535, 872 911.540, 872 912.026 C 872 912.512, 873.624 913.214, 875.610 913.587 C 879.899 914.391, 880.962 913.237, 880.985 907.750 C 881.004 903.048, 879.674 903.005, 875.368 907.571 M 649.316 908.250 C 645.522 912.259, 644 915.136, 644 918.299 C 644 921.660, 640.632 925.621, 634.363 929.631 C 628.048 933.670, 626.693 935.844, 627.571 940.525 C 628.383 944.857, 629.253 945.412, 634.777 945.126 C 640.043 944.854, 642 946.230, 642 950.206 C 642 952.134, 642.436 953.019, 643.250 952.743 C 644.585 952.291, 644.693 945.455, 643.471 938.794 C 642.857 935.448, 643.131 934.770, 646.295 931.794 C 650.528 927.813, 652.392 924.222, 653.884 917.173 C 654.504 914.243, 655.512 910.913, 656.122 909.772 C 657.058 908.023, 656.979 907.794, 655.616 908.317 C 654.465 908.759, 654 908.371, 654 906.969 C 654 904.196, 652.858 904.508, 649.316 908.250 M 579.582 909.316 C 576.891 911.284, 577.993 914.280, 581.811 915.375 C 584.469 916.137, 585.437 915.985, 586.804 914.592 C 588.402 912.964, 588.326 912.723, 585.500 910.437 C 582 907.605, 581.938 907.594, 579.582 909.316 M 1032.339 911.870 C 1026.661 915.983, 1023.823 919.851, 1024.607 922.407 C 1024.960 923.558, 1025.394 924.664, 1025.573 924.865 C 1025.946 925.285, 1037.541 918.771, 1040.444 916.510 C 1042.367 915.012, 1042.366 914.967, 1040.383 912.311 C 1037.605 908.590, 1036.918 908.553, 1032.339 911.870 M 892 918.016 C 892 918.662, 891.086 920.475, 889.968 922.045 C 888.568 924.011, 888.136 925.695, 888.579 927.460 C 889.102 929.543, 888.921 929.907, 887.611 929.404 C 886.542 928.994, 886 929.326, 886 930.393 C 886 931.277, 885.325 932, 884.500 932 C 882.692 932, 882.567 933.167, 884.200 934.800 C 885.133 935.733, 884.708 936, 882.287 936 C 880.017 936, 877.556 937.353, 873.191 941 C 869.900 943.750, 866.759 946, 866.211 946 C 864.660 946, 863.994 948.705, 864.670 952.261 C 865.352 955.849, 867.708 961, 868.668 961 C 869.007 961, 872.134 959.200, 875.617 957 C 879.101 954.800, 882.387 953, 882.919 953 C 884.878 953, 897.923 944.513, 898.999 942.539 C 899.611 941.417, 901.548 939.825, 903.305 939 C 905.263 938.081, 906.502 936.757, 906.504 935.582 C 906.507 934.527, 907.182 933.458, 908.004 933.207 C 910.151 932.552, 915.015 927.834, 914.464 926.942 C 914.208 926.528, 910.287 926.406, 905.749 926.672 C 899.765 927.022, 897.912 926.863, 899 926.093 C 899.825 925.509, 903.087 925.024, 906.250 925.015 C 911.992 925, 913.846 923.721, 909.928 922.477 C 908.776 922.111, 908.077 921.241, 908.356 920.516 C 908.715 919.580, 907.255 919.030, 903.178 918.566 C 900.055 918.210, 896.263 917.677, 894.750 917.380 C 893.004 917.038, 892 917.270, 892 918.016 M 1007.432 921.584 C 1007.857 923.277, 1007.717 923.943, 1007.027 923.517 C 1006.448 923.159, 1004.689 923.507, 1003.118 924.291 C 1000.504 925.595, 1000.300 925.568, 1000.718 923.971 C 1001.421 921.283, 999.920 921.011, 993.792 922.717 C 988.348 924.232, 988.049 924.496, 985.111 930.393 C 980.987 938.669, 980.247 942, 982.532 942 C 984.503 942, 993.321 937.904, 993.833 936.750 C 994.017 936.337, 994.818 936, 995.615 936 C 996.411 936, 997.322 935.325, 997.638 934.500 C 997.956 933.672, 999.441 933, 1000.952 933 C 1004.225 933, 1006.067 931.079, 1008.787 924.827 C 1010.864 920.050, 1010.763 919, 1008.225 919 C 1007.174 919, 1006.959 919.700, 1007.432 921.584 M 1033.500 924.679 C 1030.750 926.578, 1025.974 929.428, 1022.886 931.012 C 1016.640 934.216, 1015.459 936.666, 1016.957 943.311 C 1017.436 945.434, 1017.410 947, 1016.895 947 C 1016.403 947, 1016 948.125, 1016 949.500 C 1016 952.925, 1016.846 952.660, 1021.611 947.742 C 1029.012 940.104, 1040.340 922.915, 1038.864 921.561 C 1038.664 921.377, 1036.250 922.780, 1033.500 924.679 M 678.061 928.962 C 676.293 930.055, 677.162 933.407, 679.320 933.823 C 682.544 934.444, 684.205 933.252, 683.071 931.132 C 681.833 928.820, 679.751 927.918, 678.061 928.962 M 958 932.147 C 956.075 932.666, 949.469 933.041, 943.319 932.982 C 930.935 932.862, 929.614 933.530, 930.727 939.352 C 931.161 941.621, 931.688 942.083, 933.384 941.685 C 934.548 941.411, 940 940.070, 945.500 938.704 C 951 937.338, 957.295 935.833, 959.489 935.360 C 962.054 934.807, 963.598 933.875, 963.813 932.750 C 964.180 930.825, 963.264 930.730, 958 932.147 M 634.737 932.750 C 634.528 933.163, 634.273 934.841, 634.171 936.480 L 633.984 939.460 636.131 937.313 C 637.390 936.054, 638.027 934.512, 637.670 933.583 C 637.035 931.929, 635.391 931.462, 634.737 932.750 M 667.750 937.080 C 663.612 939.490, 666.910 947, 672.106 947 C 673.453 947, 675.326 947.900, 676.268 949 C 678.324 951.401, 680.775 951.546, 683.777 949.443 C 686.745 947.365, 686.614 944.237, 683.500 942.818 C 682.125 942.192, 681 941.295, 681 940.825 C 681 939.385, 674.651 936.006, 672 936.034 C 670.625 936.049, 668.712 936.519, 667.750 937.080 M 574.083 938.845 C 572.090 942.569, 577.713 946.887, 580.684 943.916 C 582.310 942.290, 581.150 939.389, 578.368 938.122 C 575.203 936.680, 575.245 936.673, 574.083 938.845 M 670.644 939.627 C 671.273 939.885, 671.571 940.924, 671.307 941.935 C 670.704 944.239, 672.639 945.544, 674.441 944.049 C 676.657 942.210, 675.162 938.988, 672.133 939.079 C 670.685 939.122, 670.015 939.369, 670.644 939.627 M 647.040 941.452 C 644.106 944.987, 648.797 949.021, 654.249 947.652 C 657.656 946.797, 658.389 944.389, 655.977 941.977 C 653.661 939.661, 648.765 939.373, 647.040 941.452 M 987.500 944.380 C 978.529 946.581, 978.496 946.601, 977.172 950.544 C 974.931 957.222, 973.124 968, 974.245 968 C 975.789 968, 982.685 961.467, 987.808 955.151 C 990.329 952.043, 993.654 948.228, 995.196 946.673 C 997.898 943.949, 998.812 941.907, 997.250 942.085 C 996.837 942.133, 992.450 943.165, 987.500 944.380 M 594.571 945.571 C 592.415 947.728, 592.598 949.274, 595.314 951.826 C 598.140 954.480, 601.139 954.609, 603.345 952.171 C 605.620 949.658, 605.431 948.484, 602.365 946.073 C 599.219 943.597, 596.707 943.436, 594.571 945.571 M 617.389 950.980 C 614.502 952.146, 613.617 954.919, 615.476 956.973 C 617.563 959.280, 617.391 960.354, 614.750 961.513 C 611.577 962.905, 611.635 967.378, 614.832 967.830 C 616.115 968.012, 617.915 967.518, 618.832 966.732 C 619.750 965.947, 621.330 965.008, 622.345 964.647 C 623.360 964.286, 624.415 963.130, 624.689 962.080 C 624.964 961.029, 626.301 959.890, 627.659 959.549 C 631.190 958.663, 630.377 955.112, 626.069 952.603 C 623.687 951.215, 622.898 951.047, 623.491 952.052 C 624.041 952.986, 623.633 952.879, 622.343 951.750 C 620.100 949.788, 620.273 949.815, 617.389 950.980 M 702.306 953.644 C 700.070 954.553, 703.236 960.231, 705.496 959.363 C 707.589 958.560, 708.145 956.002, 706.569 954.426 C 705.095 952.952, 704.345 952.814, 702.306 953.644 M 912.848 976.361 C 911.940 977.030, 909.941 979.809, 908.407 982.538 C 906.134 986.582, 905.615 988.738, 905.603 994.194 C 905.580 1004.556, 910.034 1007.969, 913.234 1000.041 C 914.580 996.707, 915.861 981.521, 915.098 977.946 C 914.586 975.550, 914.262 975.322, 912.848 976.361 M 601.250 977.674 C 598.093 979.877, 598.269 984.280, 601.620 986.916 C 603.464 988.366, 604.078 989.594, 603.694 991.062 C 602.691 994.896, 609.566 999.129, 611.559 995.905 C 611.931 995.302, 611.660 993.734, 610.957 992.419 C 609.810 990.276, 609.953 989.773, 612.339 987.562 C 615.438 984.689, 615.525 984.194, 613.445 981.226 C 612.476 979.841, 610.377 978.764, 607.864 978.362 C 605.134 977.926, 604.266 977.447, 605.169 976.875 C 606.232 976.201, 606.198 976.038, 605 976.068 C 604.175 976.088, 602.487 976.811, 601.250 977.674 M 603.884 980.005 C 601.808 981.218, 602.562 985.726, 604.970 986.490 C 607.678 987.350, 610 986.012, 610 983.593 C 610 979.730, 607.183 978.077, 603.884 980.005 M 617.604 985.590 C 616.699 987.948, 617.764 989, 621.059 989 C 624.147 989, 624.918 987.318, 622.800 985.200 C 621.103 983.503, 618.325 983.712, 617.604 985.590 M 667.479 986.893 C 666.941 987.416, 664.925 988.245, 663 988.735 C 660.512 989.369, 659.500 990.187, 659.500 991.564 C 659.500 993.167, 660.274 993.529, 664 993.669 C 670.984 993.931, 672.162 993.328, 671.807 989.673 C 671.495 986.469, 669.341 985.085, 667.479 986.893 M 715.200 990.200 C 713.592 991.808, 713.676 994, 715.345 994 C 716.695 994, 720 990.927, 720 989.671 C 720 988.539, 716.473 988.927, 715.200 990.200 M 744.797 1000.387 C 743.311 1002.250, 741.810 1004.908, 741.462 1006.294 C 739.950 1012.321, 746.912 1015.925, 749.106 1010.250 C 749.690 1008.737, 750.819 1006.203, 751.613 1004.619 C 752.886 1002.081, 752.873 1001.455, 751.506 999.369 C 749.409 996.168, 747.992 996.383, 744.797 1000.387 M 623.223 999.557 C 620.195 1001.677, 620.432 1004.082, 624.007 1007.506 C 626.024 1009.439, 626.682 1010.718, 626.007 1011.393 C 623.920 1013.480, 624.985 1015, 628.531 1015 C 632.550 1015, 633.866 1013.090, 632.196 1009.683 C 631.607 1008.482, 630.842 1006.487, 630.495 1005.250 C 630.149 1004.013, 629.247 1003, 628.492 1003 C 625.621 1003, 626.043 1000.984, 629.204 999.603 L 632.500 998.163 628.973 998.082 C 627.032 998.037, 624.445 998.701, 623.223 999.557 M 689.766 1000.381 C 688.812 1001.105, 688.324 1001.991, 688.682 1002.349 C 689.040 1002.707, 688.808 1003, 688.167 1003 C 687.525 1003, 687 1003.712, 687 1004.583 C 687 1005.454, 686.438 1005.970, 685.750 1005.730 C 685.063 1005.489, 684.632 1004.552, 684.794 1003.646 C 685.170 1001.541, 684.658 1001.571, 677.195 1004.092 C 667.230 1007.457, 665.406 1011.441, 669.594 1020.693 C 671.513 1024.931, 676.677 1030, 679.077 1030 C 680.739 1030, 681 1030.739, 681 1035.443 C 681 1039.935, 681.389 1041.159, 683.223 1042.443 C 687.922 1045.735, 694.257 1043.463, 695.330 1038.102 C 695.825 1035.624, 696.468 1035.080, 699.212 1034.816 C 701.780 1034.569, 702.572 1033.989, 702.830 1032.168 C 703.012 1030.885, 702.404 1028.999, 701.479 1027.977 C 699.605 1025.906, 691.911 1023, 688.300 1023 C 683.256 1023, 682.723 1013.488, 687.515 1008.986 C 688.882 1007.702, 690 1005.902, 690 1004.986 C 690 1004.070, 691.150 1002.797, 692.556 1002.156 C 693.962 1001.516, 694.836 1000.543, 694.497 999.996 C 693.663 998.646, 691.856 998.793, 689.766 1000.381 M 1018.055 1007.511 C 1011.778 1015.411, 1010.297 1019.440, 1011.438 1025.521 C 1012.378 1030.534, 1017.573 1036.189, 1020.881 1035.802 C 1023.120 1035.540, 1023.634 1034.769, 1024.744 1030 C 1025.448 1026.975, 1025.906 1021.125, 1025.762 1017 C 1025.567 1011.424, 1025.821 1009.564, 1026.750 1009.750 C 1027.483 1009.897, 1028 1008.967, 1028 1007.500 C 1028 1006.125, 1027.501 1005, 1026.892 1005 C 1026.209 1005, 1026.024 1004.040, 1026.411 1002.500 C 1027.602 997.755, 1024.175 999.810, 1018.055 1007.511 M 648.006 1004.191 C 648.010 1004.911, 648.685 1006.789, 649.506 1008.364 C 651.662 1012.498, 651.477 1012.851, 646.500 1014.104 C 643.228 1014.928, 642 1015.735, 642 1017.060 C 642 1019.590, 643.686 1020.383, 644.807 1018.381 C 645.341 1017.427, 646.247 1017.034, 646.933 1017.459 C 647.818 1018.005, 647.681 1018.695, 646.410 1020.099 C 644.773 1021.908, 644.789 1022, 646.738 1022 C 648.966 1022, 650.260 1019.840, 649.390 1017.574 C 648.995 1016.544, 650.021 1015.916, 653.094 1015.308 C 655.431 1014.846, 657.521 1013.937, 657.737 1013.288 C 657.954 1012.639, 656.301 1010.953, 654.065 1009.541 C 651.829 1008.130, 650 1006.332, 650 1005.546 C 650 1004.761, 649.550 1003.840, 649 1003.500 C 648.450 1003.160, 648.003 1003.471, 648.006 1004.191 M 675.250 1006.745 C 671.676 1008.524, 670.900 1011, 673.917 1011 C 674.971 1011, 675.983 1010.654, 676.167 1010.232 C 676.350 1009.809, 677.798 1008.459, 679.385 1007.232 C 681.717 1005.428, 681.908 1005.012, 680.385 1005.064 C 679.348 1005.099, 677.038 1005.856, 675.250 1006.745 M 743.380 1006.452 C 742.605 1008.473, 743.758 1010, 746.059 1010 C 747.463 1010, 748 1009.308, 748 1007.500 C 748 1005.654, 747.469 1005, 745.969 1005 C 744.851 1005, 743.686 1005.653, 743.380 1006.452 M 713.667 1006.667 C 712.188 1008.145, 713.143 1011.108, 715.436 1012.153 C 720.038 1014.250, 722.864 1011.007, 719.429 1007.571 C 717.811 1005.954, 714.845 1005.488, 713.667 1006.667 M 674 1021.765 C 674 1024.262, 675.929 1026, 678.700 1026 C 681.451 1026, 681.615 1025.205, 679.250 1023.343 C 675.273 1020.214, 674 1019.831, 674 1021.765 M 728.250 1030.040 C 725.655 1031.073, 725.180 1035.074, 727.430 1036.942 C 728.217 1037.595, 730.579 1037.988, 732.680 1037.815 C 735.946 1037.546, 736.544 1037.125, 736.801 1034.914 C 737.265 1030.923, 732.647 1028.291, 728.250 1030.040" stroke="none" fill="#040c12" fill-rule="evenodd"/></svg>