<svg xmlns="http://www.w3.org/2000/svg" width="2937" height="839" viewBox="0 0 2937 839" version="1.1"><path d="M 391 65.644 C 356.012 68.817, 321.892 76.771, 290.500 89.071 C 183.570 130.970, 102.706 223.285, 75.514 334.500 C 55.121 417.906, 65.445 506.222, 104.388 581.500 C 155.651 680.595, 249.863 750.088, 358.500 768.939 C 380.889 772.824, 390.082 773.500, 420.500 773.498 C 451.807 773.496, 464.150 772.459, 487.500 767.874 C 571.050 751.465, 644.383 706.905, 697.945 640 C 775.042 543.697, 795.853 412.047, 752.484 294.985 C 746.285 278.254, 731.025 247.388, 721.336 231.984 C 669.120 148.969, 586.421 91.255, 492.161 72.049 C 466.067 66.732, 456.793 65.831, 425 65.522 C 408.775 65.365, 393.475 65.420, 391 65.644 M 388.500 75.049 C 336.618 80.265, 286.814 96.504, 243.240 122.413 C 182.782 158.360, 132.912 214.433, 104.413 278.507 C 63.236 371.083, 64.539 476.863, 107.974 567.622 C 153.204 662.131, 239.600 731.930, 341.002 755.885 C 369.832 762.696, 386.274 764.485, 420 764.479 C 450.538 764.473, 463.104 763.342, 487.723 758.383 C 624.774 730.778, 731.570 623.944, 759.008 487 C 767.433 444.952, 767.747 397.266, 759.873 356 C 746.577 286.325, 713.932 224.628, 664.084 174.967 C 609.536 120.624, 541.936 87.342, 464 76.455 C 450.435 74.561, 402.281 73.664, 388.500 75.049 M 429.181 117.736 C 428.494 129.266, 427.468 142.862, 426.900 147.950 C 426.332 153.038, 426.009 157.330, 426.183 157.488 C 426.358 157.646, 429.721 157.951, 433.658 158.165 L 440.816 158.555 441.457 148.527 C 442.900 125.938, 444.192 109.175, 444.909 103.750 C 445.664 98.039, 445.652 98, 443.084 97.991 C 441.663 97.987, 438.234 97.710, 435.464 97.377 L 430.429 96.772 429.181 117.736 M 372.183 99.740 C 366.994 100.100, 366.879 100.174, 367.446 102.805 C 368.590 108.104, 371.020 133.742, 371.660 147.243 L 372.310 160.985 379.405 160.399 C 389.126 159.597, 396.988 158.365, 400.139 157.151 C 407.586 154.281, 413.355 145.341, 414.601 134.737 C 415.370 128.193, 413.627 117.149, 411.017 112.034 C 408.474 107.048, 401.962 101.361, 397.321 100.072 C 393.687 99.063, 383.797 98.932, 372.183 99.740 M 327 110.234 C 317.925 113.015, 310.408 115.355, 310.297 115.432 C 310.185 115.510, 312.585 123.207, 315.630 132.537 C 318.676 141.867, 322.667 154.900, 324.499 161.500 C 326.331 168.100, 328.206 173.439, 328.665 173.365 C 329.124 173.291, 337.223 170.870, 346.663 167.985 L 363.826 162.739 362.481 158.271 C 361.742 155.814, 360.989 153.656, 360.809 153.475 C 360.628 153.295, 356.055 154.689, 350.647 156.574 C 345.238 158.458, 340.424 160, 339.949 160 C 339.141 160, 335 147.603, 335 145.185 C 335 144.580, 338.172 143.140, 342.049 141.985 C 349.671 139.716, 349.455 140.104, 346.891 133.250 C 345.879 130.544, 346.571 130.567, 339.500 133 C 336.303 134.100, 333.156 135, 332.507 135 C 331.859 135, 330.608 132.412, 329.729 129.250 C 328.849 126.088, 327.839 122.742, 327.483 121.815 C 326.957 120.445, 328.044 119.758, 333.313 118.131 C 336.875 117.030, 341.412 115.826, 343.395 115.454 C 345.378 115.082, 346.997 114.265, 346.994 113.639 C 346.983 111.404, 344.893 105.002, 344.203 105.088 C 343.816 105.136, 336.075 107.452, 327 110.234 M 492.579 112.250 C 491.050 118.197, 478.906 155.179, 476.520 161.154 C 475.992 162.476, 476.922 163.120, 481.143 164.357 C 484.049 165.209, 486.484 165.815, 486.554 165.703 C 486.624 165.591, 489.434 156.950, 492.798 146.500 C 496.162 136.050, 499.008 127.725, 499.122 128 C 499.236 128.275, 499.592 136.106, 499.914 145.402 L 500.500 162.304 504.248 163.599 L 507.996 164.894 518.219 151.502 C 523.842 144.136, 528.569 138.236, 528.724 138.391 C 528.879 138.546, 526.309 146.940, 523.012 157.046 C 519.716 167.151, 517.352 175.691, 517.759 176.023 C 518.776 176.852, 530.099 180.237, 530.492 179.829 C 530.666 179.648, 532.201 174.712, 533.902 168.861 C 535.603 163.009, 539.722 150.248, 543.055 140.502 C 546.389 130.756, 548.978 122.671, 548.808 122.533 C 548.639 122.396, 545.009 121.125, 540.742 119.708 L 532.984 117.132 522.742 130.562 L 512.500 143.991 511.824 139.746 C 511.452 137.411, 511.115 129.799, 511.074 122.832 L 511 110.164 503.247 107.582 C 498.982 106.162, 495.257 105, 494.968 105 C 494.679 105, 493.604 108.263, 492.579 112.250 M 383.362 114.250 C 383.690 117.688, 384.479 126.648, 385.116 134.163 C 385.753 141.677, 386.613 148.374, 387.028 149.045 C 387.533 149.862, 388.985 150.038, 391.438 149.578 C 398.273 148.295, 401.027 139.619, 399.068 125.537 C 397.291 112.758, 393.727 108, 385.933 108 L 382.767 108 383.362 114.250 M 277.795 129.987 C 276.307 130.436, 269.741 133.618, 263.202 137.058 L 251.315 143.314 255.330 149.907 C 257.538 153.533, 264.033 165.622, 269.763 176.772 L 280.181 197.043 285.841 193.872 C 288.953 192.127, 291.837 190.408, 292.248 190.052 C 292.660 189.695, 290.522 184.925, 287.498 179.452 C 281.614 168.801, 281.147 167.264, 283.524 166.352 C 284.526 165.968, 288.397 168.858, 294.823 174.787 L 304.598 183.807 312.259 179.809 L 319.919 175.810 308.210 166.772 C 301.769 161.801, 296.299 157.555, 296.053 157.336 C 295.806 157.118, 296.369 155.645, 297.303 154.065 C 298.314 152.352, 299 149.087, 299 145.982 C 299 133.961, 289.181 126.555, 277.795 129.987 M 274.500 141.850 C 268.633 143.757, 268.556 144.124, 272.518 151.331 C 274.534 154.999, 276.783 158, 277.515 158 C 278.247 158, 280.231 156.835, 281.923 155.411 C 286.707 151.386, 285.952 145.165, 280.316 142.163 C 277.943 140.899, 277.496 140.875, 274.500 141.850 M 582.551 144.750 C 581.940 147.511, 565.918 162.292, 547.240 177.326 C 542.697 180.983, 538.948 184.261, 538.909 184.610 C 538.870 184.959, 540.761 186.517, 543.111 188.073 L 547.383 190.902 551.669 186.951 C 554.027 184.778, 556.272 183, 556.660 183 C 558.219 183, 569.966 190.575, 569.983 191.591 C 569.992 192.191, 569.346 194.855, 568.546 197.512 C 567.747 200.168, 567.307 202.688, 567.569 203.112 C 568.209 204.147, 580.049 211.312, 580.369 210.858 C 580.508 210.661, 582.046 204.650, 583.787 197.500 C 586.776 185.228, 595.067 155.404, 596.471 151.877 C 596.955 150.661, 595.475 149.216, 590.583 146.127 C 586.989 143.857, 583.849 142, 583.604 142 C 583.359 142, 582.885 143.238, 582.551 144.750 M 223.789 163.277 C 216.249 168.900, 210.061 174.007, 210.039 174.628 C 210.018 175.248, 210.706 176.341, 211.569 177.057 C 213.344 178.531, 238.184 211.244, 242.468 217.750 C 244.007 220.088, 245.675 222, 246.176 222 C 246.676 222, 249.536 220.150, 252.532 217.888 L 257.977 213.777 256.035 211.138 C 254.967 209.687, 251.607 205.350, 248.568 201.500 C 245.529 197.650, 243.034 194.024, 243.022 193.441 C 243.010 192.859, 245.678 190.650, 248.950 188.532 L 254.901 184.681 252.200 180.862 C 250.715 178.761, 249.221 177.033, 248.881 177.021 C 248.540 177.010, 246.001 178.800, 243.237 181 C 240.474 183.200, 237.730 185, 237.139 185 C 235.868 185, 228 174.828, 228 173.185 C 228 172.122, 240.756 162.582, 243.323 161.725 C 244.474 161.341, 239.460 152.967, 238.114 153.027 C 237.776 153.043, 231.330 157.655, 223.789 163.277 M 571.604 169.052 C 567.972 172.449, 565.003 175.515, 565.008 175.865 C 565.017 176.616, 573.032 181.311, 573.483 180.830 C 574.142 180.128, 578.934 163.601, 578.581 163.248 C 578.376 163.042, 575.236 165.654, 571.604 169.052 M 621.841 178.846 C 618.758 182.506, 609.458 192.516, 601.175 201.091 L 586.115 216.682 591.492 221.992 L 596.870 227.303 601.759 221.902 C 604.448 218.931, 608.377 214.563, 610.490 212.195 L 614.332 207.891 620.014 213.514 L 625.696 219.137 628.787 215.318 L 631.877 211.500 626.283 206.463 L 620.690 201.427 626.278 195.463 L 631.867 189.500 639.489 197 L 647.110 204.500 650.055 201.234 C 651.675 199.438, 653 197.577, 653 197.098 C 653 196.619, 647.250 190.819, 640.223 184.210 L 627.446 172.192 621.841 178.846 M 389.500 181.533 C 318.380 190.832, 254.799 231.609, 216.474 292.500 C 209.477 303.618, 199.365 324.277, 194.567 337.259 C 183.536 367.106, 178.469 403.179, 180.803 435.243 C 181.446 444.077, 182.238 451.572, 182.564 451.897 C 182.889 452.222, 185.004 450.506, 187.264 448.083 C 190.403 444.717, 194.692 442.091, 205.436 436.952 L 219.500 430.226 256.777 389.723 C 277.279 367.446, 295.054 348.951, 296.277 348.623 C 297.500 348.295, 300.751 348.021, 303.502 348.014 C 308.317 348.001, 309.213 347.494, 327.450 334.470 C 343.105 323.289, 352.027 315.778, 378.817 291.220 C 396.648 274.874, 412.244 260.957, 413.475 260.294 C 415.663 259.113, 415.728 258.561, 416.443 234.794 C 416.845 221.432, 417.594 209.994, 418.106 209.375 C 421.427 205.364, 436.260 205.219, 448 209.083 C 454.789 211.317, 470.854 212.121, 477.750 210.571 L 481 209.841 481 225.353 C 481 242.958, 481.992 241.212, 471 242.955 C 461.729 244.424, 457.475 244.262, 446 242 C 435.339 239.899, 430.250 239.542, 428.372 240.765 C 427.711 241.196, 427.090 245.473, 426.872 251.088 L 426.500 260.676 466.500 292.442 C 488.500 309.913, 507.765 325.397, 509.312 326.850 C 511.330 328.747, 512.991 332.326, 515.198 339.536 L 518.272 349.580 529.886 362.385 L 541.500 375.191 585.211 394.095 L 628.923 413 640.961 413 C 653.875 413, 654.135 413.091, 658.198 419.022 C 659.890 421.493, 659.895 421.485, 659.944 416 C 660.012 408.341, 658.199 389.225, 656.395 378.592 C 643.753 304.073, 595.044 238.872, 526.500 204.716 C 500.576 191.798, 474.594 184.086, 446.789 181.058 C 433.815 179.644, 401.918 179.909, 389.500 181.533 M 189.084 193.415 L 183.736 198.830 187.618 202.115 C 189.753 203.921, 199.615 213.410, 209.534 223.200 L 227.568 241 232.976 235.524 L 238.384 230.048 229.942 222.339 C 225.299 218.099, 215.443 208.639, 208.041 201.315 C 200.638 193.992, 194.548 188, 194.507 188 C 194.465 188, 192.025 190.437, 189.084 193.415 M 163.119 223.150 C 156.941 231.391, 151.665 238.709, 151.395 239.412 C 150.965 240.535, 157.722 246.754, 158.392 245.851 C 158.535 245.658, 159.636 243.863, 160.838 241.862 C 165.091 234.785, 164.663 234.689, 179.751 246.113 C 187.296 251.826, 196.322 258.903, 199.810 261.840 C 203.299 264.777, 206.264 267.027, 206.400 266.840 C 206.536 266.653, 208.718 263.765, 211.250 260.422 L 215.852 254.344 212.842 252.566 C 206.846 249.024, 175 224.779, 175 223.756 C 175 223.178, 176.625 220.722, 178.612 218.298 C 180.598 215.874, 182.061 213.784, 181.862 213.655 C 181.663 213.525, 179.892 212.237, 177.926 210.793 L 174.351 208.166 163.119 223.150 M 442 223.996 L 442 237.801 446.750 238.834 C 449.363 239.402, 453.863 240.100, 456.750 240.386 L 462 240.906 462 228.047 L 462 215.188 456.750 214.479 C 453.863 214.090, 449.363 212.966, 446.750 211.982 L 442 210.192 442 223.996 M 662.471 212.674 C 653.455 220.072, 624.095 242.076, 617.144 246.644 C 616.949 246.773, 618.877 249.591, 621.429 252.907 L 626.068 258.937 631.938 254.207 C 635.166 251.606, 639.789 248.054, 642.211 246.315 L 646.615 243.152 650.558 249.049 C 652.726 252.291, 654.950 254.945, 655.500 254.946 C 656.050 254.946, 657.963 253.721, 659.751 252.223 L 663.001 249.500 658.328 243.635 L 653.655 237.769 656.077 235.848 C 657.410 234.792, 660.394 232.585, 662.710 230.943 L 666.919 227.959 672.038 235.230 C 674.854 239.228, 677.537 243.169, 678.001 243.987 C 678.702 245.223, 679.480 244.961, 682.590 242.444 C 684.649 240.777, 686.372 239.178, 686.417 238.890 C 686.463 238.602, 681.762 232.037, 675.971 224.301 L 665.441 210.237 662.471 212.674 M 687.945 252.737 C 683.535 255.718, 671.144 263.186, 643.066 279.787 C 641.897 280.478, 642.325 281.773, 645.389 286.817 C 647.455 290.218, 649.456 293, 649.836 293 C 650.216 293, 652.913 291.393, 655.830 289.428 C 663.893 283.999, 688.602 269.230, 695.173 265.913 C 698.378 264.295, 700.999 262.640, 700.997 262.236 C 700.995 261.663, 694.481 250.268, 693.589 249.278 C 693.480 249.156, 690.939 250.713, 687.945 252.737 M 143.277 252.250 C 142.745 252.938, 139.255 259.350, 135.522 266.500 C 131.789 273.650, 127.884 280.919, 126.846 282.653 L 124.957 285.805 129.371 288.272 L 133.785 290.739 136.362 284.768 L 138.938 278.796 154.547 286.961 C 163.132 291.452, 173.402 297.045, 177.369 299.391 L 184.584 303.656 188.235 296.843 L 191.886 290.030 182.693 285.547 C 163.237 276.057, 147 266.884, 147 265.382 C 147 264.545, 148.343 261.909, 149.984 259.523 L 152.968 255.185 148.953 253.093 C 144.221 250.626, 144.502 250.668, 143.277 252.250 M 390.926 310.847 C 362.901 337.968, 361.914 338.803, 339.600 354.250 L 316.848 370 309.674 370.021 L 302.500 370.042 291.874 383.271 L 281.248 396.500 292.125 418.244 L 303.003 439.988 295.936 456.076 L 288.869 472.164 297.161 481.236 L 305.453 490.308 307.636 505.055 L 309.819 519.802 318.138 531.575 C 322.947 538.380, 325.963 543.512, 325.286 543.738 C 322.598 544.634, 307.132 555.593, 301.178 560.820 L 294.756 566.458 272.850 555.149 L 250.944 543.840 233.722 554.540 L 216.500 565.240 193.500 570.740 C 180.850 573.766, 170.336 576.388, 170.136 576.568 C 169.936 576.747, 172.815 581.306, 176.533 586.697 C 206.313 629.876, 245.756 663.217, 295.034 686.865 C 327.808 702.593, 356.741 710.326, 393.045 713.060 C 455.535 717.767, 513.102 698.110, 534.927 664.612 C 556.308 631.796, 539.189 594.469, 492.664 572.456 C 447.296 550.990, 381.464 549.862, 335.313 569.759 C 317.048 577.633, 305.361 585.492, 294.550 597.169 C 290.947 601.060, 288 603.894, 288 603.468 C 288 600.625, 296.692 588.175, 303.891 580.708 C 317.916 566.158, 335.205 555.876, 359 547.933 C 424.590 526.038, 508.252 538.499, 548.512 576.160 C 552.080 579.498, 555 581.928, 555 581.560 C 555 579.698, 546.367 568.721, 540.338 562.916 C 532.413 555.286, 527.878 551.773, 519.380 546.680 C 514.970 544.038, 511.559 540.815, 507.172 535.144 L 501.085 527.274 495.143 503.571 C 491.875 490.534, 489.043 479.716, 488.851 479.531 C 488.039 478.751, 449.649 462, 448.674 462 C 448.087 462, 439.032 468.494, 428.553 476.431 L 409.500 490.861 393.624 495.972 C 384.892 498.783, 377.413 500.951, 377.004 500.791 C 376.595 500.631, 386.440 476.968, 398.880 448.207 L 421.500 395.914 434.250 387.446 C 441.262 382.788, 447 378.777, 447 378.532 C 447 377.523, 420.732 285.408, 420.142 284.347 C 419.756 283.654, 408.091 294.235, 390.926 310.847 M 690.594 287.028 C 684.788 288.035, 674.922 292.733, 669.966 296.852 C 668.023 298.467, 665.165 302.117, 663.616 304.964 C 653.701 323.181, 669.739 341.474, 691.684 336.977 C 713.496 332.508, 727.088 314.584, 720.104 299.500 C 715.492 289.539, 704.038 284.698, 690.594 287.028 M 692.333 302.870 C 682.448 306.311, 676.089 309.917, 672.605 314.057 C 669.477 317.775, 669.356 319.356, 672 322 C 675.630 325.630, 685.477 324.079, 698.817 317.777 C 710.919 312.059, 715.369 305.473, 709.777 301.557 C 706.534 299.285, 701.555 299.659, 692.333 302.870 M 123.500 306.840 C 118.541 309.182, 114.744 312.692, 112.389 317.113 C 109.812 321.949, 109.973 331.322, 112.723 336.568 C 120.742 351.867, 145.847 359.651, 160.845 351.488 C 168.004 347.592, 171.313 342.454, 171.823 334.444 C 172.532 323.298, 166.504 314.978, 153.123 308.638 C 147.374 305.914, 145.247 305.464, 137 305.225 C 129.359 305.004, 126.717 305.320, 123.500 306.840 M 121.655 320.829 C 119.159 323.587, 119.656 326.876, 123.048 330.044 C 128.762 335.382, 150.953 342.232, 157.339 340.630 C 158.789 340.266, 160.685 338.885, 161.552 337.560 C 162.965 335.405, 162.973 334.848, 161.629 332.250 C 157.372 324.017, 126.700 315.254, 121.655 320.829 M 730.291 344.016 C 727.139 345.285, 682.746 353.997, 679.340 354.015 C 673.749 354.045, 673.733 354.225, 677.619 373.641 L 681.228 391.670 685.864 390.659 C 688.414 390.102, 690.658 389.530, 690.852 389.388 C 691.045 389.246, 690.515 386.963, 689.673 384.315 C 687.904 378.747, 685.804 368.862, 686.289 368.378 C 686.917 367.749, 710.555 362.854, 723.542 360.663 L 736.584 358.462 735.200 350.731 C 734.439 346.479, 733.520 343.029, 733.158 343.063 C 732.796 343.098, 731.506 343.527, 730.291 344.016 M 130.609 371.166 C 130.327 373, 129.905 376.637, 129.671 379.250 L 129.246 384 136.998 384 C 148.699 384, 151 384.665, 151 388.048 C 151 392.056, 146.644 396.749, 141.677 398.091 C 135.050 399.882, 123.396 398.786, 116.756 395.746 C 109.451 392.401, 106.698 388.380, 107.350 382 C 107.733 378.245, 108.508 376.879, 112.033 373.750 L 116.257 370 111.879 369.989 C 109.470 369.983, 105.884 369.711, 103.909 369.384 C 100.332 368.792, 100.314 368.808, 98.945 373.645 C 93.491 392.916, 105.506 410.646, 126.267 413.963 C 140.185 416.186, 152.015 410.905, 157.547 400 C 159.837 395.486, 160.599 383.666, 159.024 377.101 C 158.350 374.292, 157.507 371.814, 157.150 371.593 C 156.792 371.373, 151.443 370.687, 145.262 370.070 C 139.082 369.452, 133.372 368.696, 132.573 368.390 C 131.533 367.991, 130.977 368.778, 130.609 371.166 M 525 405.812 L 525 419.534 536.575 448.517 C 542.941 464.458, 548.903 478.250, 549.825 479.166 C 550.746 480.082, 560.725 487.270, 572 495.138 L 592.500 509.445 620.847 511.160 L 649.195 512.874 656.847 519.137 C 661.056 522.582, 669.568 529.611, 675.761 534.757 L 687.022 544.114 689.110 539.307 C 694.268 527.428, 699.346 513.596, 702.437 503 C 705.732 491.706, 710.339 471.954, 709.783 471.503 C 709.627 471.377, 699.150 467.830, 686.500 463.621 C 673.850 459.411, 662.983 455.637, 662.350 455.234 C 661.718 454.830, 658.060 449.734, 654.222 443.909 L 647.243 433.318 634.547 432.639 L 621.851 431.960 580.176 414.882 C 557.254 405.489, 535.462 396.518, 531.750 394.946 L 525 392.089 525 405.812 M 730 395.005 C 726.975 395.403, 714.712 396.330, 702.750 397.065 L 681 398.401 681 403.075 C 681 405.646, 681.266 409.082, 681.592 410.709 C 682.182 413.662, 682.195 413.667, 687.342 412.877 C 692.249 412.125, 734.301 409, 739.524 409 C 741.781 409, 742 408.614, 742 404.625 C 742 402.219, 741.719 398.844, 741.375 397.125 C 740.685 393.673, 740.454 393.630, 730 395.005 M 343.500 637 L 343.500 670 357 670.001 L 370.500 670.001 370.150 660.976 L 369.799 651.951 373.467 647.476 C 375.484 645.014, 377.505 643, 377.958 643 C 378.864 643, 392.102 662.936, 394.083 667.284 L 395.321 670 410.282 670 C 424.669 670, 425.191 669.929, 423.872 668.149 C 423.117 667.132, 416.322 657.134, 408.770 645.933 L 395.040 625.568 397.690 622.802 C 400.709 619.650, 406.645 617.187, 412.500 616.657 L 416.500 616.294 416.798 610.147 L 417.095 604 411.023 604 C 398.751 604, 389.090 609.439, 376.966 623.176 L 369.840 631.249 370.170 617.623 L 370.500 603.997 357 603.999 L 343.500 604 343.500 637 M 447.500 607.482 C 437.513 609.340, 430.481 612.166, 430.583 614.281 C 430.629 615.227, 430.742 618.168, 430.833 620.817 L 431 625.635 438.105 622.108 C 448.581 616.908, 460.431 616.431, 465.025 621.025 C 470.290 626.290, 466.177 631.367, 443.427 647.688 L 427 659.472 427 664.736 L 427 670 461 670 L 495 670 495 663.344 L 495 656.688 475.500 657.286 C 464.775 657.615, 456 657.754, 456 657.595 C 456 657.436, 462.855 653.075, 471.234 647.903 C 479.613 642.731, 488.838 636.225, 491.734 633.443 C 496.598 628.773, 497 628.034, 497 623.770 C 497 618.281, 493.964 614.043, 487.768 610.882 C 478.712 606.262, 461.758 604.831, 447.500 607.482" stroke="none" fill="#fafafb" fill-rule="evenodd"/><path d="M 388.500 75.049 C 336.618 80.265, 286.814 96.504, 243.240 122.413 C 182.782 158.360, 132.912 214.433, 104.413 278.507 C 63.236 371.083, 64.539 476.863, 107.974 567.622 C 153.204 662.131, 239.600 731.930, 341.002 755.885 C 369.832 762.696, 386.274 764.485, 420 764.479 C 450.538 764.473, 463.104 763.342, 487.723 758.383 C 624.774 730.778, 731.570 623.944, 759.008 487 C 767.433 444.952, 767.747 397.266, 759.873 356 C 746.577 286.325, 713.932 224.628, 664.084 174.967 C 609.536 120.624, 541.936 87.342, 464 76.455 C 450.435 74.561, 402.281 73.664, 388.500 75.049 M 989.500 88.689 C 944.372 94.544, 907.302 117.608, 881.763 155.717 C 849.708 203.551, 844.204 274.370, 868.724 323.500 C 887.393 360.908, 921.021 385.088, 963.500 391.649 C 978.533 393.971, 1006.466 392.977, 1022.851 389.537 C 1038.152 386.325, 1056.184 380.361, 1069.424 374.133 L 1079.500 369.393 1079.571 317.946 C 1079.636 269.891, 1079.913 263.252, 1082.594 245.250 L 1083.227 241 1043 241 L 1002.773 241 1003.409 245.250 C 1005.420 258.697, 1006.029 268.531, 1006.551 296 C 1006.869 312.775, 1006.763 330.100, 1006.315 334.500 L 1005.500 342.500 1000.500 344.263 C 996.782 345.574, 993.192 345.944, 986.500 345.708 C 978.832 345.437, 976.538 344.923, 971 342.241 C 950.637 332.378, 936.964 307.513, 932.959 273.062 C 931.143 257.447, 932.183 224.339, 934.916 210.735 C 937.249 199.118, 942.615 182.672, 946.722 174.553 C 962.414 143.523, 990.516 129.687, 1018.759 139.086 C 1028.618 142.367, 1039.180 150.047, 1052.750 163.801 L 1065 176.218 1065 137.144 C 1065 100.951, 1064.871 98.002, 1063.250 97.143 C 1059.799 95.315, 1040.280 91.006, 1028.699 89.517 C 1018.011 88.143, 997.111 87.701, 989.500 88.689 M 1205.334 89.415 C 1144.835 100.946, 1104 161.828, 1104 240.500 C 1104 302.323, 1129.243 354.634, 1170.766 378.859 C 1186.115 387.814, 1200.849 392.037, 1219.273 392.764 C 1251.585 394.037, 1277.904 383.251, 1301.196 359.188 C 1322.908 336.759, 1335.662 309.217, 1341.607 271.928 C 1343.921 257.413, 1343.924 224.415, 1341.613 209.500 C 1332.064 147.862, 1297.918 103.756, 1250.119 91.315 C 1238.135 88.196, 1216.539 87.280, 1205.334 89.415 M 1336.500 119.488 C 1336.500 141.681, 1336.694 144.917, 1338 144.518 C 1342.446 143.159, 1371.020 141, 1384.561 141 L 1400.178 141 1399.695 246.250 C 1399.256 341.949, 1398.877 357.869, 1396.469 381.761 L 1395.838 388.023 1436.169 387.761 L 1476.500 387.500 1476.218 383.500 C 1476.062 381.300, 1475.490 374.550, 1474.947 368.500 C 1473.721 354.861, 1471.827 178.314, 1472.676 156.750 L 1473.295 141 1488.676 141 C 1502.030 141, 1530.587 143.169, 1535 144.518 C 1536.306 144.917, 1536.500 141.682, 1536.500 119.489 L 1536.500 94.001 1436.500 94.001 L 1336.500 94 1336.500 119.488 M 1558.500 119.457 C 1558.500 144.391, 1558.541 144.904, 1560.500 144.478 C 1568.078 142.832, 1580.502 141.831, 1599.843 141.310 L 1622.186 140.707 1621.697 245.604 C 1621.307 329.291, 1620.892 354.139, 1619.642 368.500 C 1618.780 378.400, 1618.058 386.837, 1618.037 387.250 C 1617.998 388.048, 1697.341 388.326, 1698.136 387.530 C 1698.395 387.272, 1698.273 383.559, 1697.866 379.280 C 1695.178 351.036, 1692.689 187.151, 1694.455 154.750 L 1695.205 141 1710.631 141 C 1724.021 141, 1752.581 143.167, 1757 144.518 C 1758.306 144.917, 1758.500 141.682, 1758.500 119.489 L 1758.500 94.001 1658.500 94 L 1558.500 94 1558.500 119.457 M 1774.326 99.250 C 1776.981 122.403, 1777.500 145.633, 1777.494 241 C 1777.487 336.694, 1777.094 354.306, 1774.349 381.750 L 1773.724 388 1814.010 388 L 1854.295 388 1853.650 378.750 C 1850.875 338.926, 1850.636 327.966, 1850.636 240.500 C 1850.636 153.432, 1850.948 139.095, 1853.639 102.750 L 1854.287 94 1814.006 94 L 1773.725 94 1774.326 99.250 M 1888.393 96.750 C 1890.896 109.229, 1891.496 138.262, 1891.423 243.500 C 1891.361 334.151, 1891.070 357.433, 1889.841 370.500 C 1889.012 379.300, 1888.511 386.837, 1888.726 387.250 C 1888.942 387.663, 1906.681 388, 1928.148 388 L 1967.178 388 1966.611 381.750 C 1966.299 378.313, 1965.757 350.422, 1965.405 319.772 L 1964.765 264.044 1981.133 264.558 C 2001.817 265.207, 2028.302 266.852, 2034.919 267.898 L 2040 268.701 2040 242.064 L 2040 215.427 2032.176 216.099 C 2027.873 216.469, 2011.246 217.104, 1995.227 217.511 L 1966.101 218.251 1965.522 215.876 C 1965.203 214.569, 1965.068 197.750, 1965.221 178.500 L 1965.500 143.500 1998 143.623 C 2028.009 143.737, 2053.403 145.020, 2063.718 146.943 C 2066.038 147.376, 2068.176 147.491, 2068.468 147.198 C 2068.761 146.906, 2069 134.817, 2069 120.333 L 2069 94 1978.421 94 L 1887.841 94 1888.393 96.750 M 2086.331 101.675 C 2089.089 135.908, 2089.437 151.596, 2089.417 241 C 2089.397 329.808, 2089.083 344.052, 2086.362 379.455 L 2085.705 388 2124.686 388 C 2146.125 388, 2163.854 387.813, 2164.083 387.584 C 2164.312 387.355, 2164.179 383.418, 2163.786 378.834 C 2163.394 374.250, 2162.770 346.969, 2162.401 318.209 L 2161.729 265.918 2170.538 266.209 L 2179.348 266.500 2196.195 311.500 C 2205.462 336.250, 2215.454 363.475, 2218.400 372 L 2223.757 387.500 2267.966 387.760 C 2292.280 387.904, 2312.017 387.679, 2311.825 387.260 C 2311.633 386.842, 2307.825 379.300, 2303.361 370.500 C 2298.898 361.700, 2292.874 349.325, 2289.975 343 C 2278.101 317.096, 2250 253.495, 2250.004 252.533 C 2250.007 251.965, 2253.291 249.815, 2257.303 247.755 C 2290.561 230.683, 2307.393 191.894, 2298.420 153 C 2293.091 129.900, 2273.279 109.319, 2248.444 101.084 C 2230.018 94.974, 2226.314 94.710, 2152.600 94.259 L 2085.700 93.850 2086.331 101.675 M 2330.368 98.250 C 2332.916 116.466, 2333.500 143.155, 2333.500 241.500 C 2333.500 340.783, 2333.037 361.488, 2330.332 383.255 L 2329.741 388.010 2423.620 387.755 L 2517.500 387.500 2517.500 361.500 L 2517.500 335.500 2514.500 335.744 C 2512.850 335.879, 2506.775 336.432, 2501 336.974 C 2484.658 338.507, 2421.278 340.398, 2413.750 339.577 L 2407 338.841 2407 300.301 L 2407 261.762 2442.250 262.232 C 2461.637 262.490, 2478.287 263.042, 2479.250 263.458 C 2480.891 264.167, 2481 262.609, 2481 238.463 L 2481 212.712 2473.250 213.343 C 2468.988 213.690, 2452.338 214.276, 2436.250 214.646 L 2407 215.319 2407 178.039 L 2407 140.759 2444.750 141.319 C 2465.512 141.628, 2486.100 142.324, 2490.500 142.867 C 2494.900 143.409, 2501.537 144.174, 2505.250 144.565 L 2512 145.276 2512 119.638 L 2512 94 2420.886 94 L 2329.773 94 2330.368 98.250 M 2541.349 100.250 C 2544.084 127.591, 2544.480 145.355, 2544.480 240.500 C 2544.480 336.149, 2544.156 350.599, 2541.324 381.362 L 2540.692 388.223 2594.596 387.731 C 2651.241 387.214, 2657.780 386.756, 2676.087 382.030 C 2712.564 372.612, 2739.818 345.142, 2754.438 303.058 C 2767.849 264.457, 2767.805 210.212, 2754.333 172.692 C 2742.131 138.712, 2716.692 113.201, 2684.500 102.664 C 2661.602 95.170, 2648.728 94, 2589.118 94 L 2540.724 94 2541.349 100.250 M 2791.397 98.750 C 2794.023 120.104, 2794.500 141.828, 2794.500 240 C 2794.500 338.244, 2793.967 362.426, 2791.341 383.250 L 2790.742 388 2830.705 388 C 2852.684 388, 2870.857 387.810, 2871.090 387.577 C 2871.322 387.344, 2870.948 380.482, 2870.258 372.327 C 2867.179 335.946, 2867.176 145.140, 2870.254 108.750 L 2871.501 94 2831.157 94 L 2790.812 94 2791.397 98.750 M 429.181 117.736 C 428.494 129.266, 427.468 142.862, 426.900 147.950 C 426.332 153.038, 426.009 157.330, 426.183 157.488 C 426.358 157.646, 429.721 157.951, 433.658 158.165 L 440.816 158.555 441.457 148.527 C 442.900 125.938, 444.192 109.175, 444.909 103.750 C 445.664 98.039, 445.652 98, 443.084 97.991 C 441.663 97.987, 438.234 97.710, 435.464 97.377 L 430.429 96.772 429.181 117.736 M 372.183 99.740 C 366.994 100.100, 366.879 100.174, 367.446 102.805 C 368.590 108.104, 371.020 133.742, 371.660 147.243 L 372.310 160.985 379.405 160.399 C 389.126 159.597, 396.988 158.365, 400.139 157.151 C 407.586 154.281, 413.355 145.341, 414.601 134.737 C 415.370 128.193, 413.627 117.149, 411.017 112.034 C 408.474 107.048, 401.962 101.361, 397.321 100.072 C 393.687 99.063, 383.797 98.932, 372.183 99.740 M 327 110.234 C 317.925 113.015, 310.408 115.355, 310.297 115.432 C 310.185 115.510, 312.585 123.207, 315.630 132.537 C 318.676 141.867, 322.667 154.900, 324.499 161.500 C 326.331 168.100, 328.206 173.439, 328.665 173.365 C 329.124 173.291, 337.223 170.870, 346.663 167.985 L 363.826 162.739 362.481 158.271 C 361.742 155.814, 360.989 153.656, 360.809 153.475 C 360.628 153.295, 356.055 154.689, 350.647 156.574 C 345.238 158.458, 340.424 160, 339.949 160 C 339.141 160, 335 147.603, 335 145.185 C 335 144.580, 338.172 143.140, 342.049 141.985 C 349.671 139.716, 349.455 140.104, 346.891 133.250 C 345.879 130.544, 346.571 130.567, 339.500 133 C 336.303 134.100, 333.156 135, 332.507 135 C 331.859 135, 330.608 132.412, 329.729 129.250 C 328.849 126.088, 327.839 122.742, 327.483 121.815 C 326.957 120.445, 328.044 119.758, 333.313 118.131 C 336.875 117.030, 341.412 115.826, 343.395 115.454 C 345.378 115.082, 346.997 114.265, 346.994 113.639 C 346.983 111.404, 344.893 105.002, 344.203 105.088 C 343.816 105.136, 336.075 107.452, 327 110.234 M 492.579 112.250 C 491.050 118.197, 478.906 155.179, 476.520 161.154 C 475.992 162.476, 476.922 163.120, 481.143 164.357 C 484.049 165.209, 486.484 165.815, 486.554 165.703 C 486.624 165.591, 489.434 156.950, 492.798 146.500 C 496.162 136.050, 499.008 127.725, 499.122 128 C 499.236 128.275, 499.592 136.106, 499.914 145.402 L 500.500 162.304 504.248 163.599 L 507.996 164.894 518.219 151.502 C 523.842 144.136, 528.569 138.236, 528.724 138.391 C 528.879 138.546, 526.309 146.940, 523.012 157.046 C 519.716 167.151, 517.352 175.691, 517.759 176.023 C 518.776 176.852, 530.099 180.237, 530.492 179.829 C 530.666 179.648, 532.201 174.712, 533.902 168.861 C 535.603 163.009, 539.722 150.248, 543.055 140.502 C 546.389 130.756, 548.978 122.671, 548.808 122.533 C 548.639 122.396, 545.009 121.125, 540.742 119.708 L 532.984 117.132 522.742 130.562 L 512.500 143.991 511.824 139.746 C 511.452 137.411, 511.115 129.799, 511.074 122.832 L 511 110.164 503.247 107.582 C 498.982 106.162, 495.257 105, 494.968 105 C 494.679 105, 493.604 108.263, 492.579 112.250 M 383.362 114.250 C 383.690 117.688, 384.479 126.648, 385.116 134.163 C 385.753 141.677, 386.613 148.374, 387.028 149.045 C 387.533 149.862, 388.985 150.038, 391.438 149.578 C 398.273 148.295, 401.027 139.619, 399.068 125.537 C 397.291 112.758, 393.727 108, 385.933 108 L 382.767 108 383.362 114.250 M 277.795 129.987 C 276.307 130.436, 269.741 133.618, 263.202 137.058 L 251.315 143.314 255.330 149.907 C 257.538 153.533, 264.033 165.622, 269.763 176.772 L 280.181 197.043 285.841 193.872 C 288.953 192.127, 291.837 190.408, 292.248 190.052 C 292.660 189.695, 290.522 184.925, 287.498 179.452 C 281.614 168.801, 281.147 167.264, 283.524 166.352 C 284.526 165.968, 288.397 168.858, 294.823 174.787 L 304.598 183.807 312.259 179.809 L 319.919 175.810 308.210 166.772 C 301.769 161.801, 296.299 157.555, 296.053 157.336 C 295.806 157.118, 296.369 155.645, 297.303 154.065 C 298.314 152.352, 299 149.087, 299 145.982 C 299 133.961, 289.181 126.555, 277.795 129.987 M 1215.748 137.427 C 1201.489 142.515, 1192.396 160.278, 1187.300 193 C 1184.686 209.782, 1184.682 271.252, 1187.293 288 C 1193.514 327.888, 1205.981 346.319, 1225.674 344.738 C 1244.163 343.254, 1255.208 324.614, 1260.734 285.571 C 1262.067 276.153, 1262.443 266.246, 1262.443 240.500 C 1262.443 204.705, 1261.381 192.643, 1256.557 173.626 C 1251.546 153.872, 1242.525 140.718, 1231.806 137.535 C 1225.546 135.676, 1220.744 135.644, 1215.748 137.427 M 274.500 141.850 C 268.633 143.757, 268.556 144.124, 272.518 151.331 C 274.534 154.999, 276.783 158, 277.515 158 C 278.247 158, 280.231 156.835, 281.923 155.411 C 286.707 151.386, 285.952 145.165, 280.316 142.163 C 277.943 140.899, 277.496 140.875, 274.500 141.850 M 2163.750 141.689 C 2162.124 142.114, 2162 144.721, 2162 178.554 L 2162 214.962 2164.750 215.720 C 2169.938 217.149, 2187.185 216.480, 2193.500 214.605 C 2206.745 210.672, 2215.965 202.903, 2220.090 192.202 C 2223.138 184.294, 2223.085 172.737, 2219.963 164.531 C 2215.859 153.741, 2204.540 144.920, 2191.201 142.115 C 2186.093 141.040, 2167.345 140.750, 2163.750 141.689 M 2618.378 150.750 C 2617.311 163.619, 2617.312 316.404, 2618.380 330.386 L 2619.211 341.271 2629.059 340.593 C 2634.475 340.220, 2641.410 339.263, 2644.470 338.466 C 2666.750 332.663, 2678.761 314.979, 2684.183 280 C 2686.027 268.101, 2685.988 211.703, 2684.128 199.500 C 2679.877 171.624, 2670.498 155.138, 2654.549 147.511 C 2646.825 143.817, 2634.034 141, 2624.983 141 L 2619.187 141 2618.378 150.750 M 582.551 144.750 C 581.940 147.511, 565.918 162.292, 547.240 177.326 C 542.697 180.983, 538.948 184.261, 538.909 184.610 C 538.870 184.959, 540.761 186.517, 543.111 188.073 L 547.383 190.902 551.669 186.951 C 554.027 184.778, 556.272 183, 556.660 183 C 558.219 183, 569.966 190.575, 569.983 191.591 C 569.992 192.191, 569.346 194.855, 568.546 197.512 C 567.747 200.168, 567.307 202.688, 567.569 203.112 C 568.209 204.147, 580.049 211.312, 580.369 210.858 C 580.508 210.661, 582.046 204.650, 583.787 197.500 C 586.776 185.228, 595.067 155.404, 596.471 151.877 C 596.955 150.661, 595.475 149.216, 590.583 146.127 C 586.989 143.857, 583.849 142, 583.604 142 C 583.359 142, 582.885 143.238, 582.551 144.750 M 223.789 163.277 C 216.249 168.900, 210.061 174.007, 210.039 174.628 C 210.018 175.248, 210.706 176.341, 211.569 177.057 C 213.344 178.531, 238.184 211.244, 242.468 217.750 C 244.007 220.088, 245.675 222, 246.176 222 C 246.676 222, 249.536 220.150, 252.532 217.888 L 257.977 213.777 256.035 211.138 C 254.967 209.687, 251.607 205.350, 248.568 201.500 C 245.529 197.650, 243.034 194.024, 243.022 193.441 C 243.010 192.859, 245.678 190.650, 248.950 188.532 L 254.901 184.681 252.200 180.862 C 250.715 178.761, 249.221 177.033, 248.881 177.021 C 248.540 177.010, 246.001 178.800, 243.237 181 C 240.474 183.200, 237.730 185, 237.139 185 C 235.868 185, 228 174.828, 228 173.185 C 228 172.122, 240.756 162.582, 243.323 161.725 C 244.474 161.341, 239.460 152.967, 238.114 153.027 C 237.776 153.043, 231.330 157.655, 223.789 163.277 M 571.604 169.052 C 567.972 172.449, 565.003 175.515, 565.008 175.865 C 565.017 176.616, 573.032 181.311, 573.483 180.830 C 574.142 180.128, 578.934 163.601, 578.581 163.248 C 578.376 163.042, 575.236 165.654, 571.604 169.052 M 621.841 178.846 C 618.758 182.506, 609.458 192.516, 601.175 201.091 L 586.115 216.682 591.492 221.992 L 596.870 227.303 601.759 221.902 C 604.448 218.931, 608.377 214.563, 610.490 212.195 L 614.332 207.891 620.014 213.514 L 625.696 219.137 628.787 215.318 L 631.877 211.500 626.283 206.463 L 620.690 201.427 626.278 195.463 L 631.867 189.500 639.489 197 L 647.110 204.500 650.055 201.234 C 651.675 199.438, 653 197.577, 653 197.098 C 653 196.619, 647.250 190.819, 640.223 184.210 L 627.446 172.192 621.841 178.846 M 389.500 181.533 C 318.380 190.832, 254.799 231.609, 216.474 292.500 C 209.477 303.618, 199.365 324.277, 194.567 337.259 C 183.536 367.106, 178.469 403.179, 180.803 435.243 C 181.446 444.077, 182.238 451.572, 182.564 451.897 C 182.889 452.222, 185.004 450.506, 187.264 448.083 C 190.403 444.717, 194.692 442.091, 205.436 436.952 L 219.500 430.226 256.777 389.723 C 277.279 367.446, 295.054 348.951, 296.277 348.623 C 297.500 348.295, 300.751 348.021, 303.502 348.014 C 308.317 348.001, 309.213 347.494, 327.450 334.470 C 343.105 323.289, 352.027 315.778, 378.817 291.220 C 396.648 274.874, 412.244 260.957, 413.475 260.294 C 415.663 259.113, 415.728 258.561, 416.443 234.794 C 416.845 221.432, 417.594 209.994, 418.106 209.375 C 421.427 205.364, 436.260 205.219, 448 209.083 C 454.789 211.317, 470.854 212.121, 477.750 210.571 L 481 209.841 481 225.353 C 481 242.958, 481.992 241.212, 471 242.955 C 461.729 244.424, 457.475 244.262, 446 242 C 435.339 239.899, 430.250 239.542, 428.372 240.765 C 427.711 241.196, 427.090 245.473, 426.872 251.088 L 426.500 260.676 466.500 292.442 C 488.500 309.913, 507.765 325.397, 509.312 326.850 C 511.330 328.747, 512.991 332.326, 515.198 339.536 L 518.272 349.580 529.886 362.385 L 541.500 375.191 585.211 394.095 L 628.923 413 640.961 413 C 653.875 413, 654.135 413.091, 658.198 419.022 C 659.890 421.493, 659.895 421.485, 659.944 416 C 660.012 408.341, 658.199 389.225, 656.395 378.592 C 643.753 304.073, 595.044 238.872, 526.500 204.716 C 500.576 191.798, 474.594 184.086, 446.789 181.058 C 433.815 179.644, 401.918 179.909, 389.500 181.533 M 189.084 193.415 L 183.736 198.830 187.618 202.115 C 189.753 203.921, 199.615 213.410, 209.534 223.200 L 227.568 241 232.976 235.524 L 238.384 230.048 229.942 222.339 C 225.299 218.099, 215.443 208.639, 208.041 201.315 C 200.638 193.992, 194.548 188, 194.507 188 C 194.465 188, 192.025 190.437, 189.084 193.415 M 163.119 223.150 C 156.941 231.391, 151.665 238.709, 151.395 239.412 C 150.965 240.535, 157.722 246.754, 158.392 245.851 C 158.535 245.658, 159.636 243.863, 160.838 241.862 C 165.091 234.785, 164.663 234.689, 179.751 246.113 C 187.296 251.826, 196.322 258.903, 199.810 261.840 C 203.299 264.777, 206.264 267.027, 206.400 266.840 C 206.536 266.653, 208.718 263.765, 211.250 260.422 L 215.852 254.344 212.842 252.566 C 206.846 249.024, 175 224.779, 175 223.756 C 175 223.178, 176.625 220.722, 178.612 218.298 C 180.598 215.874, 182.061 213.784, 181.862 213.655 C 181.663 213.525, 179.892 212.237, 177.926 210.793 L 174.351 208.166 163.119 223.150 M 442 223.996 L 442 237.801 446.750 238.834 C 449.363 239.402, 453.863 240.100, 456.750 240.386 L 462 240.906 462 228.047 L 462 215.188 456.750 214.479 C 453.863 214.090, 449.363 212.966, 446.750 211.982 L 442 210.192 442 223.996 M 662.471 212.674 C 653.455 220.072, 624.095 242.076, 617.144 246.644 C 616.949 246.773, 618.877 249.591, 621.429 252.907 L 626.068 258.937 631.938 254.207 C 635.166 251.606, 639.789 248.054, 642.211 246.315 L 646.615 243.152 650.558 249.049 C 652.726 252.291, 654.950 254.945, 655.500 254.946 C 656.050 254.946, 657.963 253.721, 659.751 252.223 L 663.001 249.500 658.328 243.635 L 653.655 237.769 656.077 235.848 C 657.410 234.792, 660.394 232.585, 662.710 230.943 L 666.919 227.959 672.038 235.230 C 674.854 239.228, 677.537 243.169, 678.001 243.987 C 678.702 245.223, 679.480 244.961, 682.590 242.444 C 684.649 240.777, 686.372 239.178, 686.417 238.890 C 686.463 238.602, 681.762 232.037, 675.971 224.301 L 665.441 210.237 662.471 212.674 M 687.945 252.737 C 683.535 255.718, 671.144 263.186, 643.066 279.787 C 641.897 280.478, 642.325 281.773, 645.389 286.817 C 647.455 290.218, 649.456 293, 649.836 293 C 650.216 293, 652.913 291.393, 655.830 289.428 C 663.893 283.999, 688.602 269.230, 695.173 265.913 C 698.378 264.295, 700.999 262.640, 700.997 262.236 C 700.995 261.663, 694.481 250.268, 693.589 249.278 C 693.480 249.156, 690.939 250.713, 687.945 252.737 M 143.277 252.250 C 142.745 252.938, 139.255 259.350, 135.522 266.500 C 131.789 273.650, 127.884 280.919, 126.846 282.653 L 124.957 285.805 129.371 288.272 L 133.785 290.739 136.362 284.768 L 138.938 278.796 154.547 286.961 C 163.132 291.452, 173.402 297.045, 177.369 299.391 L 184.584 303.656 188.235 296.843 L 191.886 290.030 182.693 285.547 C 163.237 276.057, 147 266.884, 147 265.382 C 147 264.545, 148.343 261.909, 149.984 259.523 L 152.968 255.185 148.953 253.093 C 144.221 250.626, 144.502 250.668, 143.277 252.250 M 390.926 310.847 C 362.901 337.968, 361.914 338.803, 339.600 354.250 L 316.848 370 309.674 370.021 L 302.500 370.042 291.874 383.271 L 281.248 396.500 292.125 418.244 L 303.003 439.988 295.936 456.076 L 288.869 472.164 297.161 481.236 L 305.453 490.308 307.636 505.055 L 309.819 519.802 318.138 531.575 C 322.947 538.380, 325.963 543.512, 325.286 543.738 C 322.598 544.634, 307.132 555.593, 301.178 560.820 L 294.756 566.458 272.850 555.149 L 250.944 543.840 233.722 554.540 L 216.500 565.240 193.500 570.740 C 180.850 573.766, 170.336 576.388, 170.136 576.568 C 169.936 576.747, 172.815 581.306, 176.533 586.697 C 206.313 629.876, 245.756 663.217, 295.034 686.865 C 327.808 702.593, 356.741 710.326, 393.045 713.060 C 455.535 717.767, 513.102 698.110, 534.927 664.612 C 556.308 631.796, 539.189 594.469, 492.664 572.456 C 447.296 550.990, 381.464 549.862, 335.313 569.759 C 317.048 577.633, 305.361 585.492, 294.550 597.169 C 290.947 601.060, 288 603.894, 288 603.468 C 288 600.625, 296.692 588.175, 303.891 580.708 C 317.916 566.158, 335.205 555.876, 359 547.933 C 424.590 526.038, 508.252 538.499, 548.512 576.160 C 552.080 579.498, 555 581.928, 555 581.560 C 555 579.698, 546.367 568.721, 540.338 562.916 C 532.413 555.286, 527.878 551.773, 519.380 546.680 C 514.970 544.038, 511.559 540.815, 507.172 535.144 L 501.085 527.274 495.143 503.571 C 491.875 490.534, 489.043 479.716, 488.851 479.531 C 488.039 478.751, 449.649 462, 448.674 462 C 448.087 462, 439.032 468.494, 428.553 476.431 L 409.500 490.861 393.624 495.972 C 384.892 498.783, 377.413 500.951, 377.004 500.791 C 376.595 500.631, 386.440 476.968, 398.880 448.207 L 421.500 395.914 434.250 387.446 C 441.262 382.788, 447 378.777, 447 378.532 C 447 377.523, 420.732 285.408, 420.142 284.347 C 419.756 283.654, 408.091 294.235, 390.926 310.847 M 690.594 287.028 C 684.788 288.035, 674.922 292.733, 669.966 296.852 C 668.023 298.467, 665.165 302.117, 663.616 304.964 C 653.701 323.181, 669.739 341.474, 691.684 336.977 C 713.496 332.508, 727.088 314.584, 720.104 299.500 C 715.492 289.539, 704.038 284.698, 690.594 287.028 M 692.333 302.870 C 682.448 306.311, 676.089 309.917, 672.605 314.057 C 669.477 317.775, 669.356 319.356, 672 322 C 675.630 325.630, 685.477 324.079, 698.817 317.777 C 710.919 312.059, 715.369 305.473, 709.777 301.557 C 706.534 299.285, 701.555 299.659, 692.333 302.870 M 123.500 306.840 C 118.541 309.182, 114.744 312.692, 112.389 317.113 C 109.812 321.949, 109.973 331.322, 112.723 336.568 C 120.742 351.867, 145.847 359.651, 160.845 351.488 C 168.004 347.592, 171.313 342.454, 171.823 334.444 C 172.532 323.298, 166.504 314.978, 153.123 308.638 C 147.374 305.914, 145.247 305.464, 137 305.225 C 129.359 305.004, 126.717 305.320, 123.500 306.840 M 121.655 320.829 C 119.159 323.587, 119.656 326.876, 123.048 330.044 C 128.762 335.382, 150.953 342.232, 157.339 340.630 C 158.789 340.266, 160.685 338.885, 161.552 337.560 C 162.965 335.405, 162.973 334.848, 161.629 332.250 C 157.372 324.017, 126.700 315.254, 121.655 320.829 M 730.291 344.016 C 727.139 345.285, 682.746 353.997, 679.340 354.015 C 673.749 354.045, 673.733 354.225, 677.619 373.641 L 681.228 391.670 685.864 390.659 C 688.414 390.102, 690.658 389.530, 690.852 389.388 C 691.045 389.246, 690.515 386.963, 689.673 384.315 C 687.904 378.747, 685.804 368.862, 686.289 368.378 C 686.917 367.749, 710.555 362.854, 723.542 360.663 L 736.584 358.462 735.200 350.731 C 734.439 346.479, 733.520 343.029, 733.158 343.063 C 732.796 343.098, 731.506 343.527, 730.291 344.016 M 130.609 371.166 C 130.327 373, 129.905 376.637, 129.671 379.250 L 129.246 384 136.998 384 C 148.699 384, 151 384.665, 151 388.048 C 151 392.056, 146.644 396.749, 141.677 398.091 C 135.050 399.882, 123.396 398.786, 116.756 395.746 C 109.451 392.401, 106.698 388.380, 107.350 382 C 107.733 378.245, 108.508 376.879, 112.033 373.750 L 116.257 370 111.879 369.989 C 109.470 369.983, 105.884 369.711, 103.909 369.384 C 100.332 368.792, 100.314 368.808, 98.945 373.645 C 93.491 392.916, 105.506 410.646, 126.267 413.963 C 140.185 416.186, 152.015 410.905, 157.547 400 C 159.837 395.486, 160.599 383.666, 159.024 377.101 C 158.350 374.292, 157.507 371.814, 157.150 371.593 C 156.792 371.373, 151.443 370.687, 145.262 370.070 C 139.082 369.452, 133.372 368.696, 132.573 368.390 C 131.533 367.991, 130.977 368.778, 130.609 371.166 M 525 405.812 L 525 419.534 536.575 448.517 C 542.941 464.458, 548.903 478.250, 549.825 479.166 C 550.746 480.082, 560.725 487.270, 572 495.138 L 592.500 509.445 620.847 511.160 L 649.195 512.874 656.847 519.137 C 661.056 522.582, 669.568 529.611, 675.761 534.757 L 687.022 544.114 689.110 539.307 C 694.268 527.428, 699.346 513.596, 702.437 503 C 705.732 491.706, 710.339 471.954, 709.783 471.503 C 709.627 471.377, 699.150 467.830, 686.500 463.621 C 673.850 459.411, 662.983 455.637, 662.350 455.234 C 661.718 454.830, 658.060 449.734, 654.222 443.909 L 647.243 433.318 634.547 432.639 L 621.851 431.960 580.176 414.882 C 557.254 405.489, 535.462 396.518, 531.750 394.946 L 525 392.089 525 405.812 M 730 395.005 C 726.975 395.403, 714.712 396.330, 702.750 397.065 L 681 398.401 681 403.075 C 681 405.646, 681.266 409.082, 681.592 410.709 C 682.182 413.662, 682.195 413.667, 687.342 412.877 C 692.249 412.125, 734.301 409, 739.524 409 C 741.781 409, 742 408.614, 742 404.625 C 742 402.219, 741.719 398.844, 741.375 397.125 C 740.685 393.673, 740.454 393.630, 730 395.005 M 2040.500 445.088 C 1992.378 449.441, 1951.877 488.981, 1937.641 545.509 C 1926.326 590.437, 1930.482 641.110, 1948.584 678.929 C 1965.653 714.592, 1992.521 738.210, 2025.500 746.542 C 2063.474 756.136, 2101.090 744.682, 2129.594 714.844 C 2155.260 687.978, 2169.129 650.726, 2170.700 604.435 C 2173.982 507.702, 2117.157 438.155, 2040.500 445.088 M 861.394 453.739 C 863.943 470.476, 864.500 496.154, 864.500 597 C 864.500 697.827, 863.943 723.520, 861.395 740.250 L 860.824 744 890.491 744 L 920.158 744 919.578 736.250 C 918.868 726.756, 917.876 550.101, 918.541 551.500 C 918.802 552.050, 931.564 587.150, 946.900 629.500 L 974.785 706.500 995.722 706.769 L 1016.659 707.039 1042.472 635.769 C 1056.669 596.571, 1069.115 562.475, 1070.129 560 C 1071.935 555.590, 1071.964 557.287, 1071.545 645 C 1071.309 694.225, 1070.820 736.638, 1070.458 739.250 L 1069.799 744 1108.043 744 L 1146.287 744 1145.639 735.250 C 1142.936 698.744, 1142.629 684.644, 1142.629 597 C 1142.629 509.113, 1142.879 497.650, 1145.636 459.250 L 1146.299 450 1102.400 450.023 L 1058.500 450.046 1031.077 526.273 C 1015.994 568.198, 1003.394 602.807, 1003.077 603.183 C 1002.760 603.559, 990.314 569.359, 975.421 527.183 L 948.342 450.500 904.581 450.239 L 860.821 449.979 861.394 453.739 M 1242 450.760 C 1242 451.178, 1243.575 457.266, 1245.500 464.289 C 1247.425 471.312, 1249 477.962, 1249 479.067 C 1249 480.172, 1243.570 499.172, 1236.932 521.288 C 1204.543 629.218, 1187.404 681.553, 1170.640 723.718 C 1166.438 734.288, 1163 743.182, 1163 743.482 C 1163 743.783, 1176.793 743.910, 1193.651 743.764 L 1224.302 743.500 1227.565 728.500 C 1229.360 720.250, 1232.038 709.450, 1233.516 704.500 C 1234.994 699.550, 1236.740 693.700, 1237.396 691.500 L 1238.588 687.500 1276.950 687.500 L 1315.312 687.500 1319.211 700 C 1322.577 710.791, 1328.490 732.539, 1330.427 741.250 L 1331.038 744 1372.626 744 C 1405.515 744, 1414.102 743.739, 1413.680 742.750 C 1400.790 712.591, 1391.724 685.944, 1365.115 600 C 1341.435 523.514, 1332.527 492.643, 1327.026 468 C 1325.369 460.575, 1323.776 453.488, 1323.487 452.250 L 1322.962 450 1282.481 450 C 1260.216 450, 1242 450.342, 1242 450.760 M 1431.348 455.750 C 1434.075 481.615, 1434.493 500.322, 1434.497 596.500 C 1434.500 692.357, 1433.982 715.583, 1431.326 738.750 L 1430.725 744 1470.456 744 L 1510.188 744 1509.571 739.250 C 1508.381 730.073, 1507.026 684.171, 1507.013 652.593 L 1507 620.686 1530.048 621.373 C 1551.567 622.014, 1569.450 623.207, 1578.250 624.587 L 1582 625.176 1582 598.474 L 1582 571.773 1578.750 572.396 C 1576.963 572.739, 1560.382 573.302, 1541.905 573.648 L 1508.309 574.276 1507.598 555.638 C 1507.208 545.387, 1507.208 528.614, 1507.598 518.365 L 1508.309 499.731 1546.404 500.331 C 1580.667 500.871, 1590.428 501.395, 1606.250 503.543 L 1611 504.188 1611 477.757 L 1611 451.326 1566.750 450.664 C 1542.412 450.300, 1501.854 450.002, 1476.621 450.001 L 1430.742 450 1431.348 455.750 M 1628.348 453.250 C 1630.903 467.790, 1631.500 494.921, 1631.500 596.500 C 1631.500 697.225, 1630.818 728.899, 1628.383 741.250 L 1627.841 744 1667.513 744 L 1707.185 744 1706.601 738.250 C 1706.279 735.087, 1705.736 707.341, 1705.394 676.591 L 1704.772 620.681 1727.326 621.374 C 1748.796 622.034, 1766.461 623.208, 1775.750 624.593 L 1780 625.227 1780 598.500 L 1780 571.773 1776.750 572.389 C 1774.963 572.728, 1758.088 573.293, 1739.250 573.646 L 1705 574.288 1705 537.009 L 1705 499.729 1743.750 500.329 C 1778.596 500.868, 1788.369 501.387, 1804.250 503.543 L 1809 504.188 1809 477.757 L 1809 451.326 1763.836 450.663 C 1738.996 450.298, 1698.220 450, 1673.225 450 L 1627.777 450 1628.348 453.250 M 1825.373 454.250 C 1828.001 472.844, 1828.500 495.634, 1828.500 597 C 1828.500 697.827, 1827.943 723.520, 1825.395 740.250 L 1824.824 744 1865.492 744 L 1906.159 744 1905.622 741.250 C 1903.153 728.597, 1902.500 698.442, 1902.500 597 C 1902.500 495.558, 1903.153 465.403, 1905.622 452.750 L 1906.159 450 1865.466 450 L 1824.773 450 1825.373 454.250 M 2198.356 458.750 C 2201.167 497, 2201.399 507.592, 2201.394 597 C 2201.389 685.791, 2201.074 700.174, 2198.362 735.455 L 2197.705 744 2290.602 744 L 2383.500 744 2383.500 717.750 L 2383.500 691.500 2372 693.151 C 2352.722 695.919, 2333.705 697, 2304.303 697 L 2276.220 697 2275.367 676.250 C 2274.897 664.837, 2274.517 619.725, 2274.522 576 C 2274.531 501.383, 2274.940 485.675, 2277.631 456.750 L 2278.258 450 2237.986 450 L 2197.713 450 2198.356 458.750 M 2402.393 452.750 C 2404.866 465.079, 2405.500 494.497, 2405.500 597 C 2405.500 699.503, 2404.866 728.921, 2402.393 741.250 L 2401.841 744 2442.534 744 L 2483.227 744 2482.641 739.750 C 2480.014 720.702, 2479.500 697.332, 2479.500 597 C 2479.500 496.668, 2480.014 473.298, 2482.641 454.250 L 2483.227 450 2442.534 450 L 2401.841 450 2402.393 452.750 M 2555.813 452.872 C 2548.603 455.775, 2544.567 458.600, 2539.130 464.548 C 2531.898 472.461, 2529.562 479.020, 2529.530 491.500 C 2529.507 500.696, 2529.762 502.042, 2532.696 508.241 C 2547.653 539.841, 2591.847 539.698, 2606.890 508 C 2609.233 503.062, 2609.500 501.325, 2609.500 491 C 2609.500 480.237, 2609.310 479.125, 2606.536 473.645 C 2602.735 466.135, 2594.800 458.219, 2587.355 454.511 C 2582.198 451.942, 2580.248 451.558, 2571 451.290 C 2562.526 451.044, 2559.596 451.349, 2555.813 452.872 M 2560.286 458.386 C 2549.424 461.948, 2540.757 470.194, 2537.468 480.097 C 2534.968 487.624, 2535.795 499.813, 2539.266 506.592 C 2542.776 513.447, 2551.593 521.372, 2558.123 523.541 C 2564.163 525.547, 2574.097 525.764, 2579.606 524.011 C 2589.306 520.923, 2598.050 512.523, 2601.625 502.857 C 2602.542 500.378, 2603.265 495.264, 2603.302 490.992 C 2603.356 484.941, 2602.865 482.385, 2600.774 477.817 C 2595.112 465.451, 2584.714 458.172, 2571.630 457.416 C 2567.174 457.158, 2562.919 457.522, 2560.286 458.386 M 2553 490.907 L 2553 514.115 2557.250 513.807 L 2561.500 513.500 2561.789 504.750 L 2562.078 496 2566.571 496 C 2573.689 496, 2577.670 498.149, 2578.925 502.670 C 2579.510 504.777, 2579.991 508.188, 2579.994 510.250 C 2580 513.957, 2580.045 514, 2584 514 L 2588 514 2587.994 509.250 C 2587.986 502.238, 2586.323 497.450, 2582.894 494.564 C 2581.027 492.993, 2580.423 492, 2581.334 492 C 2582.153 492, 2583.987 490.615, 2585.411 488.923 C 2590.087 483.366, 2588.249 473.731, 2581.883 470.440 C 2579.758 469.340, 2574.796 468.667, 2565.900 468.272 L 2553 467.698 2553 490.907 M 2562 482.500 L 2562 490 2566.250 489.994 C 2576.413 489.981, 2581.455 485.957, 2579.093 479.745 C 2577.712 476.113, 2575.126 475, 2568.066 475 L 2562 475 2562 482.500 M 2040.444 495.374 C 2020.557 504.634, 2010.734 543.812, 2012.332 607.500 C 2012.984 633.487, 2014.588 648.132, 2018.479 663.597 C 2026.336 694.834, 2043.591 708.277, 2063.159 698.408 C 2078.866 690.487, 2087.947 662.430, 2089.904 615.781 C 2092.736 548.254, 2082.465 504.538, 2061.500 494.886 C 2055.700 492.215, 2046.784 492.422, 2040.444 495.374 M 1272.739 569.730 C 1266.922 588.117, 1259.977 611.679, 1255.638 627.750 L 1253.140 637 1277.570 637 C 1291.006 637, 1301.996 636.663, 1301.991 636.250 C 1301.956 633.459, 1280.113 553.847, 1279.076 552.730 C 1278.683 552.307, 1275.831 559.957, 1272.739 569.730 M 343.500 637 L 343.500 670 357 670.001 L 370.500 670.001 370.150 660.976 L 369.799 651.951 373.467 647.476 C 375.484 645.014, 377.505 643, 377.958 643 C 378.864 643, 392.102 662.936, 394.083 667.284 L 395.321 670 410.282 670 C 424.669 670, 425.191 669.929, 423.872 668.149 C 423.117 667.132, 416.322 657.134, 408.770 645.933 L 395.040 625.568 397.690 622.802 C 400.709 619.650, 406.645 617.187, 412.500 616.657 L 416.500 616.294 416.798 610.147 L 417.095 604 411.023 604 C 398.751 604, 389.090 609.439, 376.966 623.176 L 369.840 631.249 370.170 617.623 L 370.500 603.997 357 603.999 L 343.500 604 343.500 637 M 447.500 607.482 C 437.513 609.340, 430.481 612.166, 430.583 614.281 C 430.629 615.227, 430.742 618.168, 430.833 620.817 L 431 625.635 438.105 622.108 C 448.581 616.908, 460.431 616.431, 465.025 621.025 C 470.290 626.290, 466.177 631.367, 443.427 647.688 L 427 659.472 427 664.736 L 427 670 461 670 L 495 670 495 663.344 L 495 656.688 475.500 657.286 C 464.775 657.615, 456 657.754, 456 657.595 C 456 657.436, 462.855 653.075, 471.234 647.903 C 479.613 642.731, 488.838 636.225, 491.734 633.443 C 496.598 628.773, 497 628.034, 497 623.770 C 497 618.281, 493.964 614.043, 487.768 610.882 C 478.712 606.262, 461.758 604.831, 447.500 607.482" stroke="none" fill="#045484" fill-rule="evenodd"/></svg>