<?xml version="1.0" encoding="UTF-8"?><svg id="Livello_1" xmlns="http://www.w3.org/2000/svg" viewBox="0 0 500 61.089"><defs><style>.cls-1{fill:#142531;}.cls-2{fill:#5a5ccd;}</style></defs><path class="cls-2" d="m166.48926,59.74361C162.73956,25.29004,150.34846.00002,135.63998.00002s-27.09958,25.29001-30.84928,59.74359h-18.69727c-7.02633-20.5468-23.6526-34.99002-43.04672-34.99002S7.02633,39.19681,0,59.74361h54.96394c5.11649-27.67745,19.67889-47.64598,36.84546-47.64598s31.72897,19.96854,36.84546,47.64598h37.83439Z"/><path class="cls-1" d="m204.31984,59.75745V12.08696h22.63685l16.57834,32.15762h.13323l16.31187-32.15762h22.96973v47.67049h-16.57834v-29.76082h-.13323l-14.91352,29.76082h-14.8471l-15.44625-29.69421h-.13323v29.69421h-16.57834Z"/><path class="cls-1" d="m286.27988,59.75745l23.83515-47.67049h20.37348l23.16938,47.67049h-18.17593l-3.66191-8.25566h-23.70231l-3.5953,8.25566h-18.24255Zm25.16708-18.0431h17.04425l-8.38929-18.90812h-.13283l-8.52213,18.90812Z"/><path class="cls-1" d="m357.05374,59.75745V12.08696h17.51057v47.67049h-17.51057Z"/><path class="cls-1" d="m419.63775,52.83332l-2.7963-4.59415c-1.9973-2.86291-4.86021-4.26106-8.18904-4.26106h-9.85366v15.77934h-17.57719V12.08696h40.21403c12.78319,0,20.17323,5.52598,20.17323,15.11337,0,7.19059-5.12628,12.18404-13.84825,13.84825v.06662c1.598.53293,3.06236,1.93108,4.19445,3.5953l3.26221,4.92683c.93223,1.33153,2.13053,2.13053,4.06161,2.13053,1.13168,0,2.72968-.53253,3.52868-1.46477l2.7963,7.05736c-2.59685,2.19715-7.85636,3.72853-12.18404,3.72853-7.32383,0-10.98574-4.26106-13.78204-8.25566Zm-20.839-18.64225h17.2437c4.99345,0,7.92298-2.19715,7.92298-5.92568,0-3.66151-2.92953-5.85846-7.85636-5.85846h-17.31032v11.78414Z"/><path class="cls-1" d="m448.93386,59.75745V12.08696h50.40037v10.78589h-33.35612v7.98939h30.69306v9.25451h-30.69306v8.85481h34.02189v10.78589h-51.06614Z"/></svg>